DBRep_DrawableShape

CASCADE Topology V1, (c) Matra-Datavision
Locations 2
1
              1               0               0 216.112140869073 
              0               1               0 459.738558932124 
              0               0               1           48.25 
1
              1               0               0               0 
              0               1               0               0 
              0               0               1            5.85 
Curve2ds 20
1 6.2831853071795862 0 0 1 
1 0 0 0 1 
1 0 5.8499999999999996 1 0 
2 0 0 -1 0 0 1 9
8 0 5.8499999999999979
1 3.1415926535897931 0 0 1 
8 0 5.8499999999999979
1 69.5 -64.950000000000003 0 -1 
1 0 0 1 0 
2 0 0 -1 0 0 1 9
8 20.465233552747783 58.034766447252217
1 39.25 0 -1 0 
8 20.465233552747783 58.034766447252217
1 39.25 -64.950000000000003 1 0 
1 6.2831853071795862 0 0 1 
1 0 0 0 1 
8 20.465233552747783 58.034766447252217
1 39.25 0 -1 0 
8 20.465233552747783 58.034766447252217
1 39.25 -70.799999999999997 1 0 
1 0 5.8499999999999996 1 0 
2 0 0 -1 0 0 1 17.5
8 0 5.8499999999999979
1 3.1415926535897931 0 0 1 
8 0 5.8499999999999979
1 61 -64.950000000000003 0 -1 
1 0 0 1 0 
2 0 0 -1 0 0 1 17.5
Curves 10
1 9 0 -26.050000000000001 0 0 1 
2 0 0 -20.200000000000003 0 0 1 1 0 -0 -0 1 0 9
1 -9 0 -26.050000000000001 0 0 1 
2 0 0 -26.050000000000001 0 0 1 1 0 -0 -0 1 0 9
1 -39.25 0 -26.049999999999997 1 0 0 
1 17.5 0 -26.050000000000001 0 0 1 
1 -39.25 0 -20.200000000000003 1 0 0 
2 0 0 -20.200000000000003 0 0 1 1 0 -0 -0 1 0 17.5
1 -17.5 0 -26.050000000000001 0 0 1 
2 0 0 -26.050000000000001 0 0 1 1 0 -0 -0 1 0 17.5
Polygon3D 0
PolygonOnTriangulations 40
2 1 2 
p 0.151534908840935 1 0 5.85 
2 2 21 
p 0.151534908840935 1 0 5.85 
2 1 4 
p 0.151534908840935 1 0 5.85 
19 2 4 5 6 7 8 9 10 11 12 13 14 15 16 17 18 19 20 3 
p 0.151534908840935 1 0 0.174532925199433 0.349065850398866 0.523598775598299 0.698131700797732 0.872664625997165 1.0471975511966 1.22173047639603 1.39626340159546 1.5707963267949 1.74532925199433 1.91986217719376 2.0943951023932 2.26892802759263 2.44346095279206 2.61799387799149 2.79252680319093 2.96705972839036 3.14159265358979 
19 1 22 23 24 25 26 27 28 29 30 31 32 33 34 35 36 37 38 21 
p 0.151534908840935 1 0 0.174532925199433 0.349065850398866 0.523598775598299 0.698131700797732 0.872664625997165 1.0471975511966 1.22173047639603 1.39626340159546 1.5707963267949 1.74532925199433 1.91986217719376 2.0943951023932 2.26892802759263 2.44346095279206 2.61799387799149 2.79252680319093 2.96705972839036 3.14159265358979 
2 21 3 
p 0.151534908840935 1 0 5.85 
2 1 20 
p 0.151534908840935 1 0 5.85 
2 1 2 
p 0.151534908840935 1 0 5.85 
19 1 22 23 24 25 26 27 28 29 30 31 32 33 34 35 36 37 38 21 
p 0.151534908840935 1 0 0.174532925199433 0.349065850398866 0.523598775598299 0.698131700797732 0.872664625997165 1.0471975511966 1.22173047639603 1.39626340159546 1.5707963267949 1.74532925199433 1.91986217719376 2.0943951023932 2.26892802759263 2.44346095279206 2.61799387799149 2.79252680319093 2.96705972839036 3.14159265358979 
19 1 22 23 24 25 26 27 28 29 30 31 32 33 34 35 36 37 38 21 
p 0.151534908840935 1 0 0.174532925199433 0.349065850398866 0.523598775598299 0.698131700797732 0.872664625997165 1.0471975511966 1.22173047639603 1.39626340159546 1.5707963267949 1.74532925199433 1.91986217719376 2.0943951023932 2.26892802759263 2.44346095279206 2.61799387799149 2.79252680319093 2.96705972839036 3.14159265358979 
2 1 2 
p 0.151534908840935 1 48.25 56.75 
2 1 2 
p 0.151534908840935 1 48.25 56.75 
2 2 21 
p 0.151534908840935 1 48.25 56.75 
2 1 2 
p 0.151534908840935 1 0 5.85 
2 2 21 
p 0.151534908840935 1 0 5.85 
2 2 3 
p 0.151534908840935 1 0 5.85 
2 4 3 
p 0.151534908840935 1 48.25 56.75 
2 1 2 
p 0.151534908840935 1 48.25 56.75 
2 2 21 
p 0.151534908840935 1 48.25 56.75 
19 2 4 5 6 7 8 9 10 11 12 13 14 15 16 17 18 19 20 3 
p 0.151534908840935 1 0 0.174532925199433 0.349065850398866 0.523598775598299 0.698131700797732 0.872664625997165 1.0471975511966 1.22173047639603 1.39626340159546 1.5707963267949 1.74532925199433 1.91986217719376 2.0943951023932 2.26892802759263 2.44346095279206 2.61799387799149 2.79252680319093 2.96705972839036 3.14159265358979 
19 2 4 5 6 7 8 9 10 11 12 13 14 15 16 17 18 19 20 3 
p 0.151534908840935 1 0 0.174532925199433 0.349065850398866 0.523598775598299 0.698131700797732 0.872664625997165 1.0471975511966 1.22173047639603 1.39626340159546 1.5707963267949 1.74532925199433 1.91986217719376 2.0943951023932 2.26892802759263 2.44346095279206 2.61799387799149 2.79252680319093 2.96705972839036 3.14159265358979 
2 3 21 
p 0.151534908840935 1 21.75 30.25 
2 3 2 
p 0.151534908840935 1 21.75 30.25 
2 20 1 
p 0.151534908840935 1 21.75 30.25 
2 21 3 
p 0.151534908840935 1 0 5.85 
2 1 20 
p 0.151534908840935 1 0 5.85 
2 4 3 
p 0.151534908840935 1 0 5.85 
2 4 1 
p 0.151534908840935 1 21.75 30.25 
2 3 21 
p 0.151534908840935 1 21.75 30.25 
2 20 1 
p 0.151534908840935 1 21.75 30.25 
19 1 22 23 24 25 26 27 28 29 30 31 32 33 34 35 36 37 38 21 
p 0.151534908840935 1 0 0.174532925199433 0.349065850398866 0.523598775598299 0.698131700797732 0.872664625997165 1.0471975511966 1.22173047639603 1.39626340159546 1.5707963267949 1.74532925199433 1.91986217719376 2.0943951023932 2.26892802759263 2.44346095279206 2.61799387799149 2.79252680319093 2.96705972839036 3.14159265358979 
19 2 4 5 6 7 8 9 10 11 12 13 14 15 16 17 18 19 20 3 
p 0.151534908840935 1 0 0.174532925199433 0.349065850398866 0.523598775598299 0.698131700797732 0.872664625997165 1.0471975511966 1.22173047639603 1.39626340159546 1.5707963267949 1.74532925199433 1.91986217719376 2.0943951023932 2.26892802759263 2.44346095279206 2.61799387799149 2.79252680319093 2.96705972839036 3.14159265358979 
19 1 3 4 5 6 7 8 9 10 11 12 13 14 15 16 17 18 19 2 
p 0.151534908840935 1 3.14159265358979 3.31612557878923 3.49065850398866 3.66519142918809 3.83972435438752 4.01425727958696 4.18879020478639 4.36332312998582 4.53785605518526 4.71238898038469 4.88692190558412 5.06145483078355 5.23598775598299 5.41052068118242 5.58505360638185 5.75958653158128 5.93411945678072 6.10865238198015 6.28318530717959 
19 1 3 4 5 6 7 8 9 10 11 12 13 14 15 16 17 18 19 2 
p 0.151534908840935 1 3.14159265358979 3.31612557878923 3.49065850398866 3.66519142918809 3.83972435438752 4.01425727958696 4.18879020478639 4.36332312998582 4.53785605518526 4.71238898038469 4.88692190558412 5.06145483078355 5.23598775598299 5.41052068118242 5.58505360638185 5.75958653158128 5.93411945678072 6.10865238198015 6.28318530717959 
19 20 22 23 24 25 26 27 28 29 30 31 32 33 34 35 36 37 38 21 
p 0.151534908840935 1 3.14159265358979 3.31612557878923 3.49065850398866 3.66519142918809 3.83972435438752 4.01425727958696 4.18879020478639 4.36332312998582 4.53785605518526 4.71238898038469 4.88692190558412 5.06145483078355 5.23598775598299 5.41052068118242 5.58505360638185 5.75958653158128 5.93411945678072 6.10865238198015 6.28318530717959 
19 1 3 4 5 6 7 8 9 10 11 12 13 14 15 16 17 18 19 2 
p 0.151534908840935 1 3.14159265358979 3.31612557878923 3.49065850398866 3.66519142918809 3.83972435438752 4.01425727958696 4.18879020478639 4.36332312998582 4.53785605518526 4.71238898038469 4.88692190558412 5.06145483078355 5.23598775598299 5.41052068118242 5.58505360638185 5.75958653158128 5.93411945678072 6.10865238198015 6.28318530717959 
19 1 3 4 5 6 7 8 9 10 11 12 13 14 15 16 17 18 19 2 
p 0.151534908840935 1 3.14159265358979 3.31612557878923 3.49065850398866 3.66519142918809 3.83972435438752 4.01425727958696 4.18879020478639 4.36332312998582 4.53785605518526 4.71238898038469 4.88692190558412 5.06145483078355 5.23598775598299 5.41052068118242 5.58505360638185 5.75958653158128 5.93411945678072 6.10865238198015 6.28318530717959 
19 20 22 23 24 25 26 27 28 29 30 31 32 33 34 35 36 37 38 21 
p 0.151534908840935 1 3.14159265358979 3.31612557878923 3.49065850398866 3.66519142918809 3.83972435438752 4.01425727958696 4.18879020478639 4.36332312998582 4.53785605518526 4.71238898038469 4.88692190558412 5.06145483078355 5.23598775598299 5.41052068118242 5.58505360638185 5.75958653158128 5.93411945678072 6.10865238198015 6.28318530717959 
19 20 22 23 24 25 26 27 28 29 30 31 32 33 34 35 36 37 38 21 
p 0.151534908840935 1 3.14159265358979 3.31612557878923 3.49065850398866 3.66519142918809 3.83972435438752 4.01425727958696 4.18879020478639 4.36332312998582 4.53785605518526 4.71238898038469 4.88692190558412 5.06145483078355 5.23598775598299 5.41052068118242 5.58505360638185 5.75958653158128 5.93411945678072 6.10865238198015 6.28318530717959 
19 20 22 23 24 25 26 27 28 29 30 31 32 33 34 35 36 37 38 21 
p 0.151534908840935 1 3.14159265358979 3.31612557878923 3.49065850398866 3.66519142918809 3.83972435438752 4.01425727958696 4.18879020478639 4.36332312998582 4.53785605518526 4.71238898038469 4.88692190558412 5.06145483078355 5.23598775598299 5.41052068118242 5.58505360638185 5.75958653158128 5.93411945678072 6.10865238198015 6.28318530717959 
Surfaces 5
2 0 0 -26.050000000000001 0 0 1 1 0 -0 -0 1 0 9
1 0 0 -20.200000000000003 0 0 1 -1 -0 0 -0 1 0 
1 -78.5 0 -91 0 1 0 1 0 0 0 0 -1 
1 0 0 -26.050000000000001 0 0 1 -1 -0 0 -0 1 0 
2 0 0 -26.050000000000001 0 0 1 1 0 -0 -0 1 0 17.5
Triangulations 10
38 36 1 0.0342477171743111
9 0 -26.05 9 0 -20.2 -9 0 -20.2 8.86326977710988 1.56283359900237 -20.2 8.45723358707318 3.07818128993102 -20.2 7.79422863405995 4.5 -20.2 6.8943999880708 5.78508848717888 -20.2 5.78508848717885 6.8943999880708 -20.2 4.5 7.79422863405995 -20.2 3.07818128993102 8.45723358707318 -20.2 1.56283359900237 8.86326977710985 -20.2 0 9 -20.2 -1.56283359900237 8.86326977710985 -20.2 -3.07818128993102 8.45723358707318 -20.2 -4.5 7.79422863405995 -20.2 -5.78508848717885 6.8943999880708 -20.2 -6.8943999880708 5.78508848717888 -20.2 -7.79422863405995 4.5 -20.2 -8.45723358707318 3.07818128993102 -20.2 -8.86326977710988 1.56283359900237 -20.2 -9 0 -26.05 8.86326977710988 1.56283359900237 -26.05 8.45723358707318 3.07818128993102 -26.05 7.79422863405995 4.5 -26.05 6.8943999880708 5.78508848717888 -26.05 5.78508848717885 6.8943999880708 -26.05 4.5 7.79422863405995 -26.05 3.07818128993102 8.45723358707318 -26.05 1.56283359900237 8.86326977710985 -26.05 0 9 -26.05 -1.56283359900237 8.86326977710985 -26.05 -3.07818128993102 8.45723358707318 -26.05 -4.5 7.79422863405995 -26.05 -5.78508848717885 6.8943999880708 -26.05 -6.8943999880708 5.78508848717888 -26.05 -7.79422863405995 4.5 -26.05 -8.45723358707318 3.07818128993102 -26.05 -8.86326977710988 1.56283359900237 -26.05 0 0 0 5.85 3.14159265358979 5.85 0.174532925199433 5.85 0.349065850398866 5.85 0.523598775598299 5.85 0.698131700797732 5.85 0.872664625997165 5.85 1.0471975511966 5.85 1.22173047639603 5.85 1.39626340159546 5.85 1.5707963267949 5.85 1.74532925199433 5.85 1.91986217719376 5.85 2.0943951023932 5.85 2.26892802759263 5.85 2.44346095279206 5.85 2.61799387799149 5.85 2.79252680319093 5.85 2.96705972839036 5.85 3.14159265358979 0 0.174532925199433 0 0.349065850398866 0 0.523598775598299 0 0.698131700797732 0 0.872664625997165 0 1.0471975511966 0 1.22173047639603 0 1.39626340159546 0 1.5707963267949 0 1.74532925199433 0 1.91986217719376 0 2.0943951023932 0 2.26892802759263 0 2.44346095279206 0 2.61799387799149 0 2.79252680319093 0 2.96705972839036 0 4 2 1 4 1 22 5 22 23 5 4 22 6 23 24 6 5 23 7 24 25 7 6 24 8 25 26 8 7 25 9 26 27 9 27 28 9 8 26 10 9 28 11 28 29 11 29 30 11 10 28 12 11 30 13 30 31 13 12 30 14 31 32 14 32 33 14 13 31 15 14 33 16 33 34 16 15 33 17 34 35 17 16 34 18 17 35 18 35 36 19 18 36 19 36 37 20 19 37 20 37 38 20 38 21 3 20 21 
38 36 1 0.0342477171743305
-9 0 -26.05 9 0 -26.05 -8.86326977710988 -1.56283359900237 -26.05 -8.45723358707318 -3.07818128993102 -26.05 -7.79422863405995 -4.5 -26.05 -6.8943999880708 -5.78508848717883 -26.05 -5.78508848717885 -6.8943999880708 -26.05 -4.5 -7.79422863405995 -26.05 -3.07818128993102 -8.45723358707318 -26.05 -1.5628335990024 -8.86326977710985 -26.05 -2.8421709430404e-14 -9 -26.05 1.56283359900235 -8.86326977710985 -26.05 3.078181289931 -8.45723358707318 -26.05 4.49999999999997 -7.79422863405995 -26.05 5.78508848717883 -6.8943999880708 -26.05 6.89439998807077 -5.78508848717888 -26.05 7.79422863405995 -4.5 -26.05 8.45723358707318 -3.07818128993102 -26.05 8.86326977710988 -1.56283359900243 -26.05 -9 0 -20.2 9 0 -20.2 -8.86326977710988 -1.56283359900237 -20.2 -8.45723358707318 -3.07818128993102 -20.2 -7.79422863405995 -4.5 -20.2 -6.8943999880708 -5.78508848717883 -20.2 -5.78508848717885 -6.8943999880708 -20.2 -4.5 -7.79422863405995 -20.2 -3.07818128993102 -8.45723358707318 -20.2 -1.5628335990024 -8.86326977710985 -20.2 -2.8421709430404e-14 -9 -20.2 1.56283359900235 -8.86326977710985 -20.2 3.078181289931 -8.45723358707318 -20.2 4.49999999999997 -7.79422863405995 -20.2 5.78508848717883 -6.8943999880708 -20.2 6.89439998807077 -5.78508848717888 -20.2 7.79422863405995 -4.5 -20.2 8.45723358707318 -3.07818128993102 -20.2 8.86326977710988 -1.56283359900243 -20.2 3.14159265358979 0 6.28318530717959 0 3.31612557878923 0 3.49065850398866 0 3.66519142918809 0 3.83972435438752 0 4.01425727958696 0 4.18879020478639 0 4.36332312998582 0 4.53785605518526 0 4.71238898038469 0 4.88692190558412 0 5.06145483078355 0 5.23598775598299 0 5.41052068118242 0 5.58505360638185 0 5.75958653158128 0 5.93411945678072 0 6.10865238198015 0 3.14159265358979 5.85 6.28318530717959 5.85 3.31612557878923 5.85 3.49065850398866 5.85 3.66519142918809 5.85 3.83972435438752 5.85 4.01425727958696 5.85 4.18879020478639 5.85 4.36332312998582 5.85 4.53785605518526 5.85 4.71238898038469 5.85 4.88692190558412 5.85 5.06145483078355 5.85 5.23598775598299 5.85 5.41052068118242 5.85 5.58505360638185 5.85 5.75958653158128 5.85 5.93411945678072 5.85 6.10865238198015 5.85 20 1 3 22 20 3 23 3 4 23 22 3 24 4 5 24 23 4 25 5 6 25 24 5 26 6 7 26 25 6 27 7 8 27 26 7 28 8 9 28 27 8 29 9 10 29 28 9 30 10 11 30 29 10 31 11 12 31 30 11 32 12 13 32 31 12 33 13 14 33 32 13 34 14 15 34 33 14 35 15 16 35 34 15 36 35 16 36 16 17 37 36 17 37 17 18 38 37 18 38 18 19 21 38 19 21 19 2 
4 2 1 4.44089209850063e-16
9 0 -26.05 17.5 0 -26.05 17.5 0 -20.2 9 0 -20.2 87.5 -64.95 96 -64.95 96 -70.8 87.5 -70.8 3 1 4 2 1 3 
38 36 1 3.10862446895044e-14
9 0 -20.2 17.5 0 -20.2 -17.5 0 -20.2 17.2341356777137 3.0388431091713 -20.2 16.4446208637534 5.98535250819918 -20.2 15.1554445662277 8.75 -20.2 13.4057777545821 11.2487831695144 -20.2 11.2487831695144 13.4057777545821 -20.2 8.75 15.1554445662277 -20.2 5.98535250819921 16.4446208637534 -20.2 3.0388431091713 17.2341356777137 -20.2 0 17.5 -20.2 -3.03884310917127 17.2341356777137 -20.2 -5.98535250819921 16.4446208637534 -20.2 -8.75 15.1554445662277 -20.2 -11.2487831695144 13.4057777545821 -20.2 -13.4057777545821 11.2487831695145 -20.2 -15.1554445662277 8.75 -20.2 -16.4446208637534 5.98535250819924 -20.2 -17.2341356777136 3.0388431091713 -20.2 -9 0 -20.2 8.86326977710988 1.56283359900237 -20.2 8.45723358707318 3.07818128993102 -20.2 7.79422863405995 4.5 -20.2 6.8943999880708 5.78508848717888 -20.2 5.78508848717885 6.8943999880708 -20.2 4.5 7.79422863405995 -20.2 3.07818128993102 8.45723358707318 -20.2 1.56283359900237 8.86326977710985 -20.2 0 9 -20.2 -1.56283359900237 8.86326977710985 -20.2 -3.07818128993102 8.45723358707318 -20.2 -4.5 7.79422863405995 -20.2 -5.78508848717885 6.8943999880708 -20.2 -6.8943999880708 5.78508848717888 -20.2 -7.79422863405995 4.5 -20.2 -8.45723358707318 3.07818128993102 -20.2 -8.86326977710988 1.56283359900237 -20.2 -9 -2.20436423846524e-15 -17.5 -4.28626379701574e-15 17.5 2.14313189850787e-15 -17.2341356777136 3.03884310917128 -16.4446208637534 5.9853525081992 -15.1554445662277 8.75 -13.4057777545821 11.2487831695144 -11.2487831695144 13.4057777545821 -8.75 15.1554445662277 -5.9853525081992 16.4446208637534 -3.03884310917128 17.2341356777136 0 17.5 3.03884310917128 17.2341356777136 5.9853525081992 16.4446208637534 8.75 15.1554445662277 11.2487831695144 13.4057777545821 13.4057777545821 11.2487831695144 15.1554445662277 8.75000000000001 16.4446208637534 5.98535250819922 17.2341356777136 3.0388431091713 9 1.10218211923262e-15 -8.86326977710987 1.56283359900237 -8.45723358707318 3.07818128993102 -7.79422863405995 4.5 -6.8943999880708 5.78508848717885 -5.78508848717885 6.8943999880708 -4.5 7.79422863405995 -3.07818128993102 8.45723358707317 -1.56283359900237 8.86326977710987 0 9 1.56283359900237 8.86326977710987 3.07818128993102 8.45723358707318 4.5 7.79422863405995 5.78508848717885 6.89439998807081 6.8943999880708 5.78508848717886 7.79422863405994 4.50000000000001 8.45723358707317 3.07818128993103 8.86326977710987 1.56283359900238 13 12 31 20 38 3 14 13 32 19 38 20 22 2 1 22 4 2 19 36 37 19 37 38 15 14 32 15 32 33 23 5 4 23 6 5 18 36 19 23 4 22 17 36 18 24 6 23 17 35 36 7 6 24 16 35 17 16 33 34 16 34 35 16 15 33 25 7 24 8 25 26 8 7 25 9 26 27 9 27 28 9 8 26 10 28 29 10 9 28 11 10 29 3 38 21 12 29 30 12 30 31 12 11 29 13 31 32 
4 2 1 1.77635683940025e-15
-9 0 -26.05 -9 0 -20.2 -17.5 0 -20.2 -17.5 0 -26.05 69.5 -64.95 69.5 -70.8 61 -70.8 61 -64.95 2 4 3 1 4 2 
38 36 1 3.10862446895044e-14
9 0 -26.05 17.5 0 -26.05 -17.5 0 -26.05 17.2341356777137 3.0388431091713 -26.05 16.4446208637534 5.98535250819918 -26.05 15.1554445662277 8.75 -26.05 13.4057777545821 11.2487831695144 -26.05 11.2487831695144 13.4057777545821 -26.05 8.75 15.1554445662277 -26.05 5.98535250819921 16.4446208637534 -26.05 3.0388431091713 17.2341356777137 -26.05 0 17.5 -26.05 -3.03884310917127 17.2341356777137 -26.05 -5.98535250819921 16.4446208637534 -26.05 -8.75 15.1554445662277 -26.05 -11.2487831695144 13.4057777545821 -26.05 -13.4057777545821 11.2487831695145 -26.05 -15.1554445662277 8.75 -26.05 -16.4446208637534 5.98535250819924 -26.05 -17.2341356777136 3.0388431091713 -26.05 -9 0 -26.05 8.86326977710988 1.56283359900237 -26.05 8.45723358707318 3.07818128993102 -26.05 7.79422863405995 4.5 -26.05 6.8943999880708 5.78508848717888 -26.05 5.78508848717885 6.8943999880708 -26.05 4.5 7.79422863405995 -26.05 3.07818128993102 8.45723358707318 -26.05 1.56283359900237 8.86326977710985 -26.05 0 9 -26.05 -1.56283359900237 8.86326977710985 -26.05 -3.07818128993102 8.45723358707318 -26.05 -4.5 7.79422863405995 -26.05 -5.78508848717885 6.8943999880708 -26.05 -6.8943999880708 5.78508848717888 -26.05 -7.79422863405995 4.5 -26.05 -8.45723358707318 3.07818128993102 -26.05 -8.86326977710988 1.56283359900237 -26.05 -9 -2.20436423846524e-15 -17.5 -4.28626379701574e-15 17.5 2.14313189850787e-15 -17.2341356777136 3.03884310917128 -16.4446208637534 5.9853525081992 -15.1554445662277 8.75 -13.4057777545821 11.2487831695144 -11.2487831695144 13.4057777545821 -8.75 15.1554445662277 -5.9853525081992 16.4446208637534 -3.03884310917128 17.2341356777136 0 17.5 3.03884310917128 17.2341356777136 5.9853525081992 16.4446208637534 8.75 15.1554445662277 11.2487831695144 13.4057777545821 13.4057777545821 11.2487831695144 15.1554445662277 8.75000000000001 16.4446208637534 5.98535250819922 17.2341356777136 3.0388431091713 9 1.10218211923262e-15 -8.86326977710987 1.56283359900237 -8.45723358707318 3.07818128993102 -7.79422863405995 4.5 -6.8943999880708 5.78508848717885 -5.78508848717885 6.8943999880708 -4.5 7.79422863405995 -3.07818128993102 8.45723358707317 -1.56283359900237 8.86326977710987 0 9 1.56283359900237 8.86326977710987 3.07818128993102 8.45723358707318 4.5 7.79422863405995 5.78508848717885 6.89439998807081 6.8943999880708 5.78508848717886 7.79422863405994 4.50000000000001 8.45723358707317 3.07818128993103 8.86326977710987 1.56283359900238 13 12 31 20 38 3 14 13 32 19 38 20 22 2 1 22 4 2 19 36 37 19 37 38 15 14 32 15 32 33 23 5 4 23 6 5 18 36 19 23 4 22 17 36 18 24 6 23 17 35 36 7 6 24 16 35 17 16 33 34 16 34 35 16 15 33 25 7 24 8 25 26 8 7 25 9 26 27 9 27 28 9 8 26 10 28 29 10 9 28 11 10 29 3 38 21 12 29 30 12 30 31 12 11 29 13 31 32 
38 36 1 3.15303338993544e-14
-9 0 -26.05 9 0 -26.05 -8.86326977710988 -1.56283359900237 -26.05 -8.45723358707318 -3.07818128993102 -26.05 -7.79422863405995 -4.5 -26.05 -6.8943999880708 -5.78508848717883 -26.05 -5.78508848717885 -6.8943999880708 -26.05 -4.5 -7.79422863405995 -26.05 -3.07818128993102 -8.45723358707318 -26.05 -1.5628335990024 -8.86326977710985 -26.05 -2.8421709430404e-14 -9 -26.05 1.56283359900235 -8.86326977710985 -26.05 3.078181289931 -8.45723358707318 -26.05 4.49999999999997 -7.79422863405995 -26.05 5.78508848717883 -6.8943999880708 -26.05 6.89439998807077 -5.78508848717888 -26.05 7.79422863405995 -4.5 -26.05 8.45723358707318 -3.07818128993102 -26.05 8.86326977710988 -1.56283359900243 -26.05 -17.5 0 -26.05 17.5 0 -26.05 -17.2341356777137 -3.0388431091713 -26.05 -16.4446208637534 -5.98535250819918 -26.05 -15.1554445662277 -8.75 -26.05 -13.4057777545821 -11.2487831695144 -26.05 -11.2487831695145 -13.4057777545821 -26.05 -8.75000000000003 -15.1554445662277 -26.05 -5.98535250819924 -16.4446208637534 -26.05 -3.03884310917132 -17.2341356777137 -26.05 -2.8421709430404e-14 -17.5 -26.05 3.03884310917124 -17.2341356777137 -26.05 5.98535250819916 -16.4446208637534 -26.05 8.74999999999997 -15.1554445662277 -26.05 11.2487831695144 -13.4057777545821 -26.05 13.4057777545821 -11.2487831695145 -26.05 15.1554445662277 -8.75000000000006 -26.05 16.4446208637534 -5.98535250819924 -26.05 17.2341356777136 -3.03884310917135 -26.05 9 0 -9 -3.5527136788005e-15 8.86326977710987 -1.56283359900237 8.45723358707318 -3.07818128993101 7.79422863405995 -4.49999999999999 6.89439998807081 -5.78508848717885 5.78508848717886 -6.89439998807079 4.50000000000001 -7.79422863405994 3.07818128993103 -8.45723358707317 1.56283359900239 -8.86326977710987 1.77635683940025e-14 -9 -1.56283359900235 -8.86326977710988 -3.078181289931 -8.45723358707318 -4.49999999999998 -7.79422863405996 -5.78508848717884 -6.89439998807082 -6.89439998807078 -5.78508848717888 -7.79422863405993 -4.50000000000002 -8.45723358707317 -3.07818128993105 -8.86326977710987 -1.5628335990024 17.5 0 -17.5 -3.5527136788005e-15 17.2341356777136 -3.03884310917127 16.4446208637534 -5.98535250819919 15.1554445662277 -8.74999999999999 13.4057777545821 -11.2487831695144 11.2487831695145 -13.4057777545821 8.75000000000002 -15.1554445662277 5.98535250819923 -16.4446208637534 3.03884310917131 -17.2341356777136 3.5527136788005e-14 -17.5 -3.03884310917124 -17.2341356777136 -5.98535250819916 -16.4446208637534 -8.74999999999996 -15.1554445662277 -11.2487831695144 -13.4057777545821 -13.4057777545821 -11.2487831695145 -15.1554445662276 -8.75000000000005 -16.4446208637534 -5.98535250819926 -17.2341356777136 -3.03884310917134 5 6 25 24 5 25 23 3 4 23 4 5 23 5 24 22 1 3 22 3 23 20 1 22 15 34 33 15 35 34 15 16 35 17 36 35 17 37 36 17 35 16 14 15 33 18 38 37 18 37 17 13 33 32 13 14 33 19 38 18 12 31 30 12 32 31 12 13 32 2 21 38 2 38 19 11 12 30 10 30 29 10 11 30 9 28 27 9 29 28 9 10 29 8 9 27 7 27 26 7 8 27 25 6 7 25 7 26 
38 36 1 0.0665927833944674
17.5 0 -26.05 17.5 0 -20.2 -17.5 0 -20.2 17.2341356777137 3.0388431091713 -20.2 16.4446208637534 5.98535250819918 -20.2 15.1554445662277 8.75 -20.2 13.4057777545821 11.2487831695144 -20.2 11.2487831695144 13.4057777545821 -20.2 8.75 15.1554445662277 -20.2 5.98535250819921 16.4446208637534 -20.2 3.0388431091713 17.2341356777137 -20.2 0 17.5 -20.2 -3.03884310917127 17.2341356777137 -20.2 -5.98535250819921 16.4446208637534 -20.2 -8.75 15.1554445662277 -20.2 -11.2487831695144 13.4057777545821 -20.2 -13.4057777545821 11.2487831695145 -20.2 -15.1554445662277 8.75 -20.2 -16.4446208637534 5.98535250819924 -20.2 -17.2341356777136 3.0388431091713 -20.2 -17.5 0 -26.05 17.2341356777137 3.0388431091713 -26.05 16.4446208637534 5.98535250819918 -26.05 15.1554445662277 8.75 -26.05 13.4057777545821 11.2487831695144 -26.05 11.2487831695144 13.4057777545821 -26.05 8.75 15.1554445662277 -26.05 5.98535250819921 16.4446208637534 -26.05 3.0388431091713 17.2341356777137 -26.05 0 17.5 -26.05 -3.03884310917127 17.2341356777137 -26.05 -5.98535250819921 16.4446208637534 -26.05 -8.75 15.1554445662277 -26.05 -11.2487831695144 13.4057777545821 -26.05 -13.4057777545821 11.2487831695145 -26.05 -15.1554445662277 8.75 -26.05 -16.4446208637534 5.98535250819924 -26.05 -17.2341356777136 3.0388431091713 -26.05 0 0 0 5.85 3.14159265358979 5.85 0.174532925199433 5.85 0.349065850398866 5.85 0.523598775598299 5.85 0.698131700797732 5.85 0.872664625997165 5.85 1.0471975511966 5.85 1.22173047639603 5.85 1.39626340159546 5.85 1.5707963267949 5.85 1.74532925199433 5.85 1.91986217719376 5.85 2.0943951023932 5.85 2.26892802759263 5.85 2.44346095279206 5.85 2.61799387799149 5.85 2.79252680319093 5.85 2.96705972839036 5.85 3.14159265358979 0 0.174532925199433 0 0.349065850398866 0 0.523598775598299 0 0.698131700797732 0 0.872664625997165 0 1.0471975511966 0 1.22173047639603 0 1.39626340159546 0 1.5707963267949 0 1.74532925199433 0 1.91986217719376 0 2.0943951023932 0 2.26892802759263 0 2.44346095279206 0 2.61799387799149 0 2.79252680319093 0 2.96705972839036 0 4 2 1 4 1 22 5 22 23 5 4 22 6 23 24 6 5 23 7 24 25 7 6 24 8 25 26 8 7 25 9 26 27 9 8 26 10 27 28 10 9 27 11 28 29 11 10 28 12 29 30 12 11 29 13 30 31 13 12 30 14 31 32 14 13 31 15 32 33 15 33 34 15 14 32 16 15 34 17 34 35 17 16 34 18 17 35 18 35 36 18 36 37 19 18 37 20 19 37 20 37 38 20 38 21 3 20 21 
38 36 1 0.0665927833944753
-17.5 0 -26.05 17.5 0 -26.05 -17.2341356777137 -3.0388431091713 -26.05 -16.4446208637534 -5.98535250819918 -26.05 -15.1554445662277 -8.75 -26.05 -13.4057777545821 -11.2487831695144 -26.05 -11.2487831695145 -13.4057777545821 -26.05 -8.75000000000003 -15.1554445662277 -26.05 -5.98535250819924 -16.4446208637534 -26.05 -3.03884310917132 -17.2341356777137 -26.05 -2.8421709430404e-14 -17.5 -26.05 3.03884310917124 -17.2341356777137 -26.05 5.98535250819916 -16.4446208637534 -26.05 8.74999999999997 -15.1554445662277 -26.05 11.2487831695144 -13.4057777545821 -26.05 13.4057777545821 -11.2487831695145 -26.05 15.1554445662277 -8.75000000000006 -26.05 16.4446208637534 -5.98535250819924 -26.05 17.2341356777136 -3.03884310917135 -26.05 -17.5 0 -20.2 17.5 0 -20.2 -17.2341356777137 -3.0388431091713 -20.2 -16.4446208637534 -5.98535250819918 -20.2 -15.1554445662277 -8.75 -20.2 -13.4057777545821 -11.2487831695144 -20.2 -11.2487831695145 -13.4057777545821 -20.2 -8.75000000000003 -15.1554445662277 -20.2 -5.98535250819924 -16.4446208637534 -20.2 -3.03884310917132 -17.2341356777137 -20.2 -2.8421709430404e-14 -17.5 -20.2 3.03884310917124 -17.2341356777137 -20.2 5.98535250819916 -16.4446208637534 -20.2 8.74999999999997 -15.1554445662277 -20.2 11.2487831695144 -13.4057777545821 -20.2 13.4057777545821 -11.2487831695145 -20.2 15.1554445662277 -8.75000000000006 -20.2 16.4446208637534 -5.98535250819924 -20.2 17.2341356777136 -3.03884310917135 -20.2 3.14159265358979 0 6.28318530717959 0 3.31612557878923 0 3.49065850398866 0 3.66519142918809 0 3.83972435438752 0 4.01425727958696 0 4.18879020478639 0 4.36332312998582 0 4.53785605518526 0 4.71238898038469 0 4.88692190558412 0 5.06145483078355 0 5.23598775598299 0 5.41052068118242 0 5.58505360638185 0 5.75958653158128 0 5.93411945678072 0 6.10865238198015 0 3.14159265358979 5.85 6.28318530717959 5.85 3.31612557878923 5.85 3.49065850398866 5.85 3.66519142918809 5.85 3.83972435438752 5.85 4.01425727958696 5.85 4.18879020478639 5.85 4.36332312998582 5.85 4.53785605518526 5.85 4.71238898038469 5.85 4.88692190558412 5.85 5.06145483078355 5.85 5.23598775598299 5.85 5.41052068118242 5.85 5.58505360638185 5.85 5.75958653158128 5.85 5.93411945678072 5.85 6.10865238198015 5.85 20 1 3 22 3 4 22 20 3 23 4 5 23 22 4 24 23 5 25 5 6 25 6 7 25 24 5 26 25 7 27 7 8 27 8 9 27 26 7 28 27 9 29 9 10 29 28 9 30 10 11 30 29 10 31 11 12 31 12 13 31 30 11 32 31 13 33 13 14 33 32 13 34 14 15 34 33 14 35 15 16 35 16 17 35 34 15 36 35 17 37 36 17 37 17 18 38 37 18 38 18 19 21 38 19 21 19 2 
38 36 1 3.15303338993544e-14
-9 0 -20.2 9 0 -20.2 -8.86326977710988 -1.56283359900237 -20.2 -8.45723358707318 -3.07818128993102 -20.2 -7.79422863405995 -4.5 -20.2 -6.8943999880708 -5.78508848717883 -20.2 -5.78508848717885 -6.8943999880708 -20.2 -4.5 -7.79422863405995 -20.2 -3.07818128993102 -8.45723358707318 -20.2 -1.5628335990024 -8.86326977710985 -20.2 -2.8421709430404e-14 -9 -20.2 1.56283359900235 -8.86326977710985 -20.2 3.078181289931 -8.45723358707318 -20.2 4.49999999999997 -7.79422863405995 -20.2 5.78508848717883 -6.8943999880708 -20.2 6.89439998807077 -5.78508848717888 -20.2 7.79422863405995 -4.5 -20.2 8.45723358707318 -3.07818128993102 -20.2 8.86326977710988 -1.56283359900243 -20.2 -17.5 0 -20.2 17.5 0 -20.2 -17.2341356777137 -3.0388431091713 -20.2 -16.4446208637534 -5.98535250819918 -20.2 -15.1554445662277 -8.75 -20.2 -13.4057777545821 -11.2487831695144 -20.2 -11.2487831695145 -13.4057777545821 -20.2 -8.75000000000003 -15.1554445662277 -20.2 -5.98535250819924 -16.4446208637534 -20.2 -3.03884310917132 -17.2341356777137 -20.2 -2.8421709430404e-14 -17.5 -20.2 3.03884310917124 -17.2341356777137 -20.2 5.98535250819916 -16.4446208637534 -20.2 8.74999999999997 -15.1554445662277 -20.2 11.2487831695144 -13.4057777545821 -20.2 13.4057777545821 -11.2487831695145 -20.2 15.1554445662277 -8.75000000000006 -20.2 16.4446208637534 -5.98535250819924 -20.2 17.2341356777136 -3.03884310917135 -20.2 9 0 -9 -3.5527136788005e-15 8.86326977710987 -1.56283359900237 8.45723358707318 -3.07818128993101 7.79422863405995 -4.49999999999999 6.89439998807081 -5.78508848717885 5.78508848717886 -6.89439998807079 4.50000000000001 -7.79422863405994 3.07818128993103 -8.45723358707317 1.56283359900239 -8.86326977710987 1.77635683940025e-14 -9 -1.56283359900235 -8.86326977710988 -3.078181289931 -8.45723358707318 -4.49999999999998 -7.79422863405996 -5.78508848717884 -6.89439998807082 -6.89439998807078 -5.78508848717888 -7.79422863405993 -4.50000000000002 -8.45723358707317 -3.07818128993105 -8.86326977710987 -1.5628335990024 17.5 0 -17.5 -3.5527136788005e-15 17.2341356777136 -3.03884310917127 16.4446208637534 -5.98535250819919 15.1554445662277 -8.74999999999999 13.4057777545821 -11.2487831695144 11.2487831695145 -13.4057777545821 8.75000000000002 -15.1554445662277 5.98535250819923 -16.4446208637534 3.03884310917131 -17.2341356777136 3.5527136788005e-14 -17.5 -3.03884310917124 -17.2341356777136 -5.98535250819916 -16.4446208637534 -8.74999999999996 -15.1554445662277 -11.2487831695144 -13.4057777545821 -13.4057777545821 -11.2487831695145 -15.1554445662276 -8.75000000000005 -16.4446208637534 -5.98535250819926 -17.2341356777136 -3.03884310917134 5 6 25 24 5 25 23 3 4 23 4 5 23 5 24 22 1 3 22 3 23 20 1 22 15 34 33 15 35 34 15 16 35 17 36 35 17 37 36 17 35 16 14 15 33 18 38 37 18 37 17 13 33 32 13 14 33 19 38 18 12 31 30 12 32 31 12 13 32 2 21 38 2 38 19 11 12 30 10 30 29 10 11 30 9 28 27 9 29 28 9 10 29 8 9 27 7 27 26 7 8 27 25 6 7 25 7 26 

TShapes 47
Ve
1e-07
9 0 -26.05
0 0

0101101
*
Ed
 1e-07 1 1 0
1  1 0 0 5.85
3  1 2CN 1 0 0 5.85
6  1 1 0
6  2 2 0
6  3 3 0
0

0101000
+47 0 -47 2 *
Ve
2.00001e-07
-9 1.10218211923262e-15 -20.2
0 0

0101101
*
Ed
 1e-07 1 1 0
1  2 0 0 3.14159265358979
2  3 1 0 0 3.14159265358979
2  4 2 0 0 3.14159265358979
6  4 1 0
6  5 4 0
0

0101000
+47 2 -45 0 *
Ve
2.00001e-07
-9 1.10218211923262e-15 -26.05
0 0

0101101
*
Ed
 1e-07 1 1 0
1  3 0 0 5.85
2  5 1 0 0 5.85
2  6 3 0 0 5.85
6  6 1 0
6  7 2 0
6  8 5 0
0

0101000
+43 0 -45 0 *
Ed
 1e-07 1 1 0
1  4 0 0 3.14159265358979
2  7 1 0 0 3.14159265358979
2  8 4 0 0 3.14159265358979
6  9 1 0
6  10 6 0
0

0101000
+47 0 -43 0 *
Wi

0101000
-46 0 -44 0 +42 0 +41 0 *
Fa
0  1e-07 1 0
2  1
0101000
+40 0 *
Ve
1e-07
17.5 0 -26.05
0 0

0101101
*
Ed
 1e-07 1 1 0
1  5 0 48.25 56.75
2  9 4 0 48.25 56.75
2  10 3 0 48.25 56.75
6  11 3 0
6  12 6 0
6  13 7 0
0

0101000
+47 0 -38 0 *
Ed
 1e-07 1 1 0
1  6 0 0 5.85
3  11 12CN 5 0 0 5.85
6  14 8 0
6  15 9 0
6  16 3 0
0

0101000
+38 0 -38 2 *
Ed
 1e-07 1 1 0
1  7 0 48.25 56.75
2  13 2 0 48.25 56.75
2  14 3 0 48.25 56.75
6  17 3 0
6  18 4 0
6  19 10 0
0

0101000
+47 2 -38 2 *
Wi

0101000
-37 0 -36 0 +35 0 +46 0 *
Fa
0  1e-07 3 0
2  3
0101000
+34 0 *
Ve
2.00001e-07
-17.5 2.14313189850787e-15 -20.2
0 0

0101101
*
Ed
 1e-07 1 1 0
1  8 0 0 3.14159265358979
2  15 5 0 0 3.14159265358979
2  16 2 0 0 3.14159265358979
6  20 8 0
6  21 4 0
0

0101000
+38 2 -32 0 *
Ed
 1e-07 1 1 0
1  7 0 21.75 30.25
2  13 2 0 21.75 30.25
2  14 3 0 21.75 30.25
6  22 4 0
6  23 5 0
6  24 10 0
0

0101000
+32 0 -45 0 *
Wi

0101000
-35 0 -31 0 -30 0 +44 0 *
Fa
0  1e-07 2 0
2  4
0101000
+29 0 *
Ve
2.00001e-07
-17.5 2.14313189850787e-15 -26.05
0 0

0101101
*
Ed
 1e-07 1 1 0
1  9 0 0 5.85
2  17 5 0 0 5.85
2  18 3 0 0 5.85
6  25 8 0
6  26 9 0
6  27 5 0
0

0101000
+27 0 -32 0 *
Ed
 1e-07 1 1 0
1  5 0 21.75 30.25
2  9 4 0 21.75 30.25
2  10 3 0 21.75 30.25
6  28 5 0
6  29 6 0
6  30 7 0
0

0101000
+27 0 -43 0 *
Wi

0101000
-42 0 +30 0 +26 0 -25 0 *
Fa
0  1e-07 3 0
2  5
0101000
+24 0 *
Ed
 1e-07 1 1 0
1  10 0 0 3.14159265358979
2  19 5 0 0 3.14159265358979
2  20 4 0 0 3.14159265358979
6  31 8 0
6  32 6 0
0

0101000
+38 0 -27 0 *
Wi

0101000
-37 0 -22 0 -25 0 +41 0 *
Fa
0  1e-07 4 0
2  6
0101000
+21 0 *
Wi

0101000
-36 0 -31 0 +26 0 +22 0 *
Fa
0  1e-07 5 0
2  8
0101000
+19 0 *
Sh

0101000
-39 0 -33 0 -28 0 -23 0 +20 0 +18 0 *
So

0100000
+17 0 *
Ed
 1e-07 1 1 0
1  4 0 3.14159265358979 6.28318530717959
2  7 1 0 3.14159265358979 6.28318530717959
2  8 4 0 3.14159265358979 6.28318530717959
6  33 2 0
6  34 7 0
0

0101000
+43 0 -47 0 *
Ed
 1e-07 1 1 0
1  2 0 3.14159265358979 6.28318530717959
2  3 1 0 3.14159265358979 6.28318530717959
2  4 2 0 3.14159265358979 6.28318530717959
6  35 2 0
6  36 10 0
0

0101000
+45 0 -47 2 *
Wi

0101000
+15 0 -42 0 -14 0 +46 0 *
Fa
0  1e-07 1 0
2  2
0101000
+13 0 *
Ed
 1e-07 1 1 0
1  10 0 3.14159265358979 6.28318530717959
2  19 5 0 3.14159265358979 6.28318530717959
2  20 4 0 3.14159265358979 6.28318530717959
6  37 9 0
6  38 7 0
0

0101000
+27 0 -38 0 *
Wi

0101000
+15 0 +25 0 -11 0 +37 0 *
Fa
0  1e-07 4 0
2  7
0101000
+10 0 *
Ed
 1e-07 1 1 0
1  8 0 3.14159265358979 6.28318530717959
2  15 5 0 3.14159265358979 6.28318530717959
2  16 2 0 3.14159265358979 6.28318530717959
6  39 9 0
6  40 10 0
0

0101000
+32 0 -38 2 *
Wi

0101000
+14 0 +30 0 -8 0 +35 0 *
Fa
0  1e-07 2 0
2  10
0101000
+7 0 *
Wi

0101000
+11 0 -26 0 -8 0 +36 0 *
Fa
0  1e-07 5 0
2  9
0101000
+5 0 *
Sh

0101000
-12 0 +9 0 +23 0 -6 0 +33 0 +4 0 *
So

0100000
+3 0 *
Co

1100000
+16 0 +2 0 *

+1 1 