DBRep_DrawableShape

CASCADE Topology V1, (c) Matra-Datavision
Locations 2
1
              1               0               0 132.138322394245 
              0               1               0 490.513469493789 
              0               0               1           41.85 
1
              1               0               0               0 
              0               1               0               0 
              0               0               1            5.85 
Curve2ds 20
1 6.2831853071795862 0 0 1 
1 0 0 0 1 
1 0 5.8499999999999996 1 0 
2 0 0 -1 0 0 1 9
8 0 5.8499999999999996
1 3.1415926535897931 0 0 1 
8 0 5.8499999999999996
1 69.5 -76.150000000000006 0 -1 
1 0 0 1 0 
2 0 0 -1 0 0 1 9
8 20.465233552747783 58.034766447252217
1 39.25 0 -1 0 
8 20.465233552747783 58.034766447252217
1 39.25 -76.150000000000006 1 0 
1 6.2831853071795862 0 0 1 
1 0 0 0 1 
8 20.465233552747783 58.034766447252217
1 39.25 0 -1 0 
8 20.465233552747783 58.034766447252217
1 39.25 -82 1 0 
1 0 5.8499999999999996 1 0 
2 0 0 -1 0 0 1 17.5
8 0 5.8499999999999996
1 3.1415926535897931 0 0 1 
8 0 5.8499999999999996
1 61 -76.150000000000006 0 -1 
1 0 0 1 0 
2 0 0 -1 0 0 1 17.5
Curves 10
1 9 0 -8.8499999999999996 0 0 1 
2 0 0 -3 0 0 1 1 0 -0 -0 1 0 9
1 -9 0 -8.8499999999999996 0 0 1 
2 0 0 -8.8499999999999996 0 0 1 1 0 -0 -0 1 0 9
1 -39.25 0 -8.8499999999999979 1 0 0 
1 17.5 0 -8.8499999999999996 0 0 1 
1 -39.25 0 -3 1 0 0 
2 0 0 -3 0 0 1 1 0 -0 -0 1 0 17.5
1 -17.5 0 -8.8499999999999996 0 0 1 
2 0 0 -8.8499999999999996 0 0 1 1 0 -0 -0 1 0 17.5
Polygon3D 0
PolygonOnTriangulations 0
Surfaces 5
2 0 0 -8.8499999999999996 0 0 1 1 0 -0 -0 1 0 9
1 0 0 -3 0 0 1 -1 -0 0 -0 1 0 
1 -78.5 0 -85 0 1 0 1 0 0 0 0 -1 
1 0 0 -8.8499999999999996 0 0 1 -1 -0 0 -0 1 0 
2 0 0 -8.8499999999999996 0 0 1 1 0 -0 -0 1 0 17.5
Triangulations 0

TShapes 47
Ve
1e-07
9 0 -8.85
0 0

0101101
*
Ed
 1e-07 1 1 0
1  1 0 0 5.85
3  1 2CN 1 0 0 5.85
0

0101000
+47 0 -47 2 *
Ve
2.00001e-07
-9 1.10218211923262e-15 -3
0 0

0101101
*
Ed
 1e-07 1 1 0
1  2 0 0 3.14159265358979
2  3 1 0 0 3.14159265358979
2  4 2 0 0 3.14159265358979
0

0101000
+47 2 -45 0 *
Ve
2.00001e-07
-9 1.10218211923262e-15 -8.85
0 0

0101101
*
Ed
 1e-07 1 1 0
1  3 0 0 5.85
2  5 1 0 0 5.85
2  6 3 0 0 5.85
0

0101000
+43 0 -45 0 *
Ed
 1e-07 1 1 0
1  4 0 0 3.14159265358979
2  7 1 0 0 3.14159265358979
2  8 4 0 0 3.14159265358979
0

0101000
+47 0 -43 0 *
Wi

0101000
-46 0 -44 0 +42 0 +41 0 *
Fa
0  1e-07 1 0

0111000
+40 0 *
Ve
1e-07
17.5 0 -8.85
0 0

0101101
*
Ed
 1e-07 1 1 0
1  5 0 48.25 56.75
2  9 4 0 48.25 56.75
2  10 3 0 48.25 56.75
0

0101000
+47 0 -38 0 *
Ed
 1e-07 1 1 0
1  6 0 0 5.85
3  11 12CN 5 0 0 5.85
0

0101000
+38 0 -38 2 *
Ed
 1e-07 1 1 0
1  7 0 48.25 56.75
2  13 2 0 48.25 56.75
2  14 3 0 48.25 56.75
0

0101000
+47 2 -38 2 *
Wi

0101000
-37 0 -36 0 +35 0 +46 0 *
Fa
0  1e-07 3 0

0111000
+34 0 *
Ve
2.00001e-07
-17.5 2.14313189850787e-15 -3
0 0

0101101
*
Ed
 1e-07 1 1 0
1  8 0 0 3.14159265358979
2  15 5 0 0 3.14159265358979
2  16 2 0 0 3.14159265358979
0

0101000
+38 2 -32 0 *
Ed
 1e-07 1 1 0
1  7 0 21.75 30.25
2  13 2 0 21.75 30.25
2  14 3 0 21.75 30.25
0

0101000
+32 0 -45 0 *
Wi

0101000
-35 0 -31 0 -30 0 +44 0 *
Fa
0  1e-07 2 0

0111000
+29 0 *
Ve
2.00001e-07
-17.5 2.14313189850787e-15 -8.85
0 0

0101101
*
Ed
 1e-07 1 1 0
1  9 0 0 5.85
2  17 5 0 0 5.85
2  18 3 0 0 5.85
0

0101000
+27 0 -32 0 *
Ed
 1e-07 1 1 0
1  5 0 21.75 30.25
2  9 4 0 21.75 30.25
2  10 3 0 21.75 30.25
0

0101000
+27 0 -43 0 *
Wi

0101000
-42 0 +30 0 +26 0 -25 0 *
Fa
0  1e-07 3 0

0111000
+24 0 *
Ed
 1e-07 1 1 0
1  10 0 0 3.14159265358979
2  19 5 0 0 3.14159265358979
2  20 4 0 0 3.14159265358979
0

0101000
+38 0 -27 0 *
Wi

0101000
-37 0 -22 0 -25 0 +41 0 *
Fa
0  1e-07 4 0

0111000
+21 0 *
Wi

0101000
-36 0 -31 0 +26 0 +22 0 *
Fa
0  1e-07 5 0

0111000
+19 0 *
Sh

0101000
-39 0 -33 0 -28 0 -23 0 +20 0 +18 0 *
So

0100000
+17 0 *
Ed
 1e-07 1 1 0
1  4 0 3.14159265358979 6.28318530717959
2  7 1 0 3.14159265358979 6.28318530717959
2  8 4 0 3.14159265358979 6.28318530717959
0

0101000
+43 0 -47 0 *
Ed
 1e-07 1 1 0
1  2 0 3.14159265358979 6.28318530717959
2  3 1 0 3.14159265358979 6.28318530717959
2  4 2 0 3.14159265358979 6.28318530717959
0

0101000
+45 0 -47 2 *
Wi

0101000
+15 0 -42 0 -14 0 +46 0 *
Fa
0  1e-07 1 0

0111000
+13 0 *
Ed
 1e-07 1 1 0
1  10 0 3.14159265358979 6.28318530717959
2  19 5 0 3.14159265358979 6.28318530717959
2  20 4 0 3.14159265358979 6.28318530717959
0

0101000
+27 0 -38 0 *
Wi

0101000
+15 0 +25 0 -11 0 +37 0 *
Fa
0  1e-07 4 0

0111000
+10 0 *
Ed
 1e-07 1 1 0
1  8 0 3.14159265358979 6.28318530717959
2  15 5 0 3.14159265358979 6.28318530717959
2  16 2 0 3.14159265358979 6.28318530717959
0

0101000
+32 0 -38 2 *
Wi

0101000
+14 0 +30 0 -8 0 +35 0 *
Fa
0  1e-07 2 0

0111000
+7 0 *
Wi

0101000
+11 0 -26 0 -8 0 +36 0 *
Fa
0  1e-07 5 0

0111000
+5 0 *
Sh

0101000
-12 0 +9 0 +23 0 -6 0 +33 0 +4 0 *
So

0100000
+3 0 *
Co

1100000
+16 0 +2 0 *

+1 1 