DBRep_DrawableShape

CASCADE Topology V1, (c) Matra-Datavision
Locations 2
1
              1               0               0 216.112140869073 
              0               1               0 459.738558932124 
              0               0               1           48.25 
1
              1               0               0               0 
              0               1               0               0 
              0               0               1             1.7 
Curve2ds 20
1 6.2831853071795862 0 0 1 
1 0 0 0 1 
1 0 1.7 1 0 
2 0 0 -1 0 0 1 10.5
8 0 1.6999999999999993
1 3.1415926535897931 0 0 1 
8 0 1.6999999999999993
1 68 -70.799999999999997 0 -1 
1 0 0 1 0 
2 0 0 -1 0 0 1 10.5
8 19.713842894857692 58.786157105142308
1 39.25 0 -1 0 
8 19.713842894857692 58.786157105142308
1 39.25 -70.799999999999997 1 0 
1 6.2831853071795862 0 0 1 
1 0 0 0 1 
8 19.713842894857692 58.786157105142308
1 39.25 0 -1 0 
8 19.713842894857692 58.786157105142308
1 39.25 -72.5 1 0 
1 0 1.7 1 0 
2 0 0 -1 0 0 1 18.199999999999999
8 0 1.6999999999999993
1 3.1415926535897931 0 0 1 
8 0 1.6999999999999993
1 60.299999999999997 -70.799999999999997 0 -1 
1 0 0 1 0 
2 0 0 -1 0 0 1 18.199999999999999
Curves 10
1 10.5 0 -20.199999999999999 0 0 1 
2 0 0 -18.5 0 0 1 1 0 -0 -0 1 0 10.5
1 -10.5 0 -20.199999999999999 0 0 1 
2 0 0 -20.199999999999999 0 0 1 1 0 -0 -0 1 0 10.5
1 -39.25 0 -20.200000000000003 1 0 0 
1 18.199999999999999 0 -20.199999999999999 0 0 1 
1 -39.25 0 -18.5 1 0 0 
2 0 0 -18.5 0 0 1 1 0 -0 -0 1 0 18.199999999999999
1 -18.199999999999999 0 -20.199999999999999 0 0 1 
2 0 0 -20.199999999999999 0 0 1 1 0 -0 -0 1 0 18.199999999999999
Polygon3D 0
PolygonOnTriangulations 40
2 1 2 
p 0.157596305162573 1 0 1.7 
2 2 21 
p 0.157596305162573 1 0 1.7 
2 1 4 
p 0.157596305162573 1 0 1.7 
19 2 4 5 6 7 8 9 10 11 12 13 14 15 16 17 18 19 20 3 
p 0.157596305162573 1 0 0.174532925199433 0.349065850398866 0.523598775598299 0.698131700797732 0.872664625997165 1.0471975511966 1.22173047639603 1.39626340159546 1.5707963267949 1.74532925199433 1.91986217719376 2.0943951023932 2.26892802759263 2.44346095279206 2.61799387799149 2.79252680319093 2.96705972839036 3.14159265358979 
19 1 22 23 24 25 26 27 28 29 30 31 32 33 34 35 36 37 38 21 
p 0.157596305162573 1 0 0.174532925199433 0.349065850398866 0.523598775598299 0.698131700797732 0.872664625997165 1.0471975511966 1.22173047639603 1.39626340159546 1.5707963267949 1.74532925199433 1.91986217719376 2.0943951023932 2.26892802759263 2.44346095279206 2.61799387799149 2.79252680319093 2.96705972839036 3.14159265358979 
2 21 3 
p 0.157596305162573 1 0 1.7 
2 1 20 
p 0.157596305162573 1 0 1.7 
2 1 2 
p 0.157596305162573 1 0 1.7 
19 1 22 23 24 25 26 27 28 29 30 31 32 33 34 35 36 37 38 21 
p 0.157596305162573 1 0 0.174532925199433 0.349065850398866 0.523598775598299 0.698131700797732 0.872664625997165 1.0471975511966 1.22173047639603 1.39626340159546 1.5707963267949 1.74532925199433 1.91986217719376 2.0943951023932 2.26892802759263 2.44346095279206 2.61799387799149 2.79252680319093 2.96705972839036 3.14159265358979 
19 1 22 23 24 25 26 27 28 29 30 31 32 33 34 35 36 37 38 21 
p 0.157596305162573 1 0 0.174532925199433 0.349065850398866 0.523598775598299 0.698131700797732 0.872664625997165 1.0471975511966 1.22173047639603 1.39626340159546 1.5707963267949 1.74532925199433 1.91986217719376 2.0943951023932 2.26892802759263 2.44346095279206 2.61799387799149 2.79252680319093 2.96705972839036 3.14159265358979 
2 1 2 
p 0.157596305162573 1 49.75 57.45 
2 1 2 
p 0.157596305162573 1 49.75 57.45 
2 2 21 
p 0.157596305162573 1 49.75 57.45 
2 1 2 
p 0.157596305162573 1 0 1.7 
2 2 21 
p 0.157596305162573 1 0 1.7 
2 2 3 
p 0.157596305162573 1 0 1.7 
2 4 3 
p 0.157596305162573 1 49.75 57.45 
2 1 2 
p 0.157596305162573 1 49.75 57.45 
2 2 21 
p 0.157596305162573 1 49.75 57.45 
19 2 4 5 6 7 8 9 10 11 12 13 14 15 16 17 18 19 20 3 
p 0.157596305162573 1 0 0.174532925199433 0.349065850398866 0.523598775598299 0.698131700797732 0.872664625997165 1.0471975511966 1.22173047639603 1.39626340159546 1.5707963267949 1.74532925199433 1.91986217719376 2.0943951023932 2.26892802759263 2.44346095279206 2.61799387799149 2.79252680319093 2.96705972839036 3.14159265358979 
19 2 4 5 6 7 8 9 10 11 12 13 14 15 16 17 18 19 20 3 
p 0.157596305162573 1 0 0.174532925199433 0.349065850398866 0.523598775598299 0.698131700797732 0.872664625997165 1.0471975511966 1.22173047639603 1.39626340159546 1.5707963267949 1.74532925199433 1.91986217719376 2.0943951023932 2.26892802759263 2.44346095279206 2.61799387799149 2.79252680319093 2.96705972839036 3.14159265358979 
2 3 21 
p 0.157596305162573 1 21.05 28.75 
2 3 2 
p 0.157596305162573 1 21.05 28.75 
2 20 1 
p 0.157596305162573 1 21.05 28.75 
2 21 3 
p 0.157596305162573 1 0 1.7 
2 1 20 
p 0.157596305162573 1 0 1.7 
2 4 3 
p 0.157596305162573 1 0 1.7 
2 4 1 
p 0.157596305162573 1 21.05 28.75 
2 3 21 
p 0.157596305162573 1 21.05 28.75 
2 20 1 
p 0.157596305162573 1 21.05 28.75 
19 1 22 23 24 25 26 27 28 29 30 31 32 33 34 35 36 37 38 21 
p 0.157596305162573 1 0 0.174532925199433 0.349065850398866 0.523598775598299 0.698131700797732 0.872664625997165 1.0471975511966 1.22173047639603 1.39626340159546 1.5707963267949 1.74532925199433 1.91986217719376 2.0943951023932 2.26892802759263 2.44346095279206 2.61799387799149 2.79252680319093 2.96705972839036 3.14159265358979 
19 2 4 5 6 7 8 9 10 11 12 13 14 15 16 17 18 19 20 3 
p 0.157596305162573 1 0 0.174532925199433 0.349065850398866 0.523598775598299 0.698131700797732 0.872664625997165 1.0471975511966 1.22173047639603 1.39626340159546 1.5707963267949 1.74532925199433 1.91986217719376 2.0943951023932 2.26892802759263 2.44346095279206 2.61799387799149 2.79252680319093 2.96705972839036 3.14159265358979 
19 1 3 4 5 6 7 8 9 10 11 12 13 14 15 16 17 18 19 2 
p 0.157596305162573 1 3.14159265358979 3.31612557878923 3.49065850398866 3.66519142918809 3.83972435438752 4.01425727958696 4.18879020478639 4.36332312998582 4.53785605518526 4.71238898038469 4.88692190558412 5.06145483078355 5.23598775598299 5.41052068118242 5.58505360638185 5.75958653158128 5.93411945678072 6.10865238198015 6.28318530717959 
19 1 3 4 5 6 7 8 9 10 11 12 13 14 15 16 17 18 19 2 
p 0.157596305162573 1 3.14159265358979 3.31612557878923 3.49065850398866 3.66519142918809 3.83972435438752 4.01425727958696 4.18879020478639 4.36332312998582 4.53785605518526 4.71238898038469 4.88692190558412 5.06145483078355 5.23598775598299 5.41052068118242 5.58505360638185 5.75958653158128 5.93411945678072 6.10865238198015 6.28318530717959 
19 20 22 23 24 25 26 27 28 29 30 31 32 33 34 35 36 37 38 21 
p 0.157596305162573 1 3.14159265358979 3.31612557878923 3.49065850398866 3.66519142918809 3.83972435438752 4.01425727958696 4.18879020478639 4.36332312998582 4.53785605518526 4.71238898038469 4.88692190558412 5.06145483078355 5.23598775598299 5.41052068118242 5.58505360638185 5.75958653158128 5.93411945678072 6.10865238198015 6.28318530717959 
19 1 3 4 5 6 7 8 9 10 11 12 13 14 15 16 17 18 19 2 
p 0.157596305162573 1 3.14159265358979 3.31612557878923 3.49065850398866 3.66519142918809 3.83972435438752 4.01425727958696 4.18879020478639 4.36332312998582 4.53785605518526 4.71238898038469 4.88692190558412 5.06145483078355 5.23598775598299 5.41052068118242 5.58505360638185 5.75958653158128 5.93411945678072 6.10865238198015 6.28318530717959 
19 1 3 4 5 6 7 8 9 10 11 12 13 14 15 16 17 18 19 2 
p 0.157596305162573 1 3.14159265358979 3.31612557878923 3.49065850398866 3.66519142918809 3.83972435438752 4.01425727958696 4.18879020478639 4.36332312998582 4.53785605518526 4.71238898038469 4.88692190558412 5.06145483078355 5.23598775598299 5.41052068118242 5.58505360638185 5.75958653158128 5.93411945678072 6.10865238198015 6.28318530717959 
19 20 22 23 24 25 26 27 28 29 30 31 32 33 34 35 36 37 38 21 
p 0.157596305162573 1 3.14159265358979 3.31612557878923 3.49065850398866 3.66519142918809 3.83972435438752 4.01425727958696 4.18879020478639 4.36332312998582 4.53785605518526 4.71238898038469 4.88692190558412 5.06145483078355 5.23598775598299 5.41052068118242 5.58505360638185 5.75958653158128 5.93411945678072 6.10865238198015 6.28318530717959 
19 20 22 23 24 25 26 27 28 29 30 31 32 33 34 35 36 37 38 21 
p 0.157596305162573 1 3.14159265358979 3.31612557878923 3.49065850398866 3.66519142918809 3.83972435438752 4.01425727958696 4.18879020478639 4.36332312998582 4.53785605518526 4.71238898038469 4.88692190558412 5.06145483078355 5.23598775598299 5.41052068118242 5.58505360638185 5.75958653158128 5.93411945678072 6.10865238198015 6.28318530717959 
19 20 22 23 24 25 26 27 28 29 30 31 32 33 34 35 36 37 38 21 
p 0.157596305162573 1 3.14159265358979 3.31612557878923 3.49065850398866 3.66519142918809 3.83972435438752 4.01425727958696 4.18879020478639 4.36332312998582 4.53785605518526 4.71238898038469 4.88692190558412 5.06145483078355 5.23598775598299 5.41052068118242 5.58505360638185 5.75958653158128 5.93411945678072 6.10865238198015 6.28318530717959 
Surfaces 5
2 0 0 -20.199999999999999 0 0 1 1 0 -0 -0 1 0 10.5
1 0 0 -18.5 0 0 1 -1 -0 0 -0 1 0 
1 -78.5 0 -91 0 1 0 1 0 0 0 0 -1 
1 0 0 -20.199999999999999 0 0 1 -1 -0 0 -0 1 0 
2 0 0 -20.199999999999999 0 0 1 1 0 -0 -0 1 0 18.199999999999999
Triangulations 10
38 36 1 0.0399556700367094
10.5 0 -20.2 10.5 0 -18.5 -10.5 0 -18.5 10.3404814066282 1.82330586550279 -18.5 9.86677251825205 3.5912115049195 -18.5 9.09326673973661 5.25 -18.5 8.04346665274926 6.74926990170866 -18.5 6.74926990170866 8.04346665274926 -18.5 5.25 9.09326673973658 -18.5 3.59121150491953 9.86677251825205 -18.5 1.82330586550276 10.3404814066282 -18.5 0 10.5 -18.5 -1.82330586550276 10.3404814066282 -18.5 -3.59121150491953 9.86677251825205 -18.5 -5.25 9.09326673973658 -18.5 -6.74926990170866 8.04346665274926 -18.5 -8.04346665274926 6.74926990170866 -18.5 -9.09326673973661 5.25 -18.5 -9.86677251825205 3.59121150491956 -18.5 -10.3404814066282 1.82330586550279 -18.5 -10.5 0 -20.2 10.3404814066282 1.82330586550279 -20.2 9.86677251825205 3.5912115049195 -20.2 9.09326673973661 5.25 -20.2 8.04346665274926 6.74926990170866 -20.2 6.74926990170866 8.04346665274926 -20.2 5.25 9.09326673973658 -20.2 3.59121150491953 9.86677251825205 -20.2 1.82330586550276 10.3404814066282 -20.2 0 10.5 -20.2 -1.82330586550276 10.3404814066282 -20.2 -3.59121150491953 9.86677251825205 -20.2 -5.25 9.09326673973658 -20.2 -6.74926990170866 8.04346665274926 -20.2 -8.04346665274926 6.74926990170866 -20.2 -9.09326673973661 5.25 -20.2 -9.86677251825205 3.59121150491956 -20.2 -10.3404814066282 1.82330586550279 -20.2 0 0 0 1.7 3.14159265358979 1.7 0.174532925199433 1.7 0.349065850398866 1.7 0.523598775598299 1.7 0.698131700797732 1.7 0.872664625997165 1.7 1.0471975511966 1.7 1.22173047639603 1.7 1.39626340159546 1.7 1.5707963267949 1.7 1.74532925199433 1.7 1.91986217719376 1.7 2.0943951023932 1.7 2.26892802759263 1.7 2.44346095279206 1.7 2.61799387799149 1.7 2.79252680319093 1.7 2.96705972839036 1.7 3.14159265358979 0 0.174532925199433 0 0.349065850398866 0 0.523598775598299 0 0.698131700797732 0 0.872664625997165 0 1.0471975511966 0 1.22173047639603 0 1.39626340159546 0 1.5707963267949 0 1.74532925199433 0 1.91986217719376 0 2.0943951023932 0 2.26892802759263 0 2.44346095279206 0 2.61799387799149 0 2.79252680319093 0 2.96705972839036 0 4 2 1 4 1 22 5 22 23 5 23 24 5 4 22 6 24 25 6 5 24 7 6 25 8 25 26 8 7 25 9 26 27 9 8 26 10 27 28 10 9 27 11 28 29 11 29 30 11 10 28 12 11 30 13 30 31 13 12 30 14 31 32 14 13 31 15 32 33 15 14 32 16 33 34 16 15 33 17 34 35 17 16 34 18 17 35 18 35 36 19 18 36 19 36 37 20 19 37 20 37 38 3 20 38 3 38 21 
38 36 1 0.0399556700367094
-10.5 0 -20.2 10.5 0 -20.2 -10.3404814066282 -1.82330586550279 -20.2 -9.86677251825205 -3.5912115049195 -20.2 -9.09326673973661 -5.25 -20.2 -8.04346665274929 -6.74926990170866 -20.2 -6.74926990170869 -8.04346665274926 -20.2 -5.25 -9.09326673973658 -20.2 -3.59121150491953 -9.86677251825205 -20.2 -1.82330586550279 -10.3404814066282 -20.2 -2.8421709430404e-14 -10.5 -20.2 1.82330586550273 -10.3404814066282 -20.2 3.5912115049195 -9.86677251825205 -20.2 5.24999999999997 -9.09326673973663 -20.2 6.74926990170863 -8.04346665274932 -20.2 8.04346665274926 -6.74926990170866 -20.2 9.09326673973658 -5.25000000000006 -20.2 9.86677251825202 -3.59121150491956 -20.2 10.3404814066282 -1.82330586550279 -20.2 -10.5 0 -18.5 10.5 0 -18.5 -10.3404814066282 -1.82330586550279 -18.5 -9.86677251825205 -3.5912115049195 -18.5 -9.09326673973661 -5.25 -18.5 -8.04346665274929 -6.74926990170866 -18.5 -6.74926990170869 -8.04346665274926 -18.5 -5.25 -9.09326673973658 -18.5 -3.59121150491953 -9.86677251825205 -18.5 -1.82330586550279 -10.3404814066282 -18.5 -2.8421709430404e-14 -10.5 -18.5 1.82330586550273 -10.3404814066282 -18.5 3.5912115049195 -9.86677251825205 -18.5 5.24999999999997 -9.09326673973663 -18.5 6.74926990170863 -8.04346665274932 -18.5 8.04346665274926 -6.74926990170866 -18.5 9.09326673973658 -5.25000000000006 -18.5 9.86677251825202 -3.59121150491956 -18.5 10.3404814066282 -1.82330586550279 -18.5 3.14159265358979 0 6.28318530717959 0 3.31612557878923 0 3.49065850398866 0 3.66519142918809 0 3.83972435438752 0 4.01425727958696 0 4.18879020478639 0 4.36332312998582 0 4.53785605518526 0 4.71238898038469 0 4.88692190558412 0 5.06145483078355 0 5.23598775598299 0 5.41052068118242 0 5.58505360638185 0 5.75958653158128 0 5.93411945678072 0 6.10865238198015 0 3.14159265358979 1.7 6.28318530717959 1.7 3.31612557878923 1.7 3.49065850398866 1.7 3.66519142918809 1.7 3.83972435438752 1.7 4.01425727958696 1.7 4.18879020478639 1.7 4.36332312998582 1.7 4.53785605518526 1.7 4.71238898038469 1.7 4.88692190558412 1.7 5.06145483078355 1.7 5.23598775598299 1.7 5.41052068118242 1.7 5.58505360638185 1.7 5.75958653158128 1.7 5.93411945678072 1.7 6.10865238198015 1.7 20 1 3 22 3 4 22 20 3 23 4 5 23 22 4 24 23 5 25 5 6 25 6 7 25 24 5 26 25 7 27 7 8 27 26 7 28 8 9 28 27 8 29 9 10 29 28 9 30 10 11 30 11 12 30 29 10 31 30 12 32 12 13 32 31 12 33 13 14 33 32 13 34 14 15 34 33 14 35 15 16 35 34 15 36 35 16 36 16 17 37 36 17 37 17 18 38 37 18 38 18 19 38 19 2 21 38 2 
4 2 1 3.44169137633799e-15
10.5 0 -20.2 18.2 0 -20.2 18.2 0 -18.5 10.5 0 -18.5 89 -70.8 96.7 -70.8 96.7 -72.5 89 -72.5 2 4 3 2 1 4 
38 36 1 2.8421709430404e-14
10.5 0 -18.5 18.2 0 -18.5 -18.2 0 -18.5 17.9235011048222 3.16039683353813 -18.5 17.1024056983035 6.22476660852715 -18.5 15.7616623488768 9.10000000000002 -18.5 13.9420088647654 11.698734496295 -18.5 11.698734496295 13.9420088647654 -18.5 9.09999999999999 15.7616623488768 -18.5 6.22476660852718 17.1024056983035 -18.5 3.16039683353813 17.9235011048222 -18.5 0 18.2 -18.5 -3.16039683353813 17.9235011048222 -18.5 -6.22476660852718 17.1024056983035 -18.5 -9.09999999999999 15.7616623488768 -18.5 -11.698734496295 13.9420088647654 -18.5 -13.9420088647654 11.698734496295 -18.5 -15.7616623488768 9.10000000000002 -18.5 -17.1024056983035 6.2247666085272 -18.5 -17.9235011048222 3.16039683353813 -18.5 -10.5 0 -18.5 10.3404814066282 1.82330586550279 -18.5 9.86677251825205 3.5912115049195 -18.5 9.09326673973661 5.25 -18.5 8.04346665274926 6.74926990170866 -18.5 6.74926990170866 8.04346665274926 -18.5 5.25 9.09326673973658 -18.5 3.59121150491953 9.86677251825205 -18.5 1.82330586550276 10.3404814066282 -18.5 0 10.5 -18.5 -1.82330586550276 10.3404814066282 -18.5 -3.59121150491953 9.86677251825205 -18.5 -5.25 9.09326673973658 -18.5 -6.74926990170866 8.04346665274926 -18.5 -8.04346665274926 6.74926990170866 -18.5 -9.09326673973661 5.25 -18.5 -9.86677251825205 3.59121150491956 -18.5 -10.3404814066282 1.82330586550279 -18.5 -10.5 -2.57175827820944e-15 -18.2 -4.45771434889637e-15 18.2 2.22885717444818e-15 -17.9235011048222 3.16039683353813 -17.1024056983035 6.22476660852717 -15.7616623488768 9.1 -13.9420088647654 11.698734496295 -11.698734496295 13.9420088647654 -9.1 15.7616623488768 -6.22476660852717 17.1024056983035 -3.16039683353813 17.9235011048222 0 18.2 3.16039683353813 17.9235011048222 6.22476660852717 17.1024056983035 9.09999999999999 15.7616623488768 11.698734496295 13.9420088647654 13.9420088647654 11.698734496295 15.7616623488768 9.10000000000001 17.1024056983035 6.22476660852719 17.9235011048222 3.16039683353815 10.5 1.28587913910472e-15 -10.3404814066282 1.82330586550277 -9.86677251825204 3.59121150491952 -9.09326673973661 5.25 -8.04346665274927 6.74926990170866 -6.74926990170866 8.04346665274927 -5.25 9.09326673973661 -3.59121150491952 9.86677251825204 -1.82330586550277 10.3404814066282 0 10.5 1.82330586550277 10.3404814066282 3.59121150491952 9.86677251825204 5.25 9.09326673973661 6.74926990170866 8.04346665274927 8.04346665274927 6.74926990170867 9.0932667397366 5.25000000000001 9.86677251825203 3.59121150491953 10.3404814066282 1.82330586550278 20 21 3 20 37 38 20 38 21 14 31 32 14 13 31 1 4 2 19 37 20 22 4 1 15 32 33 15 33 34 15 14 32 23 5 4 18 37 19 23 4 22 18 36 37 24 6 5 17 36 18 17 34 35 17 35 36 24 5 23 16 34 17 25 7 6 16 15 34 25 6 24 26 7 25 8 7 26 27 8 26 9 8 27 10 27 28 10 9 27 11 28 29 11 29 30 11 10 28 12 11 30 13 30 31 13 12 30 
4 2 1 5.10702591327572e-15
-10.5 0 -20.2 -10.5 0 -18.5 -18.2 0 -18.5 -18.2 0 -20.2 68 -70.8 68 -72.5 60.3 -72.5 60.3 -70.8 1 3 2 1 4 3 
38 36 1 2.8421709430404e-14
10.5 0 -20.2 18.2 0 -20.2 -18.2 0 -20.2 17.9235011048222 3.16039683353813 -20.2 17.1024056983035 6.22476660852715 -20.2 15.7616623488768 9.10000000000002 -20.2 13.9420088647654 11.698734496295 -20.2 11.698734496295 13.9420088647654 -20.2 9.09999999999999 15.7616623488768 -20.2 6.22476660852718 17.1024056983035 -20.2 3.16039683353813 17.9235011048222 -20.2 0 18.2 -20.2 -3.16039683353813 17.9235011048222 -20.2 -6.22476660852718 17.1024056983035 -20.2 -9.09999999999999 15.7616623488768 -20.2 -11.698734496295 13.9420088647654 -20.2 -13.9420088647654 11.698734496295 -20.2 -15.7616623488768 9.10000000000002 -20.2 -17.1024056983035 6.2247666085272 -20.2 -17.9235011048222 3.16039683353813 -20.2 -10.5 0 -20.2 10.3404814066282 1.82330586550279 -20.2 9.86677251825205 3.5912115049195 -20.2 9.09326673973661 5.25 -20.2 8.04346665274926 6.74926990170866 -20.2 6.74926990170866 8.04346665274926 -20.2 5.25 9.09326673973658 -20.2 3.59121150491953 9.86677251825205 -20.2 1.82330586550276 10.3404814066282 -20.2 0 10.5 -20.2 -1.82330586550276 10.3404814066282 -20.2 -3.59121150491953 9.86677251825205 -20.2 -5.25 9.09326673973658 -20.2 -6.74926990170866 8.04346665274926 -20.2 -8.04346665274926 6.74926990170866 -20.2 -9.09326673973661 5.25 -20.2 -9.86677251825205 3.59121150491956 -20.2 -10.3404814066282 1.82330586550279 -20.2 -10.5 -2.57175827820944e-15 -18.2 -4.45771434889637e-15 18.2 2.22885717444818e-15 -17.9235011048222 3.16039683353813 -17.1024056983035 6.22476660852717 -15.7616623488768 9.1 -13.9420088647654 11.698734496295 -11.698734496295 13.9420088647654 -9.1 15.7616623488768 -6.22476660852717 17.1024056983035 -3.16039683353813 17.9235011048222 0 18.2 3.16039683353813 17.9235011048222 6.22476660852717 17.1024056983035 9.09999999999999 15.7616623488768 11.698734496295 13.9420088647654 13.9420088647654 11.698734496295 15.7616623488768 9.10000000000001 17.1024056983035 6.22476660852719 17.9235011048222 3.16039683353815 10.5 1.28587913910472e-15 -10.3404814066282 1.82330586550277 -9.86677251825204 3.59121150491952 -9.09326673973661 5.25 -8.04346665274927 6.74926990170866 -6.74926990170866 8.04346665274927 -5.25 9.09326673973661 -3.59121150491952 9.86677251825204 -1.82330586550277 10.3404814066282 0 10.5 1.82330586550277 10.3404814066282 3.59121150491952 9.86677251825204 5.25 9.09326673973661 6.74926990170866 8.04346665274927 8.04346665274927 6.74926990170867 9.0932667397366 5.25000000000001 9.86677251825203 3.59121150491953 10.3404814066282 1.82330586550278 20 21 3 20 37 38 20 38 21 14 31 32 14 13 31 1 4 2 19 37 20 22 4 1 15 32 33 15 33 34 15 14 32 23 5 4 18 37 19 23 4 22 18 36 37 24 6 5 17 36 18 17 34 35 17 35 36 24 5 23 16 34 17 25 7 6 16 15 34 25 6 24 26 7 25 8 7 26 27 8 26 9 8 27 10 27 28 10 9 27 11 28 29 11 29 30 11 10 28 12 11 30 13 30 31 13 12 30 
38 36 1 3.10862446895044e-14
-10.5 0 -20.2 10.5 0 -20.2 -10.3404814066282 -1.82330586550279 -20.2 -9.86677251825205 -3.5912115049195 -20.2 -9.09326673973661 -5.25 -20.2 -8.04346665274929 -6.74926990170866 -20.2 -6.74926990170869 -8.04346665274926 -20.2 -5.25 -9.09326673973658 -20.2 -3.59121150491953 -9.86677251825205 -20.2 -1.82330586550279 -10.3404814066282 -20.2 -2.8421709430404e-14 -10.5 -20.2 1.82330586550273 -10.3404814066282 -20.2 3.5912115049195 -9.86677251825205 -20.2 5.24999999999997 -9.09326673973663 -20.2 6.74926990170863 -8.04346665274932 -20.2 8.04346665274926 -6.74926990170866 -20.2 9.09326673973658 -5.25000000000006 -20.2 9.86677251825202 -3.59121150491956 -20.2 10.3404814066282 -1.82330586550279 -20.2 -18.2 0 -20.2 18.2 0 -20.2 -17.9235011048222 -3.16039683353813 -20.2 -17.1024056983035 -6.22476660852715 -20.2 -15.7616623488768 -9.09999999999997 -20.2 -13.9420088647654 -11.698734496295 -20.2 -11.698734496295 -13.9420088647654 -20.2 -9.10000000000002 -15.7616623488768 -20.2 -6.2247666085272 -17.1024056983035 -20.2 -3.16039683353816 -17.9235011048222 -20.2 -2.8421709430404e-14 -18.2 -20.2 3.1603968335381 -17.9235011048222 -20.2 6.22476660852712 -17.1024056983035 -20.2 9.09999999999997 -15.7616623488768 -20.2 11.698734496295 -13.9420088647655 -20.2 13.9420088647654 -11.6987344962951 -20.2 15.7616623488768 -9.10000000000002 -20.2 17.1024056983035 -6.2247666085272 -20.2 17.9235011048222 -3.16039683353819 -20.2 10.5 0 -10.5 -3.5527136788005e-15 10.3404814066282 -1.82330586550276 9.86677251825204 -3.59121150491952 9.09326673973661 -5.24999999999999 8.04346665274928 -6.74926990170865 6.74926990170867 -8.04346665274926 5.25000000000001 -9.0932667397366 3.59121150491954 -9.86677251825203 1.82330586550279 -10.3404814066282 2.1316282072803e-14 -10.5 -1.82330586550275 -10.3404814066282 -3.5912115049195 -9.86677251825205 -5.24999999999998 -9.09326673973662 -6.74926990170864 -8.04346665274929 -8.04346665274925 -6.74926990170869 -9.09326673973659 -5.25000000000003 -9.86677251825203 -3.59121150491956 -10.3404814066282 -1.82330586550281 18.2 0 -18.2 -3.5527136788005e-15 17.9235011048222 -3.16039683353813 17.1024056983035 -6.22476660852716 15.7616623488768 -9.09999999999999 13.9420088647654 -11.698734496295 11.698734496295 -13.9420088647654 9.10000000000002 -15.7616623488768 6.2247666085272 -17.1024056983035 3.16039683353817 -17.9235011048222 3.5527136788005e-14 -18.2 -3.16039683353809 -17.9235011048222 -6.22476660852713 -17.1024056983035 -9.09999999999996 -15.7616623488768 -11.698734496295 -13.9420088647654 -13.9420088647654 -11.6987344962951 -15.7616623488768 -9.10000000000005 -17.1024056983035 -6.22476660852723 -17.9235011048222 -3.1603968335382 25 7 26 24 5 6 24 6 25 23 3 4 23 4 5 23 5 24 22 1 3 22 3 23 20 1 22 15 34 33 15 35 34 15 16 35 17 36 35 17 35 16 14 15 33 18 37 36 18 36 17 13 33 32 13 14 33 19 38 37 19 21 38 19 37 18 12 31 30 12 32 31 12 13 32 2 21 19 11 12 30 10 29 28 10 30 29 10 11 30 9 10 28 8 28 27 8 9 28 26 8 27 7 8 26 25 6 7 
38 36 1 0.0692564947302649
18.2 0 -20.2 18.2 0 -18.5 -18.2 0 -18.5 17.9235011048222 3.16039683353813 -18.5 17.1024056983035 6.22476660852715 -18.5 15.7616623488768 9.10000000000002 -18.5 13.9420088647654 11.698734496295 -18.5 11.698734496295 13.9420088647654 -18.5 9.09999999999999 15.7616623488768 -18.5 6.22476660852718 17.1024056983035 -18.5 3.16039683353813 17.9235011048222 -18.5 0 18.2 -18.5 -3.16039683353813 17.9235011048222 -18.5 -6.22476660852718 17.1024056983035 -18.5 -9.09999999999999 15.7616623488768 -18.5 -11.698734496295 13.9420088647654 -18.5 -13.9420088647654 11.698734496295 -18.5 -15.7616623488768 9.10000000000002 -18.5 -17.1024056983035 6.2247666085272 -18.5 -17.9235011048222 3.16039683353813 -18.5 -18.2 0 -20.2 17.9235011048222 3.16039683353813 -20.2 17.1024056983035 6.22476660852715 -20.2 15.7616623488768 9.10000000000002 -20.2 13.9420088647654 11.698734496295 -20.2 11.698734496295 13.9420088647654 -20.2 9.09999999999999 15.7616623488768 -20.2 6.22476660852718 17.1024056983035 -20.2 3.16039683353813 17.9235011048222 -20.2 0 18.2 -20.2 -3.16039683353813 17.9235011048222 -20.2 -6.22476660852718 17.1024056983035 -20.2 -9.09999999999999 15.7616623488768 -20.2 -11.698734496295 13.9420088647654 -20.2 -13.9420088647654 11.698734496295 -20.2 -15.7616623488768 9.10000000000002 -20.2 -17.1024056983035 6.2247666085272 -20.2 -17.9235011048222 3.16039683353813 -20.2 0 0 0 1.7 3.14159265358979 1.7 0.174532925199433 1.7 0.349065850398866 1.7 0.523598775598299 1.7 0.698131700797732 1.7 0.872664625997165 1.7 1.0471975511966 1.7 1.22173047639603 1.7 1.39626340159546 1.7 1.5707963267949 1.7 1.74532925199433 1.7 1.91986217719376 1.7 2.0943951023932 1.7 2.26892802759263 1.7 2.44346095279206 1.7 2.61799387799149 1.7 2.79252680319093 1.7 2.96705972839036 1.7 3.14159265358979 0 0.174532925199433 0 0.349065850398866 0 0.523598775598299 0 0.698131700797732 0 0.872664625997165 0 1.0471975511966 0 1.22173047639603 0 1.39626340159546 0 1.5707963267949 0 1.74532925199433 0 1.91986217719376 0 2.0943951023932 0 2.26892802759263 0 2.44346095279206 0 2.61799387799149 0 2.79252680319093 0 2.96705972839036 0 2 1 22 4 22 23 4 2 22 5 23 24 5 4 23 6 24 25 6 5 24 7 25 26 7 6 25 8 26 27 8 7 26 9 27 28 9 8 27 10 28 29 10 9 28 11 29 30 11 10 29 12 30 31 12 11 30 13 31 32 13 12 31 14 32 33 14 13 32 15 14 33 16 33 34 16 34 35 16 15 33 17 35 36 17 16 35 18 17 36 18 36 37 19 18 37 19 37 38 20 19 38 3 20 38 3 38 21 
38 36 1 0.0692564947302522
-18.2 0 -20.2 18.2 0 -20.2 -17.9235011048222 -3.16039683353813 -20.2 -17.1024056983035 -6.22476660852715 -20.2 -15.7616623488768 -9.09999999999997 -20.2 -13.9420088647654 -11.698734496295 -20.2 -11.698734496295 -13.9420088647654 -20.2 -9.10000000000002 -15.7616623488768 -20.2 -6.2247666085272 -17.1024056983035 -20.2 -3.16039683353816 -17.9235011048222 -20.2 -2.8421709430404e-14 -18.2 -20.2 3.1603968335381 -17.9235011048222 -20.2 6.22476660852712 -17.1024056983035 -20.2 9.09999999999997 -15.7616623488768 -20.2 11.698734496295 -13.9420088647655 -20.2 13.9420088647654 -11.6987344962951 -20.2 15.7616623488768 -9.10000000000002 -20.2 17.1024056983035 -6.2247666085272 -20.2 17.9235011048222 -3.16039683353819 -20.2 -18.2 0 -18.5 18.2 0 -18.5 -17.9235011048222 -3.16039683353813 -18.5 -17.1024056983035 -6.22476660852715 -18.5 -15.7616623488768 -9.09999999999997 -18.5 -13.9420088647654 -11.698734496295 -18.5 -11.698734496295 -13.9420088647654 -18.5 -9.10000000000002 -15.7616623488768 -18.5 -6.2247666085272 -17.1024056983035 -18.5 -3.16039683353816 -17.9235011048222 -18.5 -2.8421709430404e-14 -18.2 -18.5 3.1603968335381 -17.9235011048222 -18.5 6.22476660852712 -17.1024056983035 -18.5 9.09999999999997 -15.7616623488768 -18.5 11.698734496295 -13.9420088647655 -18.5 13.9420088647654 -11.6987344962951 -18.5 15.7616623488768 -9.10000000000002 -18.5 17.1024056983035 -6.2247666085272 -18.5 17.9235011048222 -3.16039683353819 -18.5 3.14159265358979 0 6.28318530717959 0 3.31612557878923 0 3.49065850398866 0 3.66519142918809 0 3.83972435438752 0 4.01425727958696 0 4.18879020478639 0 4.36332312998582 0 4.53785605518526 0 4.71238898038469 0 4.88692190558412 0 5.06145483078355 0 5.23598775598299 0 5.41052068118242 0 5.58505360638185 0 5.75958653158128 0 5.93411945678072 0 6.10865238198015 0 3.14159265358979 1.7 6.28318530717959 1.7 3.31612557878923 1.7 3.49065850398866 1.7 3.66519142918809 1.7 3.83972435438752 1.7 4.01425727958696 1.7 4.18879020478639 1.7 4.36332312998582 1.7 4.53785605518526 1.7 4.71238898038469 1.7 4.88692190558412 1.7 5.06145483078355 1.7 5.23598775598299 1.7 5.41052068118242 1.7 5.58505360638185 1.7 5.75958653158128 1.7 5.93411945678072 1.7 6.10865238198015 1.7 20 1 3 22 3 4 22 20 3 23 22 4 24 4 5 24 5 6 24 23 4 25 24 6 26 6 7 26 7 8 26 25 6 27 26 8 28 8 9 28 9 10 28 27 8 29 10 11 29 28 10 30 29 11 31 11 12 31 12 13 31 30 11 32 13 14 32 31 13 33 32 14 34 14 15 34 15 16 34 33 14 35 16 17 35 34 16 36 35 17 36 17 18 37 36 18 37 18 19 38 37 19 21 38 19 21 19 2 
38 36 1 3.10862446895044e-14
-10.5 0 -18.5 10.5 0 -18.5 -10.3404814066282 -1.82330586550279 -18.5 -9.86677251825205 -3.5912115049195 -18.5 -9.09326673973661 -5.25 -18.5 -8.04346665274929 -6.74926990170866 -18.5 -6.74926990170869 -8.04346665274926 -18.5 -5.25 -9.09326673973658 -18.5 -3.59121150491953 -9.86677251825205 -18.5 -1.82330586550279 -10.3404814066282 -18.5 -2.8421709430404e-14 -10.5 -18.5 1.82330586550273 -10.3404814066282 -18.5 3.5912115049195 -9.86677251825205 -18.5 5.24999999999997 -9.09326673973663 -18.5 6.74926990170863 -8.04346665274932 -18.5 8.04346665274926 -6.74926990170866 -18.5 9.09326673973658 -5.25000000000006 -18.5 9.86677251825202 -3.59121150491956 -18.5 10.3404814066282 -1.82330586550279 -18.5 -18.2 0 -18.5 18.2 0 -18.5 -17.9235011048222 -3.16039683353813 -18.5 -17.1024056983035 -6.22476660852715 -18.5 -15.7616623488768 -9.09999999999997 -18.5 -13.9420088647654 -11.698734496295 -18.5 -11.698734496295 -13.9420088647654 -18.5 -9.10000000000002 -15.7616623488768 -18.5 -6.2247666085272 -17.1024056983035 -18.5 -3.16039683353816 -17.9235011048222 -18.5 -2.8421709430404e-14 -18.2 -18.5 3.1603968335381 -17.9235011048222 -18.5 6.22476660852712 -17.1024056983035 -18.5 9.09999999999997 -15.7616623488768 -18.5 11.698734496295 -13.9420088647655 -18.5 13.9420088647654 -11.6987344962951 -18.5 15.7616623488768 -9.10000000000002 -18.5 17.1024056983035 -6.2247666085272 -18.5 17.9235011048222 -3.16039683353819 -18.5 10.5 0 -10.5 -3.5527136788005e-15 10.3404814066282 -1.82330586550276 9.86677251825204 -3.59121150491952 9.09326673973661 -5.24999999999999 8.04346665274928 -6.74926990170865 6.74926990170867 -8.04346665274926 5.25000000000001 -9.0932667397366 3.59121150491954 -9.86677251825203 1.82330586550279 -10.3404814066282 2.1316282072803e-14 -10.5 -1.82330586550275 -10.3404814066282 -3.5912115049195 -9.86677251825205 -5.24999999999998 -9.09326673973662 -6.74926990170864 -8.04346665274929 -8.04346665274925 -6.74926990170869 -9.09326673973659 -5.25000000000003 -9.86677251825203 -3.59121150491956 -10.3404814066282 -1.82330586550281 18.2 0 -18.2 -3.5527136788005e-15 17.9235011048222 -3.16039683353813 17.1024056983035 -6.22476660852716 15.7616623488768 -9.09999999999999 13.9420088647654 -11.698734496295 11.698734496295 -13.9420088647654 9.10000000000002 -15.7616623488768 6.2247666085272 -17.1024056983035 3.16039683353817 -17.9235011048222 3.5527136788005e-14 -18.2 -3.16039683353809 -17.9235011048222 -6.22476660852713 -17.1024056983035 -9.09999999999996 -15.7616623488768 -11.698734496295 -13.9420088647654 -13.9420088647654 -11.6987344962951 -15.7616623488768 -9.10000000000005 -17.1024056983035 -6.22476660852723 -17.9235011048222 -3.1603968335382 25 7 26 24 5 6 24 6 25 23 3 4 23 4 5 23 5 24 22 1 3 22 3 23 20 1 22 15 34 33 15 35 34 15 16 35 17 36 35 17 35 16 14 15 33 18 37 36 18 36 17 13 33 32 13 14 33 19 38 37 19 21 38 19 37 18 12 31 30 12 32 31 12 13 32 2 21 19 11 12 30 10 29 28 10 30 29 10 11 30 9 10 28 8 28 27 8 9 28 26 8 27 7 8 26 25 6 7 

TShapes 47
Ve
1e-07
10.5 0 -20.2
0 0

0101101
*
Ed
 1e-07 1 1 0
1  1 0 0 1.7
3  1 2CN 1 0 0 1.7
6  1 1 0
6  2 2 0
6  3 3 0
0

0101000
+47 0 -47 2 *
Ve
2.00001e-07
-10.5 1.28587913910472e-15 -18.5
0 0

0101101
*
Ed
 1e-07 1 1 0
1  2 0 0 3.14159265358979
2  3 1 0 0 3.14159265358979
2  4 2 0 0 3.14159265358979
6  4 1 0
6  5 4 0
0

0101000
+47 2 -45 0 *
Ve
2.00001e-07
-10.5 1.28587913910472e-15 -20.2
0 0

0101101
*
Ed
 1e-07 1 1 0
1  3 0 0 1.7
2  5 1 0 0 1.7
2  6 3 0 0 1.7
6  6 1 0
6  7 2 0
6  8 5 0
0

0101000
+43 0 -45 0 *
Ed
 1e-07 1 1 0
1  4 0 0 3.14159265358979
2  7 1 0 0 3.14159265358979
2  8 4 0 0 3.14159265358979
6  9 1 0
6  10 6 0
0

0101000
+47 0 -43 0 *
Wi

0101000
-46 0 -44 0 +42 0 +41 0 *
Fa
0  1e-07 1 0
2  1
0101000
+40 0 *
Ve
1e-07
18.2 0 -20.2
0 0

0101101
*
Ed
 1e-07 1 1 0
1  5 0 49.75 57.45
2  9 4 0 49.75 57.45
2  10 3 0 49.75 57.45
6  11 3 0
6  12 6 0
6  13 7 0
0

0101000
+47 0 -38 0 *
Ed
 1e-07 1 1 0
1  6 0 0 1.7
3  11 12CN 5 0 0 1.7
6  14 8 0
6  15 9 0
6  16 3 0
0

0101000
+38 0 -38 2 *
Ed
 1e-07 1 1 0
1  7 0 49.75 57.45
2  13 2 0 49.75 57.45
2  14 3 0 49.75 57.45
6  17 3 0
6  18 4 0
6  19 10 0
0

0101000
+47 2 -38 2 *
Wi

0101000
-37 0 -36 0 +35 0 +46 0 *
Fa
0  1e-07 3 0
2  3
0111000
+34 0 *
Ve
2.00001e-07
-18.2 2.22885717444818e-15 -18.5
0 0

0101101
*
Ed
 1e-07 1 1 0
1  8 0 0 3.14159265358979
2  15 5 0 0 3.14159265358979
2  16 2 0 0 3.14159265358979
6  20 8 0
6  21 4 0
0

0101000
+38 2 -32 0 *
Ed
 1e-07 1 1 0
1  7 0 21.05 28.75
2  13 2 0 21.05 28.75
2  14 3 0 21.05 28.75
6  22 4 0
6  23 5 0
6  24 10 0
0

0101000
+32 0 -45 0 *
Wi

0101000
-35 0 -31 0 -30 0 +44 0 *
Fa
0  1e-07 2 0
2  4
0101000
+29 0 *
Ve
2.00001e-07
-18.2 2.22885717444818e-15 -20.2
0 0

0101101
*
Ed
 1e-07 1 1 0
1  9 0 0 1.7
2  17 5 0 0 1.7
2  18 3 0 0 1.7
6  25 8 0
6  26 9 0
6  27 5 0
0

0101000
+27 0 -32 0 *
Ed
 1e-07 1 1 0
1  5 0 21.05 28.75
2  9 4 0 21.05 28.75
2  10 3 0 21.05 28.75
6  28 5 0
6  29 6 0
6  30 7 0
0

0101000
+27 0 -43 0 *
Wi

0101000
-42 0 +30 0 +26 0 -25 0 *
Fa
0  1e-07 3 0
2  5
0111000
+24 0 *
Ed
 1e-07 1 1 0
1  10 0 0 3.14159265358979
2  19 5 0 0 3.14159265358979
2  20 4 0 0 3.14159265358979
6  31 8 0
6  32 6 0
0

0101000
+38 0 -27 0 *
Wi

0101000
-37 0 -22 0 -25 0 +41 0 *
Fa
0  1e-07 4 0
2  6
0101000
+21 0 *
Wi

0101000
-36 0 -31 0 +26 0 +22 0 *
Fa
0  1e-07 5 0
2  8
0101000
+19 0 *
Sh

0101000
-39 0 -33 0 -28 0 -23 0 +20 0 +18 0 *
So

0100000
+17 0 *
Ed
 1e-07 1 1 0
1  4 0 3.14159265358979 6.28318530717959
2  7 1 0 3.14159265358979 6.28318530717959
2  8 4 0 3.14159265358979 6.28318530717959
6  33 2 0
6  34 7 0
0

0101000
+43 0 -47 0 *
Ed
 1e-07 1 1 0
1  2 0 3.14159265358979 6.28318530717959
2  3 1 0 3.14159265358979 6.28318530717959
2  4 2 0 3.14159265358979 6.28318530717959
6  35 2 0
6  36 10 0
0

0101000
+45 0 -47 2 *
Wi

0101000
+15 0 -42 0 -14 0 +46 0 *
Fa
0  1e-07 1 0
2  2
0101000
+13 0 *
Ed
 1e-07 1 1 0
1  10 0 3.14159265358979 6.28318530717959
2  19 5 0 3.14159265358979 6.28318530717959
2  20 4 0 3.14159265358979 6.28318530717959
6  37 9 0
6  38 7 0
0

0101000
+27 0 -38 0 *
Wi

0101000
+15 0 +25 0 -11 0 +37 0 *
Fa
0  1e-07 4 0
2  7
0101000
+10 0 *
Ed
 1e-07 1 1 0
1  8 0 3.14159265358979 6.28318530717959
2  15 5 0 3.14159265358979 6.28318530717959
2  16 2 0 3.14159265358979 6.28318530717959
6  39 9 0
6  40 10 0
0

0101000
+32 0 -38 2 *
Wi

0101000
+14 0 +30 0 -8 0 +35 0 *
Fa
0  1e-07 2 0
2  10
0101000
+7 0 *
Wi

0101000
+11 0 -26 0 -8 0 +36 0 *
Fa
0  1e-07 5 0
2  9
0101000
+5 0 *
Sh

0101000
-12 0 +9 0 +23 0 -6 0 +33 0 +4 0 *
So

0100000
+3 0 *
Co

1100000
+16 0 +2 0 *

+1 1 