DBRep_DrawableShape

CASCADE Topology V1, (c) Matra-Datavision
Locations 6
1
              1               0               0             508 
              0               1               0               0 
              0               0               1           31.05 
1
              1               0               0               0 
              0 1.11022302462516e-16              -1               0 
              0               1 1.11022302462516e-16               0 
2  2 -1 0
1
              1               0               0               0 
              0               1               0               0 
              0               0               1          -16.75 
1
              1               0               0               0 
              0               1               0               0 
              0               0               1           -33.5 
1
              1               0               0               0 
              0               1               0               0 
              0               0               1             -55 
Curve2ds 122
8 29.911287537651756 48.588712462348241
1 39.25 4.5319303865198889e-14 -1 -1.1546319456101628e-15 
8 29.911287537651756 48.588712462348241
1 39.25 -85 1 0 
2 0 0 -1 -9.8873655112594393e-16 -9.8873655112594393e-16 1 8.6999999999999993
1 0 6.5 1 0 
2 0 0 -1 0 0 1 8.6999999999999993
2 0 0 -1 0 0 1 1.25
1 0 72 1 0 
8 -6.5 6.5
1 6.5 7.4499999999999993 -1 0 
8 -6.5 6.5
1 6.5 -1.0000000000000007 1 -1.1102230246251565e-16 
1 6.2831853071795862 0 0 1 
1 0 0 0 1 
1 6.2831853071795862 0 0 1 
1 0 0 0 1 
8 -48.588712462348241 -29.911287537651756
1 -39.25 0 -1 0 
8 -48.588712462348241 -29.911287537651756
1 39.25 -72 -1 0 
8 -6.5 6.5
1 3.1415926535897931 0 0 1 
8 -6.5 6.5
1 69.799999999999997 -78.5 0 -1 
1 0 -6.5 1 0 
2 0 0 1 0 -0 1 8.6999999999999993
2 0 0 1 0 -0 1 8.6999999999999993
1 0 0 1 0 
8 59 72
1 3.1415926535897931 0 0 1 
8 59 72
1 77.25 -13 0 -1 
2 0 0 1 0 -0 1 1.25
1 0 59 1 0 
1 0 59 1 0 
8 23.953833035808909 54.546166964191087
1 39.25 6.5113942335055885e-15 -1 -1.6589539448421881e-16 
8 23.953833035808909 54.546166964191087
1 39.25 -85 1 0 
2 0 0 -1 -6.4611890483327344e-17 -6.4611890483327344e-17 1 14.25
1 0 0 1 0 
8 -54.546166964191087 -23.953833035808909
1 -39.25 0 -1 0 
8 -54.546166964191087 -23.953833035808909
1 39.25 -72 -1 0 
1 6.2831853071795862 0 0 1 
1 0 0 0 1 
1 0 13 1 0 
2 0 0 1 0 -0 1 14.25
8 -0 13
1 3.1415926535897931 0 0 1 
8 -0 13
1 64.25 -85 -0 1 
1 6.2831853071795862 0 0 1 
1 0 0 0 1 
8 49.200000000000003 56.650000000000006
1 30.549999999999997 -55.25 1 0 
8 49.200000000000003 56.650000000000006
1 -30.550000000000004 0 1 0 
1 6.2831853071795862 0 0 1 
1 0 0 0 1 
8 0 59
1 3.1415926535897984 0 0 1 
8 0 59
1 77.25 -13 0 -1 
1 0 42.25 1 0 
2 17.399999999999999 0 1 -5.2402526762307392e-15 5.2402526762307392e-15 1 1.25
8 -0 33.5
1 3.1415926535897931 0 0 1 
8 -0 33.5
1 69.799999999999997 -72 -0 1 
8 39.25 46.700000000000003
1 30.549999999999997 -55.25 1 0 
8 39.25 46.700000000000003
1 -30.550000000000004 0 1 0 
1 6.2831853071795862 16.75 -1 0 
2 17.399999999999999 0 1 0 0 -1 8.6999999999999993
8 49.200000000000003 56.650000000000006
1 30.549999999999997 -38.5 1 0 
8 49.200000000000003 56.650000000000006
1 -30.550000000000004 0 1 0 
1 0 25.5 1 0 
2 17.399999999999999 0 1 -5.2402526762307392e-15 5.2402526762307392e-15 1 1.25
8 39.25 46.700000000000003
1 30.549999999999997 -38.5 1 0 
8 39.25 46.700000000000003
1 -30.550000000000004 0 1 0 
1 0 33.5 1 0 
1 0 23.25 1 0 
1 0 0 1 0 
8 49.200000000000003 56.650000000000006
1 30.549999999999997 -17 1 0 
8 49.200000000000003 56.650000000000006
1 -30.550000000000004 0 1 0 
8 23.25 44.75
1 23.25 7.4499999999999993 1 -0 
8 23.25 44.75
1 -23.25 -0.99999999999999889 1 1.1102230246251565e-16 
1 6.2831853071795862 0 0 1 
1 0 0 0 1 
1 0 4 1 0 
2 17.399999999999999 0 1 -5.2402526762307392e-15 5.2402526762307392e-15 1 1.25
8 39.25 46.700000000000003
1 30.549999999999997 -17 1 0 
8 39.25 46.700000000000003
1 -30.550000000000004 0 1 0 
1 0 44.75 1 0 
1 0 31.940082294565684 1 0 
8 23.25 44.75
1 3.1415926535897936 0 0 1 
8 23.25 44.75
1 69.799999999999997 -61.75 -0 1 
8 -47.461626475513114 -31.038373524486886
1 -39.25 -3.3607829663734718e-14 -1 -8.5625043729260431e-16 
8 -47.461626475513114 -31.038373524486886
1 39.25 -13 -1 0 
8 31.940082294565684 36.07559919091613
1 37.106563367928658 15.559527115918719 0.9672309653794342 -0.25389812841210124 
8 31.940082294565684 36.07559919091613
1 -31.940082294565684 -0.99999999999999734 1 1.0738420878946655e-16 
1 6.2831853071795862 0 0 1 
1 0 0 0 1 
2 0 0 1 -4.3840022389381347e-15 4.3840022389381347e-15 1 1.25
1 0 0 1 0 
1 0 36.075599190916137 1 0 
2 0 0 1 0 -0 1 7.6500000000000004
2 0 0 1 -5.2530701674392922e-17 5.2530701674392922e-17 1 7.6500000000000004
8 30.130194530553233 34.265711426903692
1 3.1415926535897931 66.205793721469377 0 -1 
8 30.130194530553233 34.265711426903692
1 78.5 16.142857142857167 -0.25389812841210124 -0.9672309653794342 
1 6.2831853071795862 16.75 -1 0 
2 17.399999999999999 0 1 0 0 -1 8.6999999999999993
1 0 42.25 1 0 
2 17.399999999999999 0 1 -5.2402526762307392e-15 5.2402526762307392e-15 1 1.25
1 0 25.5 1 0 
2 17.399999999999999 0 1 -5.2402526762307392e-15 5.2402526762307392e-15 1 1.25
1 0 4 1 0 
2 17.399999999999999 0 1 -5.2402526762307392e-15 5.2402526762307392e-15 1 1.25
1 6.2831853071795862 0 0 1 
1 0 0 0 1 
1 0 0.54281815445111326 1 0 
1 0 0 1 0 
8 9.4450358874493698 9.9878540419004835
1 3.1415926535897936 -9.4450358874493663 0 1 
8 9.4450358874493698 9.9878540419004835
1 78.5 -42.17677887765997 -0.92111878701918126 0.38928162068136785 
8 55.599999999999994 57.150000000000006
1 30.549999999999997 -17 1 0 
8 55.599999999999994 57.150000000000006
1 -30.550000000000004 0 1 0 
1 6.2831853071795862 0 0 1 
1 0 0 0 1 
1 0 21.288690869100002 1 0 
1 0 0 1 0 
8 -0 21.288690869100002
1 3.1415926535897936 0 0 1 
8 -0 21.288690869100002
1 69.299999999999997 -38.288690869100002 -0 1 
8 38.75 40.300000000000011
1 30.549999999999997 -17 1 0 
8 38.75 40.300000000000011
1 -30.550000000000004 0 1 0 
8 -47.998334088291749 -30.501665911708251
1 -39.25 -3.1545999623014799e-14 -1 -8.0371973561821148e-16 
8 -47.998334088291749 -30.501665911708251
1 39.25 -13 -1 0 
1 6.2831853071795862 0 0 1 
1 0 0 0 1 
1 0 4.1355168963504427 1 0 
2 0 0 1 0 -0 1 8.1500000000000004
8 32.099488290720117 36.235005187070556
1 3.1415926535897936 36.235005187070563 0 -1 
8 32.099488290720117 36.235005187070556
1 78.5 18.047619047619065 -0.25389812841210124 -0.9672309653794342 
Curves 54
1 -39.25 0 13 1 0 0 
2 0 0 13 0 0 1 1 1.6589539448421881e-16 -0 -1.6589539448421881e-16 1 0 8.6999999999999993
2 0 0 13 0 0 1 1 1.1546319456101628e-15 -0 -1.1546319456101628e-15 1 0 1.25
1 8.6999999999999993 7.2164496600635175e-16 6.5 -0 1.1102230246251565e-16 1 
1 1.25 -59 0 0 1 0 
1 -39.25 0 0 -1 0 0 
1 -8.6999999999999993 0 6.5 0 0 1 
2 0 0 0 0 0 1 1 0 -0 -0 1 0 8.6999999999999993
1 -1.25 0 -59 0 0 1 
2 0 0 0 0 0 1 1 0 -0 -0 1 0 1.25
1 -39.25 0 13 1 0 0 
2 0 0 13 0 0 1 1 1.0128350400089147e-16 -0 -1.0128350400089147e-16 1 0 14.25
1 -39.25 0 0 -1 0 0 
1 14.25 13 0 0 -1 -0 
2 0 0 0 0 0 1 1 0 -0 -0 1 0 14.25
1 -14.25 0 13 -0 -0 -1 
1 -47.950000000000003 0 -16.75 1 -0 0 
1 8.6999999999999993 0 0 0 -1 -0 
1 -1.25 0 -59 0 0 1 
2 0 0 -16.75 0 0 1 1 -5.2402526762307392e-15 0 5.2402526762307392e-15 1 -0 1.25
1 -8.6999999999999993 0 0 -0 -0 -1 
1 -47.950000000000003 0 -16.75 1 -0 0 
2 0 0 -16.75 -0 -0 -1 1 0 0 0 -1 0 8.6999999999999993
1 -47.950000000000003 0 -33.5 1 -0 0 
2 0 0 -33.5 0 0 1 1 -5.2402526762307392e-15 0 5.2402526762307392e-15 1 -0 1.25
1 -47.950000000000003 0 -33.5 1 -0 0 
2 0 0 -33.5 0 0 1 1 -4.2749967040164079e-16 0 4.2749967040164079e-16 1 -0 8.6999999999999993
1 -47.950000000000003 0 -55 1 -0 0 
1 8.6999999999999993 -1.1657341758564144e-15 -10.25 -0 -1.1102230246251565e-16 -1 
2 0 0 -55 0 0 1 1 -5.2402526762307392e-15 0 5.2402526762307392e-15 1 -0 1.25
1 -47.950000000000003 0 -55 1 -0 0 
2 0 0 -55 0 0 1 1 -7.0186513051015654e-16 0 7.0186513051015654e-16 1 -0 8.6999999999999993
1 -8.6999999999999993 0 -10.25 -0 -0 -1 
1 -39.25 0 -59 -1 0 0 
1 16.809527115918719 -2.6763661695659759e-15 -24.106563367928661 -0.25389812841210124 -1.0738420878946655e-16 -0.9672309653794342 
2 0 0 -59 0 0 1 1 -5.2402526762307392e-15 0 5.2402526762307392e-15 1 -0 1.25
2 0 0 -59 0 0 1 1 -8.5625043729260431e-16 0 8.5625043729260431e-16 1 -0 7.6500000000000004
1 0 0 -88.142857142857167 -0.25389812841210119 -0 0.96723096537943409 
2 0 0 -16.75 -0 -0 -1 1 0 0 0 -1 0 8.6999999999999993
2 0 0 -16.75 0 0 1 1 -5.2402526762307392e-15 0 5.2402526762307392e-15 1 -0 1.25
2 0 0 -33.5 0 0 1 1 -5.2402526762307392e-15 0 5.2402526762307392e-15 1 -0 1.25
2 0 0 -55 0 0 1 1 -5.2402526762307392e-15 0 5.2402526762307392e-15 1 -0 1.25
1 8.6999999999999993 -33.5 0 0.92111878701918126 -0.38928162068136773 -0 
2 0 0 -33.711309130899998 0 0 1 1 -4.0681599551501583e-16 0 4.0681599551501583e-16 1 -0 9.1999999999999993
1 0 0 -29.82322112234003 -0.92111878701918126 0 -0.38928162068136785 
1 -47.950000000000003 0 -55 1 -0 0 
1 9.1999999999999993 -33.711309130899998 0 0 -1 -0 
2 0 0 -55 0 0 1 1 -6.6372028646069145e-16 0 6.6372028646069145e-16 1 -0 9.1999999999999993
1 -9.1999999999999993 0 -33.711309130899998 -0 -0 -1 
1 -47.950000000000003 0 -55 1 -0 0 
1 -39.25 0 -59 -1 0 0 
1 9.1999999999999993 -55 0 -0.25389812841210124 -0.9672309653794342 0 
2 0 0 -59 0 0 1 1 -8.0371973561821148e-16 0 8.0371973561821148e-16 1 -0 8.1500000000000004
1 0 0 -90.047619047619065 -0.25389812841210119 -0 0.96723096537943409 
Polygon3D 0
PolygonOnTriangulations 0
Surfaces 22
1 0 0 13 0 0 1 -1 -1.1546319456101628e-15 0 -1.1546319456101628e-15 1 0 
1 -78.5 0 -72 0 1 0 1 0 0 0 0 -1 
2 0 0 6.5 0 0 1 1 0 -0 -0 1 0 8.6999999999999993
1 0 0 13 0 0 1 -1 -1.6589539448421881e-16 0 -1.6589539448421881e-16 1 0 
2 0 0 -59 0 0 1 1 0 -0 -0 1 0 1.25
1 1.25 1.4432899320127035e-15 13 0 -1 1.1102230246251565e-16 0 -1.1102230246251565e-16 -1 1 0 0 
1 8.6999999999999993 -1 0 1 0 0 0 0 1 0 -1 0 
1 0 0 0 0 0 1 1 0 -0 -0 1 0 
1 0 0 0 0 0 1 1 0 -0 -0 1 0 
2 0 0 0 -0 -0 -1 1 0 0 -0 1 -0 8.6999999999999993
2 0 0 -59 0 0 1 1 -5.2402526762307392e-15 0 5.2402526762307392e-15 1 -0 1.25
2 0 0 13 -0 -0 -1 1 1.0128350400089147e-16 -0 -1.0128350400089147e-16 1 -0 14.25
1 -17.399999999999999 0 0 -0 0 1 1 0 0 0 1 -0 
2 0 0 -10.25 -0 -0 -1 1 -4.3068996644941423e-16 0 4.3068996644941423e-16 1 -0 8.6999999999999993
3 0 0 -33.5 -0 -0 -1 1 -4.2749967040164079e-16 0 4.2749967040164079e-16 1 -0 8.6999999999999993
1.1709447614139714
1 8.6999999999999993 -1 -33.5 -1 0 0 0 0 -1 -0 -1 -0 
3 0 0 -24.106563367928661 -0 -0 -1 1 -1.592172195630323e-16 0 1.592172195630323e-16 1 -0 16.809527115918719
-0.25670833043338548
1 0 0 -59 0 0 1 1 -8.5625043729260431e-16 0 8.5625043729260431e-16 1 -0 
1 8.6999999999999993 -1 -55 -0.9672309653794342 0 0.25389812841210124 -0.25389812841210124 0 -0.9672309653794342 -0 -1 0 
1 0 0 -59 0 0 1 1 -8.0371973561821148e-16 0 8.0371973561821148e-16 1 -0 
2 0 0 -33.711309130899998 -0 -0 -1 1 -4.0681599551501583e-16 0 4.0681599551501583e-16 1 -0 9.1999999999999993
3 0 0 -55 -0 -0 -1 1 -6.6372028646069145e-16 0 6.6372028646069145e-16 1 -0 9.1999999999999993
-0.25670833043338548
Triangulations 0

TShapes 277
Ve
1e-07
1.25 13 0
0 0

0101101
*
Ve
2.00001e-07
8.7 1.4432899320127e-15 13
0 0

0101101
*
Ed
 1e-07 1 1 0
1  1 0 40.5 47.95
2  1 1 0 40.5 47.95
2  2 2 0 40.5 47.95
0

0101000
+277 2 -276 0 *
Ve
3.00002e-07
-8.7 -3.77847216754506e-16 13
0 0

0101101
*
Ed
 1e-07 1 1 0
1  2 0 0 3.14159265358979
2  3 1 0 0 3.14159265358979
2  4 3 0 0 3.14159265358979
2  5 4 0 0 3.14159265358979
0

0101000
+276 0 -274 0 *
Ve
2.00001e-07
-1.25 -1.79986057494128e-16 13
0 0

0101101
*
Ed
 1e-07 1 1 0
1  1 0 30.55 38
2  1 1 0 30.55 38
2  2 2 0 30.55 38
0

0101000
+274 0 -272 0 *
Ed
 1e-07 1 1 0
1  3 0 0 3.14159265358979
2  6 1 0 0 3.14159265358979
2  7 5 0 0 3.14159265358979
0

0101000
+277 2 -272 0 *
Wi

0101000
-275 0 -273 0 -271 0 +270 0 *
Fa
0  1e-07 1 0

0111000
+269 0 *
Ve
1e-07
8.7 0 0
0 0

0101101
*
Ed
 1e-07 1 1 0
1  4 0 -6.5 6.5
2  8 6 0 -6.5 6.5
2  9 7 0 -6.5 6.5
3  10 11CN 3 0 -6.5 6.5
0

0101000
+267 2 -276 0 *
Ve
2.00001e-07
1.25 0 0
0 0

0101101
*
Ed
 1e-07 1 1 0
1  5 0 59 72
3  12 13CN 5 3 59 72
0

0101000
+265 3 -277 0 *
Ed
 1e-07 1 1 0
1  6 0 -47.95 -40.5
2  14 8 0 -47.95 -40.5
2  15 2 0 -47.95 -40.5
0

0101000
+267 2 -265 0 *
Wi

0101000
-266 0 +275 0 +264 2 +263 0 *
Fa
0  1e-07 2 0

0111000
+262 0 *
Ve
2.00001e-07
-8.7 1.0654427152582e-15 0
0 0

0101101
*
Ed
 1e-07 1 1 0
1  7 0 -6.5 6.5
2  16 3 0 -6.5 6.5
2  17 2 0 -6.5 6.5
0

0101000
+260 0 -274 0 *
Ed
 1e-07 1 1 0
1  8 0 0 3.14159265358979
2  18 3 0 0 3.14159265358979
2  19 8 0 0 3.14159265358979
2  20 9 0 0 3.14159265358979
2  21 10 0 0 3.14159265358979
0

0101000
+267 2 -260 0 *
Wi

0101000
-266 0 -273 0 +259 0 +258 0 *
Fa
0  1e-07 3 0

0111000
+257 0 *
Ve
3.00002e-07
-1.25 1.53080849893419e-16 0
0 0

0101101
*
Ed
 1e-07 1 1 0
1  6 0 -38 -30.55
2  14 8 0 -38 -30.55
2  15 2 0 -38 -30.55
0

0101000
+255 0 -260 0 *
Ed
 1e-07 1 1 0
1  9 0 59 72
2  22 5 0 59 72
2  23 2 0 59 72
0

0101000
+255 0 -272 0 *
Wi

0101000
+259 0 +254 0 -253 0 +271 0 *
Fa
0  1e-07 2 0

0111000
+252 0 *
Ed
 1e-07 1 1 0
1  10 0 0 3.14159265358979
2  24 8 0 0 3.14159265358979
2  25 5 0 0 3.14159265358979
2  26 11 0 0 3.14159265358979
0

0101000
+265 0 -255 0 *
Wi

0101000
-264 2 -270 0 +253 0 +250 0 *
Fa
0  1e-07 5 0

0111000
+249 0 *
Wi

0101000
-263 0 -250 0 -254 0 +258 0 *
Fa
0  1e-07 8 0

0111000
+247 0 *
Sh

0101000
-268 0 -261 0 +256 0 -251 0 -248 0 -246 0 *
So

0100000
+245 0 *
Ed
 1e-07 1 1 0
1  3 0 3.14159265358979 6.28318530717959
2  6 1 0 3.14159265358979 6.28318530717959
2  7 5 0 3.14159265358979 6.28318530717959
0

0101000
+272 0 -277 2 *
Ed
 1e-07 1 1 0
1  2 0 3.14159265358979 6.28318530717959
2  3 1 0 3.14159265358979 6.28318530717959
2  4 3 0 3.14159265358979 6.28318530717959
2  5 4 0 3.14159265358979 6.28318530717959
0

0101000
+274 0 -276 0 *
Wi

0101000
+243 0 +271 0 -242 0 +275 0 *
Fa
0  1e-07 1 0

0111000
+241 0 *
Ed
 1e-07 1 1 0
1  10 0 3.14159265358979 6.28318530717959
2  24 8 0 3.14159265358979 6.28318530717959
2  25 5 0 3.14159265358979 6.28318530717959
2  26 11 0 3.14159265358979 6.28318530717959
0

0101000
+255 0 -265 0 *
Wi

0101000
+239 0 -253 0 -243 0 +264 2 *
Fa
0  1e-07 5 0

0111000
+238 0 *
Ed
 1e-07 1 1 0
1  8 0 3.14159265358979 6.28318530717959
2  18 3 0 3.14159265358979 6.28318530717959
2  19 8 0 3.14159265358979 6.28318530717959
2  20 9 0 3.14159265358979 6.28318530717959
2  21 10 0 3.14159265358979 6.28318530717959
0

0101000
+260 0 -267 2 *
Wi

0101000
+236 0 -259 0 -242 0 +266 0 *
Fa
0  1e-07 3 0

0111000
+235 0 *
Wi

0101000
+236 0 +254 0 -239 0 +263 0 *
Fa
0  1e-07 8 0

0111000
+233 0 *
Sh

0101000
-240 0 -237 0 +251 0 +234 0 +261 0 -232 0 *
So

0100000
+231 0 *
Ve
1e-07
14.25 13 0
0 0

0101101
*
Ed
 1e-07 1 1 0
1  11 0 47.95 53.5
2  27 4 0 47.95 53.5
2  28 2 0 47.95 53.5
0

0101000
+276 0 -229 2 *
Ve
2.00001e-07
-14.25 3.01831756772275e-16 13
0 0

0101101
*
Ed
 1e-07 1 1 0
1  12 0 0 3.14159265358979
2  29 4 0 0 3.14159265358979
2  30 12 0 0 3.14159265358979
0

0101000
+229 2 -227 0 *
Ed
 1e-07 1 1 0
1  11 0 25 30.55
2  27 4 0 25 30.55
2  28 2 0 25 30.55
0

0101000
+227 0 -274 0 *
Wi

0101000
-228 0 -226 0 -225 0 +273 0 *
Fa
0  1e-07 4 0

0111000
+224 0 *
Ve
1e-07
14.25 0 0
0 0

0101101
*
Ed
 1e-07 1 1 0
1  13 0 -53.5 -47.95
2  31 9 0 -53.5 -47.95
2  32 2 0 -53.5 -47.95
0

0101000
+222 2 -267 2 *
Ed
 1e-07 1 1 0
1  14 0 0 13
3  33 34CN 12 3 0 13
0

0101000
+229 0 -222 0 *
Wi

0101000
+221 0 +220 2 +228 0 +266 0 *
Fa
0  1e-07 2 0

0111000
+219 0 *
Ve
2.00001e-07
-14.25 1.74512168878498e-15 0
0 0

0101101
*
Ed
 1e-07 1 1 0
1  15 0 0 3.14159265358979
2  35 12 0 0 3.14159265358979
2  36 9 0 0 3.14159265358979
0

0101000
+222 2 -217 0 *
Ed
 1e-07 1 1 0
1  16 0 -0 13
2  37 12 0 -0 13
2  38 2 0 -0 13
0

0101000
+227 0 -217 0 *
Wi

0101000
-220 2 -216 0 +215 0 +226 0 *
Fa
0  1e-07 12 0

0111000
+214 0 *
Ed
 1e-07 1 1 0
1  13 0 -30.55 -25
2  31 9 0 -30.55 -25
2  32 2 0 -30.55 -25
0

0101000
+260 0 -217 0 *
Wi

0101000
+225 0 -215 0 +212 0 -259 0 *
Fa
0  1e-07 2 0

0111000
+211 0 *
Wi

0101000
-221 0 -258 0 -212 0 +216 0 *
Fa
0  1e-07 9 0

0111000
+209 0 *
Sh

0101000
-223 0 -218 0 -213 0 -210 0 -256 0 -208 0 *
So

0100000
+207 0 *
Ed
 1e-07 1 1 0
1  12 0 3.14159265358979 6.28318530717959
2  29 4 0 3.14159265358979 6.28318530717959
2  30 12 0 3.14159265358979 6.28318530717959
0

0101000
+227 0 -229 2 *
Wi

0101000
+242 0 +225 0 -205 0 +228 0 *
Fa
0  1e-07 4 0

0111000
+204 0 *
Ed
 1e-07 1 1 0
1  15 0 3.14159265358979 6.28318530717959
2  35 12 0 3.14159265358979 6.28318530717959
2  36 9 0 3.14159265358979 6.28318530717959
0

0101000
+217 0 -222 2 *
Wi

0101000
+205 0 -215 0 -202 0 +220 2 *
Fa
0  1e-07 12 0

0111000
+201 0 *
Wi

0101000
+202 0 +212 0 -236 0 +221 0 *
Fa
0  1e-07 9 0

0111000
+199 0 *
Sh

0101000
-203 0 -234 0 +210 0 -200 0 +218 0 -198 0 *
So

0100000
+197 0 *
Ve
2.00001e-07
1.25 -1.85962356624714e-15 -16.75
0 0

0101101
*
Ed
 1e-07 1 1 0
1  5 0 42.25 59
3  39 40CN 11 3 42.25 59
0

0101000
+195 3 -265 3 *
Ve
2.00001e-07
8.7 -1.85962356624714e-15 -16.75
0 0

0101101
*
Ed
 1e-07 1 1 0
1  17 0 49.2 56.65
2  41 2 0 49.2 56.65
2  42 13 4 49.2 56.65
0

0101000
+195 0 -193 0 *
Ed
 1e-07 1 1 0
1  18 0 0 16.75
3  43 44CN 10 3 0 16.75
0

0101000
+267 0 -193 3 *
Wi

0101000
-263 0 +194 2 -192 0 +191 2 *
Fa
0  1e-07 2 0

0111000
+190 0 *
Ve
2.00001e-07
-1.25 0 -16.75
0 0

0101101
*
Ed
 1e-07 1 1 0
1  19 0 42.25 59
2  45 11 0 42.25 59
2  46 2 0 42.25 59
0

0101000
+188 0 -255 0 *
Ed
 1e-07 1 1 0
1  20 0 0 3.1415926535898
2  47 11 0 0 3.1415926535898
2  48 13 4 0 3.1415926535898
0

0101000
+195 0 -188 0 *
Wi

0101000
-194 2 -250 0 +187 0 +186 0 *
Fa
0  1e-07 11 0

0111000
+185 0 *
Ve
2.00001e-07
-8.7 0 -16.75
0 0

0101101
*
Ed
 1e-07 1 1 0
1  21 0 -0 16.75
2  49 10 0 -0 16.75
2  50 2 0 -0 16.75
0

0101000
+260 0 -183 0 *
Ed
 1e-07 1 1 0
1  22 0 39.25 46.7
2  51 2 0 39.25 46.7
2  52 13 4 39.25 46.7
0

0101000
+183 0 -188 0 *
Wi

0101000
-182 0 -181 0 -187 0 -254 0 *
Fa
0  1e-07 2 0

0111000
+180 0 *
Ed
 1e-07 1 1 0
1  23 0 3.14159265358979 6.28318530717959
2  53 10 0 3.14159265358979 6.28318530717959
2  54 13 4 3.14159265358979 6.28318530717959
0

0101000
+183 0 -193 0 *
Wi

0101000
-191 2 +178 0 +182 0 +258 0 *
Fa
0  1e-07 10 0

0111000
+177 0 *
Wi

0101000
-186 0 +181 0 -178 0 +192 0 *
Fa
0  1e-07 13 4

0111000
+175 0 *
Sh

0101000
+246 0 -189 0 -184 0 -179 0 -176 0 -174 0 *
So

0100000
+173 0 *
Ve
2.00001e-07
1.25 -3.71924713249427e-15 -33.5
0 0

0101101
*
Ed
 1e-07 1 1 0
1  5 0 25.5 42.25
3  39 40CN 11 3 25.5 42.25
0

0101000
+171 3 -195 3 *
Ve
1.00000000055511e-07
8.7 -33.5 0
0 0

0101101
*
Ed
 1e-07 1 1 0
1  24 0 49.2 56.65
2  55 2 0 49.2 56.65
2  56 13 5 49.2 56.65
0

0101000
+171 0 -169 2 *
Ed
 1e-07 1 1 0
1  18 0 16.75 33.5
3  43 44CN 10 3 16.75 33.5
0

0101000
+193 3 -169 0 *
Wi

0101000
+192 0 +170 2 -168 0 +167 2 *
Fa
0  1e-07 2 0

0111000
+166 0 *
Ve
2.00001e-07
-1.25 0 -33.5
0 0

0101101
*
Ed
 1e-07 1 1 0
1  19 0 25.5 42.25
2  45 11 0 25.5 42.25
2  46 2 0 25.5 42.25
0

0101000
+164 0 -188 0 *
Ed
 1e-07 1 1 0
1  25 0 0 3.1415926535898
2  57 11 0 0 3.1415926535898
2  58 13 5 0 3.1415926535898
0

0101000
+171 0 -164 0 *
Wi

0101000
-170 2 -186 0 +163 0 +162 0 *
Fa
0  1e-07 11 0

0111000
+161 0 *
Ve
2.00001000055511e-07
-8.7 -2.94246240363862e-15 -33.5
0 0

0101101
*
Ed
 1e-07 1 1 0
1  26 0 39.25 46.7
2  59 2 0 39.25 46.7
2  60 13 5 39.25 46.7
0

0101000
+159 0 -164 0 *
Ed
 1e-07 1 1 0
1  27 0 0 3.14159265358979
2  61 10 0 0 3.14159265358979
2  62 14 0 0 3.14159265358979
4 C2 10 0 14 0
2  63 15 0 0 3.14159265358979
0

0101000
+169 2 -159 0 *
Wi

0101000
+168 0 -162 0 +158 0 +157 0 *
Fa
0  1e-07 13 5

0111000
+156 0 *
Ed
 1e-07 1 1 0
1  21 0 16.75 33.5
2  49 10 0 16.75 33.5
2  50 2 0 16.75 33.5
0

0101000
+183 0 -159 0 *
Wi

0101000
-167 2 -157 0 +154 0 -178 0 *
Fa
0  1e-07 10 0

0111000
+153 0 *
Wi

0101000
-154 0 -158 0 -163 0 +181 0 *
Fa
0  1e-07 2 0

0111000
+151 0 *
Sh

0101000
-165 0 +174 0 -160 0 -155 0 -152 0 -150 0 *
So

0100000
+149 0 *
Ve
2.00001e-07
1.25 -6.10622663543836e-15 -55
0 0

0101101
*
Ed
 1e-07 1 1 0
1  5 0 4 25.5
3  39 40CN 11 3 4 25.5
0

0101000
+147 3 -171 3 *
Ve
2.00001e-07
8.7 -6.10622663543836e-15 -55
0 0

0101101
*
Ed
 1e-07 1 1 0
1  28 0 49.2 56.65
2  64 2 0 49.2 56.65
2  65 13 6 49.2 56.65
0

0101000
+147 0 -145 0 *
Ed
 1e-07 1 1 0
1  29 0 23.25 44.75
2  66 6 0 23.25 44.75
2  67 16 0 23.25 44.75
3  68 69CN 14 0 23.25 44.75
0

0101000
+169 2 -145 0 *
Wi

0101000
+146 2 -144 0 +143 0 +168 0 *
Fa
0  1e-07 2 0

0111000
+142 0 *
Ve
2.00001e-07
-1.25 0 -55
0 0

0101101
*
Ed
 1e-07 1 1 0
1  19 0 4 25.5
2  45 11 0 4 25.5
2  46 2 0 4 25.5
0

0101000
+140 0 -164 0 *
Ed
 1e-07 1 1 0
1  30 0 0 3.1415926535898
2  70 11 0 0 3.1415926535898
2  71 13 6 0 3.1415926535898
0

0101000
+147 0 -140 0 *
Wi

0101000
-146 2 -162 0 +139 0 +138 0 *
Fa
0  1e-07 11 0

0111000
+137 0 *
Ve
3.00002e-07
-8.7 -5.5548290069453e-16 -55
0 0

0101101
*
Ed
 1e-07 1 1 0
1  31 0 39.25 46.7
2  72 2 0 39.25 46.7
2  73 13 6 39.25 46.7
0

0101000
+135 0 -140 0 *
Ed
 1e-07 1 1 0
1  32 0 0 3.14159265358979
2  74 14 0 0 3.14159265358979
2  75 17 0 0 3.14159265358979
0

0101000
+145 0 -135 0 *
Wi

0101000
+144 0 -138 0 +134 0 +133 0 *
Fa
0  1e-07 13 6

0111000
+132 0 *
Ed
 1e-07 1 1 0
1  33 0 23.25 44.75
2  76 14 0 23.25 44.75
2  77 2 0 23.25 44.75
0

0101000
+159 0 -135 0 *
Wi

0101000
-143 0 -133 0 +130 0 +157 0 *
Fa
0  1e-07 14 0

0111000
+129 0 *
Wi

0101000
-130 0 -134 0 -139 0 +158 0 *
Fa
0  1e-07 2 0

0111000
+127 0 *
Sh

0101000
-141 0 -136 0 -131 0 -128 0 +155 0 -126 0 *
So

0100000
+125 0 *
Ve
1e-07
1.25 -59 0
0 0

0101101
*
Ed
 1e-07 1 1 0
1  5 0 0 4
3  39 40CN 11 3 0 4
0

0101000
+123 0 -147 3 *
Ve
1e-07
7.65 -6.55031584528842e-15 -59
0 0

0101101
*
Ed
 1e-07 1 1 0
1  34 0 -46.9 -40.5
2  78 18 0 -46.9 -40.5
2  79 2 0 -46.9 -40.5
0

0101000
+121 0 -123 2 *
Ed
 1e-07 1 1 0
1  35 0 31.9400822945657 36.0755991909161
2  80 6 0 31.9400822945657 36.0755991909161
2  81 19 0 31.9400822945657 36.0755991909161
3  82 83CN 17 0 31.9400822945657 36.0755991909161
0

0101000
+145 0 -121 0 *
Wi

0101000
+122 2 +120 0 +119 0 +144 0 *
Fa
0  1e-07 2 0

0111000
+118 0 *
Ve
2.00001e-07
-1.25 4.20585474309033e-17 -59
0 0

0101101
*
Ed
 1e-07 1 1 0
1  19 0 0 4
2  45 11 0 0 4
2  46 2 0 0 4
0

0101000
+116 0 -140 0 *
Ed
 1e-07 1 1 0
1  36 0 0 3.1415926535898
2  84 18 0 0 3.1415926535898
2  85 11 0 0 3.1415926535898
0

0101000
+123 2 -116 0 *
Wi

0101000
-122 2 -138 0 +115 0 +114 0 *
Fa
0  1e-07 11 0

0111000
+113 0 *
Ve
2.00001e-07
-7.65 6.92605735930191e-16 -59
0 0

0101101
*
Ed
 1e-07 1 1 0
1  34 0 -38 -31.6
2  78 18 0 -38 -31.6
2  79 2 0 -38 -31.6
0

0101000
+116 0 -111 0 *
Ed
 1e-07 1 1 0
1  37 0 0 3.14159265358979
2  86 17 0 0 3.14159265358979
2  87 18 0 0 3.14159265358979
2  88 20 0 0 3.14159265358979
0

0101000
+121 0 -111 0 *
Wi

0101000
-120 0 -114 0 -110 0 +109 0 *
Fa
0  1e-07 18 0

0111000
+108 0 *
Ed
 1e-07 1 1 0
1  38 0 30.1301945305532 34.2657114269037
2  89 17 0 30.1301945305532 34.2657114269037
2  90 2 0 30.1301945305532 34.2657114269037
0

0101000
+111 0 -135 0 *
Wi

0101000
-119 0 -109 0 -106 0 +133 0 *
Fa
0  1e-07 17 0

0111000
+105 0 *
Wi

0101000
+106 0 +110 0 -115 0 +134 0 *
Fa
0  1e-07 2 0

0111000
+103 0 *
Sh

0101000
-117 0 -112 0 -107 0 -104 0 +131 0 -102 0 *
So

0100000
+101 0 *
Ed
 1e-07 1 1 0
1  39 0 0 3.14159265358979
2  91 10 0 0 3.14159265358979
2  92 13 4 0 3.14159265358979
0

0101000
+193 0 -183 0 *
Wi

0101000
-182 0 +99 0 +191 2 +236 0 *
Fa
0  1e-07 10 0

0111000
+98 0 *
Ed
 1e-07 1 1 0
1  40 0 3.14159265358979 6.28318530717959
2  93 11 0 3.14159265358979 6.28318530717959
2  94 13 4 3.14159265358979 6.28318530717959
0

0101000
+188 0 -195 0 *
Wi

0101000
-187 0 -239 0 +194 2 +96 0 *
Fa
0  1e-07 11 0

0111000
+95 0 *
Wi

0101000
-192 0 -99 0 -181 0 -96 0 *
Fa
0  1e-07 13 4

0111000
+93 0 *
Sh

0101000
+232 0 -97 0 +179 0 -94 0 +189 0 -92 0 *
So

0100000
+91 0 *
Ed
 1e-07 1 1 0
1  27 0 3.14159265358979 6.28318530717959
2  61 10 0 3.14159265358979 6.28318530717959
2  62 14 0 3.14159265358979 6.28318530717959
4 C2 10 0 14 0
2  63 15 0 3.14159265358979 6.28318530717959
0

0101000
+159 0 -169 2 *
Wi

0101000
-154 0 -89 0 +167 2 -99 0 *
Fa
0  1e-07 10 0

0111000
+88 0 *
Ed
 1e-07 1 1 0
1  41 0 3.14159265358979 6.28318530717959
2  95 11 0 3.14159265358979 6.28318530717959
2  96 13 5 3.14159265358979 6.28318530717959
0

0101000
+164 0 -171 0 *
Wi

0101000
+89 0 -158 0 -86 0 -168 0 *
Fa
0  1e-07 13 5

0111000
+85 0 *
Wi

0101000
-163 0 -96 0 +170 2 +86 0 *
Fa
0  1e-07 11 0

0111000
+83 0 *
Sh

0101000
-87 0 +150 0 -84 0 +165 0 +92 0 -82 0 *
So

0100000
+81 0 *
Ed
 1e-07 1 1 0
1  32 0 3.14159265358979 6.28318530717959
2  74 14 0 3.14159265358979 6.28318530717959
2  75 17 0 3.14159265358979 6.28318530717959
0

0101000
+135 0 -145 0 *
Wi

0101000
+89 0 -130 0 -79 0 +143 0 *
Fa
0  1e-07 14 0

0111000
+78 0 *
Ed
 1e-07 1 1 0
1  42 0 3.14159265358979 6.28318530717959
2  97 11 0 3.14159265358979 6.28318530717959
2  98 13 6 3.14159265358979 6.28318530717959
0

0101000
+140 0 -147 0 *
Wi

0101000
+79 0 -134 0 -76 0 -144 0 *
Fa
0  1e-07 13 6

0111000
+75 0 *
Wi

0101000
-139 0 -86 0 +146 2 +76 0 *
Fa
0  1e-07 11 0

0111000
+73 0 *
Sh

0101000
+126 0 -77 0 -74 0 -72 0 +84 0 +141 0 *
So

0100000
+71 0 *
Ed
 1e-07 1 1 0
1  37 0 3.14159265358979 6.28318530717959
2  86 17 0 3.14159265358979 6.28318530717959
2  87 18 0 3.14159265358979 6.28318530717959
2  88 20 0 3.14159265358979 6.28318530717959
0

0101000
+111 0 -121 0 *
Wi

0101000
+79 0 +106 0 -69 0 +119 0 *
Fa
0  1e-07 17 0

0111000
+68 0 *
Ed
 1e-07 1 1 0
1  36 0 3.1415926535898 6.28318530717959
2  84 18 0 3.1415926535898 6.28318530717959
2  85 11 0 3.1415926535898 6.28318530717959
0

0101000
+116 0 -123 2 *
Wi

0101000
+69 0 +110 0 -66 0 +120 0 *
Fa
0  1e-07 18 0

0111000
+65 0 *
Wi

0101000
-115 0 -76 0 +122 2 +66 0 *
Fa
0  1e-07 11 0

0111000
+63 0 *
Sh

0101000
+102 0 -67 0 -64 0 -62 0 +74 0 +117 0 *
So

0100000
+61 0 *
Ve
1e-07
9.2 -33.7113091309 0
0 0

0101101
*
Ed
 1e-07 1 1 0
1  43 0 0 0.542818154451113
3  99 100CN 15 3 0 0.542818154451113
0

0101000
+169 0 -59 0 *
Ve
2.00001e-07
-9.2 7.83761483333134e-16 -33.7113091309
0 0

0101101
*
Ed
 1e-07 1 1 0
1  44 0 0 3.14159265358979
2  101 15 0 0 3.14159265358979
2  102 21 0 0 3.14159265358979
0

0101000
+59 2 -57 0 *
Ed
 1e-07 1 1 0
1  45 0 9.44503588744937 9.98785404190048
2  103 15 0 9.44503588744937 9.98785404190048
2  104 2 0 9.44503588744937 9.98785404190048
0

0101000
+159 0 -57 0 *
Wi

0101000
-58 2 -56 0 +55 0 +157 0 *
Fa
0  1e-07 15 0

0111000
+54 0 *
Ve
1e-07
9.2 -55 0
0 0

0101101
*
Ed
 1e-07 1 1 0
1  46 0 56.65 57.15
2  105 2 0 56.65 57.15
2  106 13 6 56.65 57.15
0

0101000
+145 0 -52 2 *
Ed
 1e-07 1 1 0
1  47 0 0 21.2886908691
3  107 108CN 21 3 0 21.2886908691
0

0101000
+59 0 -52 0 *
Wi

0101000
-143 0 -51 0 +50 2 +58 2 *
Fa
0  1e-07 2 0

0111000
+49 0 *
Ve
2.00001e-07
-9.2 -9.38339770587225e-16 -55
0 0

0101101
*
Ed
 1e-07 1 1 0
1  48 0 0 3.14159265358979
2  109 21 0 0 3.14159265358979
2  110 22 0 0 3.14159265358979
0

0101000
+52 2 -47 0 *
Ed
 1e-07 1 1 0
1  49 0 -0 21.2886908691
2  111 21 0 -0 21.2886908691
2  112 2 0 -0 21.2886908691
0

0101000
+57 0 -47 0 *
Wi

0101000
-50 2 -46 0 +45 0 +56 0 *
Fa
0  1e-07 21 0

0111000
+44 0 *
Ed
 1e-07 1 1 0
1  50 0 38.75 39.25
2  113 2 0 38.75 39.25
2  114 13 6 38.75 39.25
0

0101000
+47 0 -135 0 *
Wi

0101000
-55 0 -45 0 -42 0 +130 0 *
Fa
0  1e-07 2 0

0111000
+41 0 *
Wi

0101000
-133 0 +42 0 +46 0 +51 0 *
Fa
0  1e-07 13 6

0111000
+39 0 *
Sh

0101000
-53 0 -48 0 -43 0 -40 0 +128 0 -38 0 *
So

0100000
+37 0 *
Ve
1e-07
8.15 -59 0
0 0

0101101
*
Ed
 1e-07 1 1 0
1  51 0 -47.4 -46.9
2  115 20 0 -47.4 -46.9
2  116 2 0 -47.4 -46.9
0

0101000
+35 2 -121 0 *
Ed
 1e-07 1 1 0
1  52 0 0 4.13551689635044
3  117 118CN 22 3 0 4.13551689635044
0

0101000
+52 0 -35 0 *
Wi

0101000
-119 0 +34 0 +33 2 +51 0 *
Fa
0  1e-07 2 0

0111000
+32 0 *
Ve
2.00001e-07
-8.15 3.09748866037496e-16 -59
0 0

0101101
*
Ed
 1e-07 1 1 0
1  51 0 -31.6 -31.1
2  115 20 0 -31.6 -31.1
2  116 2 0 -31.6 -31.1
0

0101000
+111 0 -30 0 *
Ed
 1e-07 1 1 0
1  53 0 0 3.14159265358979
2  119 22 0 0 3.14159265358979
2  120 20 0 0 3.14159265358979
0

0101000
+35 2 -30 0 *
Wi

0101000
-34 0 -109 0 -29 0 +28 0 *
Fa
0  1e-07 20 0

0111000
+27 0 *
Ed
 1e-07 1 1 0
1  54 0 32.0994882907201 36.2350051870706
2  121 22 0 32.0994882907201 36.2350051870706
2  122 2 0 32.0994882907201 36.2350051870706
0

0101000
+30 0 -47 0 *
Wi

0101000
-33 2 -28 0 -25 0 +46 0 *
Fa
0  1e-07 22 0

0111000
+24 0 *
Wi

0101000
+42 0 +25 0 +29 0 -106 0 *
Fa
0  1e-07 2 0

0111000
+22 0 *
Sh

0101000
-31 0 +104 0 -26 0 -23 0 +38 0 -21 0 *
So

0100000
+20 0 *
Ed
 1e-07 1 1 0
1  44 0 3.14159265358979 6.28318530717959
2  101 15 0 3.14159265358979 6.28318530717959
2  102 21 0 3.14159265358979 6.28318530717959
0

0101000
+57 0 -59 2 *
Wi

0101000
+89 0 -55 0 -18 0 +58 2 *
Fa
0  1e-07 15 0

0111000
+17 0 *
Ed
 1e-07 1 1 0
1  48 0 3.14159265358979 6.28318530717959
2  109 21 0 3.14159265358979 6.28318530717959
2  110 22 0 3.14159265358979 6.28318530717959
0

0101000
+47 0 -52 2 *
Wi

0101000
+18 0 -45 0 -15 0 +50 2 *
Fa
0  1e-07 21 0

0111000
+14 0 *
Wi

0101000
-51 0 +15 0 -42 0 -79 0 *
Fa
0  1e-07 13 6

0111000
+12 0 *
Sh

0101000
-16 0 +77 0 +40 0 -13 0 +48 0 -11 0 *
So

0100000
+10 0 *
Ed
 1e-07 1 1 0
1  53 0 3.14159265358979 6.28318530717959
2  119 22 0 3.14159265358979 6.28318530717959
2  120 20 0 3.14159265358979 6.28318530717959
0

0101000
+30 0 -35 2 *
Wi

0101000
+15 0 +25 0 -8 0 +33 2 *
Fa
0  1e-07 22 0

0111000
+7 0 *
Wi

0101000
+8 0 +29 0 -69 0 +34 0 *
Fa
0  1e-07 20 0

0111000
+5 0 *
Sh

0101000
+21 0 +11 0 -6 0 -4 0 +67 0 +31 0 *
So

0100000
+3 0 *
Co

1100000
+244 0 +230 0 +206 0 +196 0 +172 0 +148 0 +124 0 +100 0 +90 0 +80 0 
+70 0 +60 0 +36 0 +19 0 +9 0 +2 0 *

+1 1 