
CASCADE Topology V1, (c) Matra-Datavision
Locations 0
Curve2ds 32
7 0 0  1 2 2  4.788278205588 0  5.2098401385170003 0 
 4.788278205588 2 5.2098401385170003 2
7 0 0  1 2 2  4.2149378222529998 0  8.3514327921059994 0 
 4.2149378222529998 2 8.3514327921059994 2
7 0 0  1 2 2  1.073345168663 0  1.5013870935939999 0 
 1.073345168663 2 1.5013870935939999 2
7 0 0  1 2 2  1.5013870935939999 0  2.1966580997439999 0 
 1.5013870935939999 2 2.1966580997439999 2
7 0 0  1 2 2  0.944934553846 0  5.3382507533329999 0 
 0.944934553846 2 5.3382507533329999 2
7 0 0  1 2 2  4.0865272074360002 0  4.9161778732129999 0 
 4.0865272074360002 2 4.9161778732129999 2
7 0 0  1 2 2  6.2831853071800001 0.020000199552965  0 0.020000199552965 
 1.570796326795 2 7.8539816339739996 2
7 0 0  1 2 2  6.2831853071800001 0.020000199552965  0 0.020000199552965 
 1.570796326795 2 7.8539816339739996 2
7 0 0  1 2 2  4.788278205588 0  4.788278205588 0.039999999105930002 
 0 2 0.039999999105924999 2
7 0 0  1 2 2  4.788278205588 0.039999999105930002  5.2098401385170003 0.039999999105930002 
 4.788278205588 2 5.2098401385170003 2
7 0 0  1 2 2  5.2098401385170003 0  5.2098401385170003 0.039999999105930002 
 0 2 0.039999999105924999 2
7 0 0  1 2 2  4.2149378222529998 0  4.2149378222529998 -0.039999999105930002 
 0 2 0.039999999105924999 2
7 0 0  1 2 2  4.2149378222529998 -0.039999999105930002  8.3514327921059994 -0.039999999105930002 
 4.2149378222529998 2 8.3514327921059994 2
7 0 0  1 2 2  8.3514327921059994 0  8.3514327921059994 -0.039999999105930002 
 0 2 0.039999999105924999 2
7 0 0  1 2 2  1.073345168663 0  1.073345168663 0.039999999105930002 
 0 2 0.039999999105924999 2
7 0 0  1 2 2  1.073345168663 0.039999999105930002  1.5013870935939999 0.039999999105930002 
 1.073345168663 2 1.5013870935939999 2
7 0 0  1 2 2  1.5013870935939999 0  1.5013870935939999 0.039999999105930002 
 0 2 0.039999999105924999 2
7 0 0  1 2 2  1.5013870935939999 0  1.5013870935939999 0.039999999105930002 
 0 2 0.039999999105924999 2
7 0 0  1 2 2  1.5013870935939999 0.039999999105930002  2.1966580997439999 0.039999999105930002 
 1.5013870935939999 2 2.1966580997439999 2
7 0 0  1 2 2  2.1966580997439999 0  2.1966580997439999 0.039999999105930002 
 0 2 0.039999999105924999 2
7 0 0  1 2 2  0.944934553846 0  0.944934553846 -0.039999999105930002 
 0 2 0.039999999105924999 2
7 0 0  1 2 2  0.944934553846 -0.039999999105930002  5.3382507533329999 -0.039999999105930002 
 0.944934553846 2 5.3382507533329999 2
7 0 0  1 2 2  5.3382507533329999 0  5.3382507533329999 -0.039999999105930002 
 0 2 0.039999999105924999 2
7 0 0  1 2 2  4.0865272074360002 0  4.0865272074360002 0.039999999105930002 
 0 2 0.039999999105924999 2
7 0 0  1 2 2  4.0865272074360002 0.039999999105930002  4.9161778732129999 0.039999999105930002 
 4.0865272074360002 2 4.9161778732129999 2
7 0 0  1 2 2  4.9161778732129999 0  4.9161778732129999 0.039999999105930002 
 0 2 0.039999999105924999 2
7 0 0  1 2 2  6.2831853071800001 0.020000199552965  6.2831853071800001 0.060000198658895006 
 0.020000199552970003 2 0.060000198658894999 2
7 0 0  1 2 2  0 0.020000199552965  0 0.060000198658895006 
 0.020000199552970003 2 0.060000198658894999 2
7 0 0  1 2 2  6.2831853071800001 0.060000198658895006  0 0.060000198658895006 
 1.570796326795 2 7.8539816339739996 2
7 0 0  1 2 2  6.2831853071800001 0.020000199552965  6.2831853071800001 0.060000198658895006 
 0.020000199552970003 2 0.060000198658894999 2
7 0 0  1 2 2  0 0.020000199552965  0 0.060000198658895006 
 0.020000199552970003 2 0.060000198658894999 2
7 0 0  1 2 2  6.2831853071800001 0.060000198658895006  0 0.060000198658895006 
 1.570796326795 2 7.8539816339739996 2
Curves 30
2 0.057963432099881002 0.10218666633037 -0.019999999552959998 0 0 1 1 0 -0 -0 1 0 0.074466478447737003
2 0.11481915663942001 -0.00252048112452 -0.019999999552959998 0 0 -1 1 0 0 0 -1 0 0.044681161650829998
2 0.053295957524102003 -0.1158233848133 -0.019999999552959998 0 0 1 1 0 -0 -0 1 0 0.084247702509660002
1 0.059138831836925004 -0.031778538463840003 -0.019999999552959998 -0.99759214608755542 0.069353515155509096 0 
2 -0.074126212430210003 -0.0471383620928 -0.019999999552959998 0 0 1 1 0 -0 -0 1 0 0.024565238684828
2 -0.1059604867346 -0.0030951034277679999 -0.019999999552959998 0 0 -1 1 0 0 0 -1 0 0.029778387016109003
2 -0.07655497863763 0.037587915977931999 -0.019999999552959998 0 0 1 1 0 -0 -0 1 0 0.02041914254867
1 -0.072422526776789994 0.017591310665011 -0.019999999552959998 0.99712179448755867 0.075816402960776436 0 
2 -0.10647201538080001 -0.0028093000873920001 -0.019999999552959998 0 0 -1 0 1 0 1 -0 0 0.015057678156153002
2 0.11857245862484 -0.0046067601069809993 -0.019999999552959998 0 0 -1 0 1 0 1 -0 0 0.023404166834120003
1 0.063609212636948007 0.027934517711401 -0.019999999552959998 0 0 1 
2 0.057963432099881002 0.10218666633037 0.019999999552965001 0 0 1 1 0 -0 -0 1 0 0.074466478447737003
1 0.093497879803181 0.036745399236679001 -0.019999999552959998 0 0 1 
2 0.11481915663942001 -0.00252048112452 0.019999999552965001 0 0 -1 1 0 0 0 -1 0 0.044681161650829998
1 0.093497879803181 -0.04178636148572 -0.019999999552959998 0 0 1 
2 0.053295957524102003 -0.1158233848133 0.019999999552965001 0 0 1 1 0 -0 -0 1 0 0.084247702509660002
1 0.059138831836925004 -0.031778538463840003 -0.019999999552959998 0 0 1 
1 0.059138831836925004 -0.031778538463840003 0.019999999552965001 -0.99759214608755542 0.069353515155509096 0 
1 -0.072422526776789994 -0.022632272914050001 -0.019999999552959998 0 0 1 
2 -0.074126212430210003 -0.0471383620928 0.019999999552965001 0 0 1 1 0 -0 -0 1 0 0.024565238684828
1 -0.088516429066650013 -0.027229253202670001 -0.019999999552959998 0 0 1 
2 -0.1059604867346 -0.0030951034277679999 0.019999999552965001 0 0 -1 1 0 0 0 -1 0 0.029778387016109003
1 -0.088516429066650013 0.021039046347140999 -0.019999999552959998 0 0 1 
2 -0.07655497863763 0.037587915977931999 0.019999999552965001 0 0 1 1 0 -0 -0 1 0 0.02041914254867
1 -0.072422526776789994 0.017591310665011 -0.019999999552959998 0 0 1 
1 -0.072422526776789994 0.017591310665011 0.019999999552965001 0.99712179448755867 0.075816402960776436 0 
1 -0.091414337224700007 -0.0028093000873920001 -0.040000199105930001 0 0 1 
2 -0.10647201538080001 -0.0028093000873920001 0.019999999552965001 0 0 -1 0 1 0 1 -0 0 0.015057678156153002
1 0.14197662545896 -0.0046067601069809993 -0.040000199105930001 0 0 1 
2 0.11857245862484 -0.0046067601069809993 0.019999999552965001 0 0 -1 0 1 0 1 -0 0 0.023404166834120003
Polygon3D 0
PolygonOnTriangulations 0
Surfaces 12
1 0 0 -0.019999999552959998 0 0 1 1 0 -0 -0 1 0 
2 0.057963432099881002 0.10218666633037 -0.019999999552959998 0 0 1 1 0 -0 -0 1 0 0.074466478447737003
2 0.11481915663942001 -0.00252048112452 -0.019999999552959998 0 0 -1 1 0 0 0 -1 0 0.044681161650829998
2 0.053295957524102003 -0.1158233848133 -0.019999999552959998 0 0 1 1 0 -0 -0 1 0 0.084247702509660002
2 -0.074126212430210003 -0.0471383620928 -0.019999999552959998 0 0 1 1 0 -0 -0 1 0 0.024565238684828
2 -0.1059604867346 -0.0030951034277679999 -0.019999999552959998 0 0 -1 1 0 0 0 -1 0 0.029778387016109003
2 -0.07655497863763 0.037587915977931999 -0.019999999552959998 0 0 1 1 0 -0 -0 1 0 0.02041914254867
2 -0.10647201538080001 -0.0028093000873920001 -0.040000199105930001 0 0 1 1 0 -0 -0 1 0 0.015057678156153002
2 0.11857245862484 -0.0046067601069809993 -0.040000199105930001 0 0 1 1 0 -0 -0 1 0 0.023404166834120003
1 -0.072422526776789994 0.017591310665011 -0.019999999552959998 -0.075816402960776449 0.99712179448755867 0 0.99712179448755867 0.075816402960776449 0 0 0 -1 
1 0.059138831836925004 -0.031778538463840003 -0.019999999552959998 -0.069353515155509096 -0.99759214608755542 0 -0.99759214608755542 0.069353515155509096 0 -0 0 -1 
1 0 0 0.019999999552965001 0 0 1 1 0 -0 -0 1 0 
Triangulations 0

TShapes 80
Ve
1.0001000025e-07
0.063609212636948 0.027934517711401 -0.01999999955296
0 0

0101101
*
Ve
1.00005e-07
0.093497879803181 0.036745399236679 -0.01999999955296
0 0

0101101
*
Ed
 1.00005e-07 1 1 0
1  1 0 4.78827820558768 5.20984013851675
2  1 2 0 4.78827820558768 5.20984013851675
0

0101000
+80 0 -79 0 *
Ve
1.00005e-07
0.093497879803181 -0.04178636148572 -0.01999999955296
0 0

0101101
*
Ed
 1.00005e-07 1 1 0
1  2 0 4.21493782225269 8.35143279210647
2  2 3 0 4.21493782225269 8.35143279210647
0

0101000
+79 0 -77 0 *
Ve
1.0001000025e-07
0.059138831836925 -0.03177853846384 -0.01999999955296
0 0

0101101
*
Ed
 1.00005e-07 1 1 0
1  3 0 1.07334516866233 1.50138709359361
2  3 4 0 1.07334516866233 1.50138709359361
0

0101000
+77 0 -75 0 *
Ve
1.0001000025e-07
-0.07242252677679 -0.02263227291405 -0.01999999955296
0 0

0101101
*
Ed
 1.0001000025e-07 1 1 0
1  4 0 0 0.131878903748074
0

0101000
+75 0 -73 0 *
Ve
1.00005e-07
-0.08851642906665 -0.02722925320267 -0.01999999955296
0 0

0101101
*
Ed
 1.00005e-07 1 1 0
1  5 0 1.501387093594 2.19665809974347
2  4 5 0 1.501387093594 2.19665809974347
0

0101000
+73 0 -71 0 *
Ve
1.00005e-07
-0.08851642906665 0.021039046347141 -0.01999999955296
0 0

0101101
*
Ed
 1.00005e-07 1 1 0
1  6 0 0.944934553846607 5.33825075333284
2  5 6 0 0.944934553846607 5.33825075333284
0

0101000
+71 0 -69 0 *
Ve
1.0001000025e-07
-0.07242252677679 0.017591310665011 -0.01999999955296
0 0

0101101
*
Ed
 1.00005e-07 1 1 0
1  7 0 4.08652720743619 4.91617787321301
2  6 7 0 4.08652720743619 4.91617787321301
0

0101000
+69 0 -67 0 *
Ed
 1.0001000025e-07 1 1 0
1  8 0 0 0.136424396864826
0

0101000
+67 0 -80 0 *
Wi

0101000
+78 0 +76 0 +74 0 +72 0 +70 0 +68 0 +66 0 +65 0 *
Ve
1.00005e-07
-0.0914143372247 -0.002809300087392 -0.01999999955296
0 0

0101101
*
Ed
 1.00005e-07 1 1 0
1  9 0 1.5707963267949 7.85398163397448
2  7 8 0 1.5707963267949 7.85398163397448
0

0101100
+63 0 -63 0 *
Wi

0101000
+62 0 *
Ve
1.00005e-07
0.14197662545896 -0.004606760106981 -0.01999999955296
0 0

0101101
*
Ed
 1.00005e-07 1 1 0
1  10 0 1.5707963267949 7.85398163397448
2  8 9 0 1.5707963267949 7.85398163397448
0

0101100
+60 0 -60 0 *
Wi

0101000
+59 0 *
Fa
0  1e-07 1 0

0111000
-64 0 +61 0 +58 0 *
Ve
1.0001000025e-07
0.063609212636948 0.027934517711401 0.019999999552965
0 0

0101101
*
Ed
 1.00005e-07 1 1 0
1  11 0 0 0.039999999105925
2  9 2 0 0 0.039999999105925
4 G1 2 0 10 0
0

0101000
+80 0 -56 0 *
Ve
1.00005e-07
0.093497879803181 0.036745399236679 0.019999999552965
0 0

0101101
*
Ed
 1.00005e-07 1 1 0
1  12 0 4.78827820558768 5.20984013851675
2  10 2 0 4.78827820558768 5.20984013851675
0

0101000
+56 0 -54 0 *
Ed
 1e-07 1 1 0
1  13 0 0 0.039999999105925
2  11 2 0 0 0.039999999105925
2  12 3 0 0 0.039999999105925
4 G1 2 0 3 0
0

0101000
+79 0 -54 0 *
Wi

0101000
+55 0 +53 0 -52 0 -78 0 *
Fa
0  1e-07 2 0

0111000
-51 0 *
Ve
1.00005e-07
0.093497879803181 -0.04178636148572 0.019999999552965
0 0

0101101
*
Ed
 1.00005e-07 1 1 0
1  14 0 4.21493782225269 8.35143279210647
2  13 3 0 4.21493782225269 8.35143279210647
0

0101000
+54 0 -49 0 *
Ed
 1e-07 1 1 0
1  15 0 0 0.039999999105925
2  14 3 0 0 0.039999999105925
2  15 4 0 0 0.039999999105925
4 G1 3 0 4 0
0

0101000
+77 0 -49 0 *
Wi

0101000
+52 0 +48 0 -47 0 -76 0 *
Fa
0  1e-07 3 0

0111000
+46 0 *
Ve
1.0001000025e-07
0.059138831836925 -0.03177853846384 0.019999999552965
0 0

0101101
*
Ed
 1.00005e-07 1 1 0
1  16 0 1.07334516866233 1.50138709359361
2  16 4 0 1.07334516866233 1.50138709359361
0

0101000
+49 0 -44 0 *
Ed
 1.00005e-07 1 1 0
1  17 0 0 0.039999999105925
2  17 4 0 0 0.039999999105925
4 G1 4 0 11 0
0

0101000
+75 0 -44 0 *
Wi

0101000
+47 0 +43 0 -42 0 -74 0 *
Fa
0  1e-07 4 0

0111000
-41 0 *
Ve
1.0001000025e-07
-0.07242252677679 -0.02263227291405 0.019999999552965
0 0

0101101
*
Ed
 1.0001000025e-07 1 1 0
1  18 0 0 0.131878903748074
0

0101000
+44 0 -39 0 *
Ed
 1.00005e-07 1 1 0
1  19 0 0 0.039999999105925
2  18 5 0 0 0.039999999105925
4 G1 11 0 5 0
0

0101000
+73 0 -39 0 *
Wi

0101000
+42 0 +38 0 -37 0 -72 0 *
Fa
0  1e-07 11 0

0111000
+36 0 *
Ve
1.00005e-07
-0.08851642906665 -0.02722925320267 0.019999999552965
0 0

0101101
*
Ed
 1.00005e-07 1 1 0
1  20 0 1.501387093594 2.19665809974347
2  19 5 0 1.501387093594 2.19665809974347
0

0101000
+39 0 -34 0 *
Ed
 1e-07 1 1 0
1  21 0 0 0.039999999105925
2  20 5 0 0 0.039999999105925
2  21 6 0 0 0.039999999105925
4 G1 5 0 6 0
0

0101000
+71 0 -34 0 *
Wi

0101000
+37 0 +33 0 -32 0 -70 0 *
Fa
0  1e-07 5 0

0111000
-31 0 *
Ve
1.00005e-07
-0.08851642906665 0.021039046347141 0.019999999552965
0 0

0101101
*
Ed
 1.00005e-07 1 1 0
1  22 0 0.944934553846607 5.33825075333284
2  22 6 0 0.944934553846607 5.33825075333284
0

0101000
+34 0 -29 0 *
Ed
 1e-07 1 1 0
1  23 0 0 0.039999999105925
2  23 6 0 0 0.039999999105925
2  24 7 0 0 0.039999999105925
4 G1 6 0 7 0
0

0101000
+69 0 -29 0 *
Wi

0101000
+32 0 +28 0 -27 0 -68 0 *
Fa
0  1e-07 6 0

0111000
+26 0 *
Ve
1.0001000025e-07
-0.07242252677679 0.017591310665011 0.019999999552965
0 0

0101101
*
Ed
 1.00005e-07 1 1 0
1  24 0 4.08652720743619 4.91617787321301
2  25 7 0 4.08652720743619 4.91617787321301
0

0101000
+29 0 -24 0 *
Ed
 1.00005e-07 1 1 0
1  25 0 0 0.039999999105925
2  26 7 0 0 0.039999999105925
0

0101000
+67 0 -24 0 *
Wi

0101000
+27 0 +23 0 -22 0 -66 0 *
Fa
0  1e-07 7 0

0111000
-21 0 *
Ed
 1.0001000025e-07 1 1 0
1  26 0 0 0.136424396864826
0

0101000
+24 0 -56 0 *
Wi

0101000
+22 0 +19 0 -55 0 -65 0 *
Fa
0  1e-07 10 0

0111000
+18 0 *
Ve
1.00005e-07
-0.0914143372247 -0.002809300087392 0.019999999552965
0 0

0101101
*
Ed
 1e-07 1 1 0
1  27 0 0.02000019955297 0.060000198658895
3  27 28G1 8 0 0.02000019955297 0.060000198658895
0

0101000
+63 0 -16 0 *
Ed
 1.00005e-07 1 1 0
1  28 0 1.5707963267949 7.85398163397448
2  29 8 0 1.5707963267949 7.85398163397448
0

0101100
+16 0 -16 0 *
Wi

0101000
+15 0 -14 0 -15 0 +62 0 *
Fa
0  1e-07 8 0

0111000
-13 0 *
Ve
1.00005e-07
0.14197662545896 -0.004606760106981 0.019999999552965
0 0

0101101
*
Ed
 1e-07 1 1 0
1  29 0 0.02000019955297 0.060000198658895
3  30 31G1 9 0 0.02000019955297 0.060000198658895
0

0101000
+60 0 -11 0 *
Ed
 1.00005e-07 1 1 0
1  30 0 1.5707963267949 7.85398163397448
2  32 9 0 1.5707963267949 7.85398163397448
0

0101100
+11 0 -11 0 *
Wi

0101000
+10 0 -9 0 -10 0 +59 0 *
Fa
0  1e-07 9 0

0111000
-8 0 *
Wi

0101000
+53 0 +48 0 +43 0 +38 0 +33 0 +28 0 +23 0 +19 0 *
Wi

0101000
+14 0 *
Wi

0101000
+9 0 *
Fa
0  1e-07 12 0

0111000
-6 0 +5 0 +4 0 *
Sh

0101100
-57 0 -50 0 +45 0 -40 0 +35 0 -30 0 +25 0 -20 0 +17 0 -12 0 
-7 0 +3 0 *
So

0100000
+2 0 *

+1 0 
