
CASCADE Topology V1, (c) Matra-Datavision
Locations 8
1
1.11022302462516e-16               0               1               0 
              0               1               0               0 
             -1               0 1.11022302462516e-16             400 
1
              1               0               0             190 
              0               1               0               0 
              0               0               1             380 
1
              1               0               0             190 
              0               1               0               0 
              0               0               1             220 
2  1 -1 0
2  2 -1 0
2  2 1 3 -1 0
2  3 -1 0
2  3 1 2 -1 0
Curve2ds 38
1 0 800 1 0 
2 0 0 1 0 -0 1 100
7 0 0  8 23 4  5.7595865315812871 400  5.7595865315812871 396.4531264233774  5.7629069293083175 392.92833608277681  5.7694749436140853 389.51230084494648  5.7788372822703087 386.24424709027198  5.7905468978363102 383.14348794697975  5.8042009023008854 380.21545709727701  5.8195042660091962 377.45508725218542  5.8543892203674739 372.04985730479018  5.8742056575325181 369.42820567367704  5.89564313364939 366.96284011636072  5.9186431153591617 364.64644480202827  5.9431911157077195 362.47799188863092  5.969306315324145 360.46051727651405  5.997060367620036 358.60197280754011  6.0537021647479774 355.37514358939779  6.082311505809308 353.97770142062154  6.1125302711814751 352.74076825489283  6.1443482006914323 351.69171562635694  6.1776550181455665 350.86267948835513  6.212224813535169 350.28862243838159  6.2476523776714217 350.00000035532935  6.2831853071795862 350 
 0 9 0.32715155003298801 7 0.67848367377663077 7 1 9
7 0 0  8 23 4  4.7123889803846897 86.602540378443834  4.7833264519171417 86.602540378443834  4.8538221133434041 86.768554360301735  4.9226876586617614 87.096991301102832  4.9896492478955832 87.559643674082267  5.0546217349220237 88.124612677936994  5.1177137403899753 88.763476885346691  5.1791713917111073 89.453947255999054  5.3042530285650589 90.961452312325122  5.3677102240744938 91.784169844339971  5.4305599185356694 92.631457510690808  5.4932602887666402 93.488642372673752  5.5562165742572436 94.341495300176803  5.6198260616794098 95.175736723592024  5.6845162320744418 95.976668732951339  5.8116848841313695 97.413920783548804  5.8739248236055932 98.05887438439521  5.9379452637785519 98.646808131231438  6.0038837402756018 99.157716247916923  6.071712633333922 99.568620170602287  6.1412648768472247 99.855699662295933  6.2121194481632589 99.999999822335369  6.2831853071795862 100 
 0 9 0.32715155003298801 7 0.67848367377663077 7 1 9
1 6.2831853071795862 -0 0 1 
1 0 -0 0 1 
1 0 0 1 0 
2 0 0 1 0 -0 1 100
7 0 0  8 23 4  0 350  0.033576530560921469 349.99999966423474  0.067082892452182463 350.25770810060493  0.099869308879887875 350.77111458667099  0.13156628624254196 351.51570531988671  0.16195866809536152 352.46209608878792  0.19093398028496456 353.58237755135616  0.21846654983792213 354.85222820605424  0.27426368959368119 357.84920888955003  0.3021491186068328 359.61622715531161  0.32842484744605827 361.54040041871144  0.35316416580412735 363.61204164396673  0.37639683220717668 365.8264229027584  0.39812537333505649 368.18305324271273  0.41831630740511905 370.68769525783222  0.4557439761033848 376.0736018517199  0.47292011875991768 378.9594576910697  0.48830018181480117 382.03427944841542  0.50156023379092929 385.30662787333353  0.51222803597861422 388.77333266748747  0.51976991720685906 392.41514581060738  0.52359877559829915 396.1912597343462  0.52359877559829915 400 
 0 9 0.30404471865854837 7 0.64918916271671423 7 1 9
7 0 0  8 23 4  -8.8817841970012523e-16 100  0.06715306112184205 100.00000016788263  0.13416540811772926 99.871153979566813  0.2000859947170639 99.614413693494853  0.26450877997241218 99.244989236204376  0.32725315809820543 98.782719490159323  0.38826782246932368 98.247314081382243  0.44764126817363259 97.656293340043064  0.57139795897359669 96.305069830741061  0.63542889192342944 95.53220561073141  0.69827952069100885 94.722154327366113  0.76035187352387279 93.8895784161206  0.82202051989645941 93.048311226451347  0.8836693219130547 92.211706870163411  0.9457321983952216 91.393072001530811  1.0730247241787252 89.809460344875689  1.138267311008704 89.045865019642434  1.2052426425872236 88.333353522290537  1.2742871129404838 87.697209384435382  1.3455881079195908 87.171127692761559  1.4190994971417732 86.793973628457834  1.4946215214818199 86.602540378443862  1.5707963267948957 86.602540378443862 
 0 9 0.30404471865854837 7 0.64918916271671423 7 1 9
7 0 0  8 23 4  0 450  0.033576535464432844 450  0.06708288862795353 449.74229256882165  0.099869310240679354 449.22888491692595  0.13156628503243795 448.48429456674455  0.16195866455356001 447.53790447273542  0.19093398418656715 446.41762209624159  0.21846654988386938 445.14777179147779  0.27426368959368741 442.15079111044957  0.3021491186068106 440.38377284469061  0.32842484744608935 438.45959958128537  0.3531641658041238 436.38795835603389  0.37639683220714382 434.17357709724484  0.39812537333508846 431.81694675728357  0.41831630740511105 429.31230474216915  0.45574397610337858 423.92639814828101  0.4729201187599914 421.04054230892496  0.48830018181460044 417.96572055159834  0.50156023379119397 414.6933721266472  0.51222803597843036 411.22666733252822  0.51976991720691501 407.58485418938534  0.52359877559829915 403.80874026565544  0.52359877559829915 400 
 0 9 0.30404471828653629 7 0.64918916252934122 7 1 9
7 0 0  8 23 4  3.1415926535897931 100  3.0744395826609292 100  3.0074272532690807 99.871154312247398  2.9415066557379972 99.614413450152753  2.8770838762873723 99.24498917729909  2.8143395030913991 98.782719765237147  2.7533248227475049 98.247313911151892  2.6939513853142487 97.656293338930354  2.5701946946161791 96.305069830740877  2.5061637616664392 95.532205610732049  2.4433131328986759 94.722154327365189  2.3812407800659359 93.889578416120742  2.319572133693443 93.048311226452213  2.257923331676631 92.211706870162374  2.195860455194603 91.393072001531209  2.0685679294110897 89.809460344875959  2.003325342581054 89.04586501964134  1.9363500110025664 88.333353522292768  1.8673055406493542 87.697209384432796  1.7960045456701803 87.171127692763221  1.7224931564479862 86.793973628457351  1.6469711321080045 86.602540378443862  1.5707963267948963 86.602540378443862 
 0 9 0.30404471828653629 7 0.64918916252934122 7 1 9
7 0 0  8 23 4  5.7595865315812871 400  5.7595865315812871 403.54687357661732  5.7629069293083264 407.0716639172436  5.7694749436140578 410.487699155016  5.7788372822703495 413.75575290976724  5.7905468978362755 416.85651205299661  5.804200902300904 419.78454290273055  5.8195042660091909 422.54491274781367  5.8543892203674712 427.95014269520948  5.874205657532519 430.57179432632284  5.8956431336493971 433.03715988364036  5.9186431153591563 435.35355519797133  5.9431911157077124 437.52200811136817  5.9693063153241566 439.53948272348691  5.9970603676200325 441.39802719245961  6.0537021647981906 444.62485641346274  6.0823115099356198 446.02229896119849  6.1125302674090722 447.25923114449233  6.1443481994298761 448.30828448674504  6.1776550195756252 449.13732104001321  6.2122248094106727 449.71137685489032  6.2476523829853585 450  6.2831853071795862 450 
 0 9 0.32715154983796968 7 0.67848367337201809 7 1 9
7 0 0  8 23 4  4.7123889803846897 86.602540378443834  4.6414515088523443 86.602540378443834  4.5709558474254868 86.76855436030219  4.5020903021086447 87.096991301101312  4.4351287128726282 87.559643674084498  4.3701562258480955 88.124612677935161  4.3070642203791722 88.7634768853476  4.2456065690582925 89.453947255998813  4.1205249322043267 90.961452312325036  4.0570677366948757 91.784169844340013  3.9942180422337055 92.631457510690936  3.9315176720027551 93.48864237267361  3.8685613865121442 94.341495300176661  3.8049518990899482 95.175736723592308  3.7402617286949473 95.976668732951225  3.6130930765252778 97.413920784822892  3.5508531282366924 98.058874567884871  3.4868327051487182 98.646807838009721  3.4208942233135531 99.157716307234637  3.3530653240854145 99.568620428735727  3.2835130923467619 99.855699311460796  3.2126585019782485 100  3.1415926535897931 100 
 0 9 0.32715154983796968 7 0.67848367337201809 7 1 9
7 0 0  8 86 13  2.7300758075223057 190  2.7300758075223057 188.76161711057227  2.73198839472064 187.55133668015193  2.7356595879105567 186.40804485479049  2.7406522245640779 185.33795497726547  2.7466665999124618 184.34258844053036  2.7534345015999824 183.4162771353935  2.7608247966701325 182.54924607309326  2.7805106679886924 180.5313877921306  2.7934228662572296 179.44012090542088  2.8074042576548592 178.42489439075112  2.8224021612079322 177.47714125871727  2.8383853128399443 176.58765276942751  2.8553986657883739 175.75234570339671  2.8735299500160485 174.96696097018872  2.9096367995004702 173.60217638596475  2.927074703391964 173.01544757903642  2.9455701846587412 172.46336132523098  2.9653382299711857 171.94696597602535  2.9865550769566158 171.47070368601692  3.0094637838744882 171.044924719389  3.0342362135094789 170.68192128165288  3.0846904814586811 170.16788483391167  3.110457736212882 169.98675095042276  3.1373772459573144 169.90241768877223  3.1644097931300808 169.92983296212577  3.1907387356792545 170.06246027525333  3.2157117427758561 170.28378283343829  3.2387860886964592 170.56795276727468  3.2857128896829386 171.28490034470798  3.3095267559518353 171.75813983885746  3.3315889559519829 172.28669212661248  3.3520793566732001 172.86264456356133  3.3712426139199891 173.47925753251525  3.3892171781517373 174.13467786991569  3.4061709628706178 174.82956714675092  3.4315765607080646 176.00111900189935  3.4406202276953 176.44739232078726  3.4493683641263591 176.90942117645849  3.4578076048696391 177.38676190073474  3.4659242604470752 177.87897923803828  3.473704317034132 178.38564634539176  3.4811334364598099 178.90634479241825  3.4952602825731667 179.97496970201598  3.5019582387828598 180.52299721930251  3.5082759977769666 181.08420673921333  3.5141984025436779 181.65818491571483  3.5197099661181288 182.24464543072799  3.5247948715823951 182.84342899412766  3.5294369720654961 183.45450334374323  3.5385783136065494 184.81704385450712  3.5430774304692174 185.60147540318962  3.5470027815210834 186.43393805468477  3.550193052094881 187.31387149619184  3.552464823959987 188.23647567906212  3.553634828362437 189.1915419192367  3.5535877444215225 190.16041200836165  3.5507263605782593 192.52143481281828  3.5466264819059488 193.84478773876532  3.540673500034889 195.06679581640853  3.5333903287665258 196.19442250073351  3.5251084225945828 197.2339901412731  3.516072019876451 198.19784034352128  3.5063476353219669 199.100910190511  3.4816461951625191 201.11765616922102  3.4662615750150878 202.17669187279171  3.4497197612770401 203.16359594026292  3.4319965274128248 204.08585426002017  3.4130562502099866 204.9499797977617  3.3927629809540236 205.75731315708825  3.370961354722068 206.5085724462667  3.3350837042681274 207.55059273349855  3.3227385987925833 207.87877699148535  3.3101400373711489 208.18373555748497  3.2973072930831178 208.46471177911445  3.2842597447996993 208.72099547901203  3.2710176981806867 208.95192203202214  3.2576032066711278 209.15687144238044  3.2326080049219881 209.48565334621975  3.2207392065634544 209.6214488622964  3.2084220832166892 209.74086778055747  3.1956632541851522 209.841223344334  3.1824987868080563 209.9195218531847  3.1690046109869345 209.9730562872202  3.1553069337122155 209.99999993142859  3.1415926535897936 210 
 0 9 0.073876687960228921 7 0.18146279930185341 7 0.27297502317927325 7 0.35146796836731969 7 0.45078644852611266 7 0.50839166691615778 7 0.56599530822916722 7 0.63428155117843577 7 0.73589383894819183 7 0.87241439129297038 7 0.94164192250558687 7 1 9
7 0 0  8 86 13  1.5707963267948968 65.825756949558411  1.6327154712662824 65.825756949558411  1.6932291717524472 65.864006867500905  1.7507575795202066 65.937442892223871  1.8052712051910964 66.036312569896907  1.856761496125801 66.15335170344234  1.9055415063953094 66.282483552944811  1.952099936317812 66.420471346860978  2.0629161296348029 66.778932482089601  2.1250872198225084 67.006800398456491  2.1853339544706767 67.244156185569551  2.2442620112456466 67.487414231305635  2.3025351264202438 67.733314062545347  2.3606629110135016 67.979402450812643  2.4192472016931634 68.223500209089394  2.5302050784324877 68.667615336463385  2.5817194923431264 68.866839100938464  2.6345541235314025 69.06107511247879  2.6893439271069774 69.248614551513228  2.746579728106743 69.426477008510119  2.8069200610078164 69.589274370436641  2.8708713445249514 69.730508107268591  2.9992017060969078 69.932606288496331  3.0640476966405026 70.004909868877107  3.1311719850682302 70.039355662624061  3.1983917367763195 70.028318240219718  3.2641727172498611 69.974453483590707  3.3272181349982342 69.886050094789667  3.3862870149554607 69.774683728264634  3.5081798163713582 69.498670248443474  3.5714250919605042 69.319625207022071  3.6315898963777626 69.124464927538256  3.6892108940849053 68.918088997427191  3.7449840031488155 68.70476714178713  3.7993700099136132 68.486956905337252  3.8529595443561395 68.266363258980974  3.937551875106212 67.914511323779521  3.9686270521261031 67.784481815413258  3.9997344878372516 67.654297451190075  4.0308853739217598 67.524679509972557  4.0620919606083179 67.396357443356322  4.0933675566722023 67.270068875670106  4.124726529435276 67.146559603975803  4.1876412188668342 66.906610876783731  4.2192025058601512 66.790155974378578  4.2508767385050721 66.677978633765278  4.2826801747989798 66.570823982696439  4.3146367579775191 66.469422533765098  4.346778116514594 66.374490184404721  4.3791435641223728 66.286728216889173  4.4504690845129815 66.11210000381476  4.491002003142964 66.024851515159256  4.5335175110851669 65.947703969718717  4.5780101363095511 65.884232047726371  4.6242947661492 65.838676004199897  4.671990288798467 65.815204415050005  4.7203649033722543 65.816217123196935  4.8385980686239742 65.873356695599171  4.9051850188102994 65.955074132754632  4.9674898644093322 66.072897682052684  5.0260608936826561 66.214413321800095  5.0812532833458581 66.371581754615221  5.1336879948128482 66.538559525712174  5.1841437822594489 66.713161178984919  5.3004316740301887 67.141550836337416  5.3644149845568734 67.397608881735124  5.4271937142726046 67.659694988105471  5.4894601011457427 67.92460429403188  5.5518865820242498 68.189151454086755  5.6151397004226302 68.450150063818768  5.6799108441584014 68.704352379472581  5.7820106096441055 69.070516194378229  5.8164404445381965 69.188355493726078  5.850946054836804 69.299959962125172  5.8855291296563488 69.404507511993899  5.9201917940156994 69.501233167507081  5.9549345429758302 69.589436335509944  5.9897541757794714 69.668488076432126  6.0540515696396966 69.796299944449615  6.084361898704401 69.849526935371983  6.1156117040988267 69.896686629941101  6.1478015408718143 69.936560691373231  6.1808677843451756 69.967806999600143  6.2146568822517638 69.989221486740504  6.2488996068735307 69.999999972571445  6.2831853071795862 70 
 0 9 0.073876687960228921 7 0.18146279930185341 7 0.27297502317927325 7 0.35146796836731969 7 0.45078644852611266 7 0.50839166691615778 7 0.56599530822916722 7 0.63428155117843577 7 0.73589383894819183 7 0.87241439129297038 7 0.94164192250558687 7 1 9
7 0 0  8 23 4  3.1415926535897931 210  3.1210614961277394 210.00000010265583  3.1005291311075647 209.93977343220345  3.0802162982823336 209.81934542997405  3.060284995992693 209.64146807704995  3.0408510042354786 209.41030407615489  3.0219936054749454 209.13045541836325  3.0037625031966315 208.80633633462796  2.9570088239511896 207.83713099429386  2.9296594696116953 207.12197755130393  2.9040228867397606 206.31025246004447  2.8800610357605061 205.41069337265455  2.8577522026420392 204.42944864183883  2.8371056950111546 203.36899179251105  2.8181483011816177 202.22871149661322  2.7852216827921472 199.8723811516461  2.7709760875281595 198.67075640785762  2.7583507212744514 197.39099658337528  2.7475970196832398 196.03237707895312  2.739053731187802 194.5987376061355  2.7330886214394798 193.09989869850125  2.7300758075223053 191.554374056744  2.7300758075223053 190 
 0 9 0.23911948610599457 7 0.63591333721726562 7 1 9
7 0 0  8 23 4  0 70  0.051327893655133572 70.000000041062307  0.1026585095332937 69.975913030090624  0.1536145142233849 69.927731557706068  0.20396142023838504 69.856930569898694  0.25355894084285602 69.765831025734656  0.30232997965063024 69.65711085521778  0.35024725499271447 69.533463217305211  0.47547900793230546 69.171622753195393  0.55125596438760471 68.911912620840965  0.62536924204793554 68.628209581487553  0.69830566983646758 68.329050162545343  0.77052910495163474 68.022247356855743  0.84253146084878594 67.71504812589032  0.91487134073599652 67.414277104885272  1.0559406020423046 66.864292017065196  1.1244501887663443 66.612974265628466  1.1944986103494166 66.379922852188102  1.2663529078851745 66.17381782714574  1.340143255040398 66.005326901049187  1.4158015554213002 65.886011034309178  1.4930776239576975 65.825756949558411  1.5707963267948966 65.825756949558411 
 0 9 0.23911948610599457 7 0.63591333721726562 7 1 9
7 0 0  7 20 4  5.8716684611120975 190  5.8716684611120975 188.40529526822812  5.8749059028716166 186.81699263164407  5.8813321069643507 185.28146610968872  5.8904651265717982 183.8194733092634  5.9018780409367047 182.44087859992891  5.9151979318998391 181.14756859074458  5.9462084611711727 178.64894098900859  5.9641289663954833 177.45327801148096  5.9838251760732435 176.34076071834318  6.0052210062401752 175.31033358514742  6.0282871279818746 174.36355769593391  6.0530414572620703 173.50466322258802  6.1044269515590086 172.03087512917583  6.1308375000050619 171.40311466706285  6.1588814209752867 170.86877872094436  6.1884827860001463 170.44450690892319  6.2194178500469297 170.14859873510889  6.2512650406347934 170  6.2831853071795862 170 
 0 8 0.32749647483565042 6 0.67535626432716744 6 1 8
7 0 0  7 20 4  4.7123889803846897 134.17424305044165  4.6326537437960944 134.17424305044165  4.5532394662454161 134.10950158823803  4.4756303392982897 133.98093441747497  4.4000913717954164 133.80144025823813  4.3266832464327729 133.58463698586775  4.2551915157717408 133.34204238483454  4.1106230834163906 132.80607638506953  4.0376765392582641 132.51031302161269  3.9653735469234719 132.20408324999829  3.8931647386010106 131.89522935165351  3.8205023141418311 131.591632576276  3.7468598154328787 131.30105579191766  3.6010565258622278 130.78164824019552  3.5290824764252773 130.54984232049199  3.4551199134103063 130.34511406165251  3.3790487521878019 130.1778232028887  3.3010107446235413 130.05943531939073  3.2213933199517744 130  3.1415926535897931 130 
 0 8 0.32749647483565042 6 0.67535626432716744 6 1 8
1 6.2831853071795862 -0 0 1 
1 0 -0 0 1 
7 0 0  7 20 4  0 170  0.030225785850175768 170  0.060403942208535177 170.13323829157676  0.089809656452376707 170.39892023771003  0.11805541204867875 170.78166224300142  0.14492818020641529 171.26570088958786  0.17034350106111606 171.83645995042141  0.22097719814426409 173.20566738156501  0.24587007505197889 174.02300961145505  0.26911311729308007 174.92708234710466  0.29073064043857233 175.91279129804428  0.31070894112663172 176.97782263526184  0.32899625972681701 178.12264337007468  0.36230785920280351 180.61524721177804  0.37725325445837399 181.9676846606753  0.39011764872841503 183.41728858328361  0.40046937309713293 184.96339172675098  0.40780791812416606 186.59601333953287  0.41151684606748784 188.29315701982478  0.41151684606748784 190 
 0 8 0.30759457669048318 6 0.64982227833657946 6 1 8
7 0 0  7 20 4  3.1415926535897931 130  3.0660281889643519 130  2.990583169127206 130.05329228421115  2.9164748151389448 130.15958274693631  2.8440992178683127 130.31074365945841  2.7736158232905277 130.49706344959191  2.70495819896867 130.70955796991018  2.5631379941723229 131.19840252074181  2.490285660793738 131.47942926704206  2.4185365367169682 131.77519479638855  2.3473926232230196 132.07805706842547  2.2763352439147004 132.38049995237745  2.2048371881245359 132.67525479805303  2.0576203695522826 133.23927066004759  1.9818085176967826 133.50790196241167  1.9039233721279634 133.75038739924142  1.8236483193528268 133.95324155007785  1.7409942942068719 134.10007506789546  1.6561384758036586 134.17424305044159  1.5707963267948966 134.17424305044159 
 0 8 0.30759457669048318 6 0.64982227833657946 6 1 8
7 0 0  7 20 4  0 210  0.030225781949774877 210.00000015112892  0.060403947046212103 209.86676130590678  0.089809652021665798 209.60108031223749  0.11805541820573318 209.218337305402  0.14492817656264201 208.73429928613263  0.17034350101405416 208.16354005084071  0.22097719814238648 206.79433261849749  0.24587007505078695 205.97699038859366  0.26911311729224341 205.07291765293593  0.29073064043839469 204.0872087019697  0.31070894112672143 203.02217736473835  0.32899625972729307 201.87735662989815  0.36230785920336483 199.38475278817143  0.37725325445872215 198.03231533928286  0.390117648728741 196.58271141667572  0.40046937309720754 195.03660827322122  0.40780791812423445 193.40398666044547  0.41151684606748784 191.70684298016479  0.41151684606748784 190 
 0 8 0.30759457708374965 6 0.64982227853976171 6 1 8
7 0 0  7 20 4  0 130  0.075564454874439413 129.99999993954845  0.15100949674968245 130.05329244438005  0.22511782661739943 130.15958252985621  0.29749345235156621 130.31074383584001  0.36797682046048319 130.49706338173036  0.43663445448953642 130.70955796945879  0.57845465941195773 131.19840252072038  0.65130699279232651 131.47942926702643  0.72305611686996407 131.77519479637638  0.79420003036601372 132.07805706842194  0.86525740967521614 132.38049995237844  0.9367554654670105 132.67525479806048  1.083972284040347 133.23927066005763  1.1597841358952055 133.50790196241874  1.237669281464072 133.75038739924679  1.3179443342382484 133.95324155008026  1.4005983593840572 134.10007506789648  1.4854541777866581 134.17424305044159  1.5707963267948966 134.17424305044159 
 0 8 0.30759457708374965 6 0.64982227853976171 6 1 8
1 0 300 1 0 
2 0 0 1 0 -0 1 50
7 0 0  7 20 4  5.8716684611120975 190  5.8716684611120975 191.59470473177032  5.8749059028716193 193.18300736835764  5.8813321069643223 194.71853389030395  5.8904651265718124 196.18052669073927  5.9018780409366576 197.55912140006541  5.9151979318998142 198.85243140925283  5.9462084611708423 201.35105901096543  5.9641289663948038 202.54672198847359  5.9838251760721368 203.65923928159609  6.0052210062386386 204.68966641477729  6.0282871279797714 205.63644230398049  6.0530414572594031 206.49533677731949  6.1044269515080547 207.96912486937774  6.1308374961490646 208.59688514306879  6.1588814275196162 209.13122176228288  6.1884827812567487 209.55549250885861  6.2194178552699579 209.85140168924835  6.2512650364101381 209.99999984039866  6.2831853071795862 210 
 0 8 0.32749647504072238 6 0.67535626474437049 6 1 8
7 0 0  7 20 4  4.7123889803846897 134.17424305044165  4.792124216973205 134.17424305044165  4.871538494524069 134.109501588238  4.9491476214706687 133.98093441747562  5.0246865889741397 133.80144025823762  5.0980947143362885 133.58463698586883  5.1695864449974964 133.342042384835  5.3141548773514753 132.80607638507519  5.3871014215083353 132.51031302162392  5.4594044138419315 132.20408325001534  5.5316132221631182 131.89522935167579  5.60427564662095 131.59163257630365  5.677918145328567 131.30105579194895  5.8237214347629163 130.78164824070652  5.8956954738428466 130.54984239343437  5.9696580651840625 130.34511387364307  6.0457291958282866 130.17782343218008  6.1237672294309933 130.05943515068626  6.2033846302559654 130.00000006384056  6.2831853071795862 130 
 0 8 0.32749647504072238 6 0.67535626474437049 6 1 8
1 6.2831853071795862 -0 0 1 
1 0 -0 0 1 
1 0 200 1 0 
2 0 0 1 0 -0 1 20
1 0 40 1 0 
1 0 0 1 0 
2 0 0 1 0 -0 1 20
1 0 160 1 0 
Curves 18
2 0 0 800 0 0 1 1 0 -0 -0 1 0 100
7 0 0  8 23 4  86.602540378443834 -50.000000000000043 400  86.602540378443834 -50.000000000000043 396.4531264233774  86.768554360301678 -49.712441623392252 392.92833608277681  87.096991301103003 -49.143655969881841 389.51230084494648  87.559643674082039 -48.329700648459557 386.24424709027198  88.124612677937151 -47.303758601946697 383.14348794697975  88.763476885346648 -46.096633933969066 380.21545709727701  89.453947255999054 -44.730534623268426 377.45508725218542  90.961452312325122 -41.584580251230875 372.04985730479018  91.784169844339857 -39.781402281845395 369.42820567367704  92.631457510690922 -37.81125762107866 366.96284011636072  93.48864237267378 -35.675359427746407 364.64644480202827  94.341495300176689 -33.371375094216411 362.47799188863092  95.175736723592081 -30.894400229760695 360.46051727651405  95.976668732951339 -28.235197605551782 358.60197280754011  97.413920783548775 -22.756398616550438 355.37514358939779  98.05887438439548 -19.967859727516355 353.97770142062154  98.646808131230941 -17.001060903351803 352.74076825489283  99.157716247916952 -13.856554777440659 351.69171562635694  99.568620170602742 -10.546176703746648 350.86267948835513  99.855699662295592 -7.0960544318152783 350.28862243838159  99.999999822335354 -3.55329295081635 350.00000035532935  100 0 350 
 0 9 0.32715155003298801 7 0.67848367377663077 7 1 9
1 100 -2.4492127076447545e-14 0 0 0 1 
2 0 0 0 0 0 1 1 0 -0 -0 1 0 100
7 0 0  8 23 4  100 0 350  100.00000016788265 3.357653056092063 349.99999966423474  99.871153979567325 6.7082922507060294 350.25770810060493  99.614413693494157 9.9811535532793023 350.77111458667099  99.244989236204319 13.133667254014087 351.51570531988671  98.782719490160005 16.14106204554367 352.46209608878792  98.247314081381845 18.991065369133018 353.58237755135616  97.656293340043064 21.681267443995591 354.85222820605424  96.305069830741061 27.094898672399299 357.84920888955003  95.532205610731751 29.776083412862121 359.61622715531161  94.722154327365587 32.277992523382729 361.54040041871144  93.889578416120571 34.609753071732321 363.61204164396673  93.048311226451844 36.776998731952766 365.8264229027584  92.211706870163113 38.783329440035715 368.18305324271273  91.393072001530825 40.629443402342417 370.68769525783222  89.809460344875703 44.020678864939597 376.0736018517199  89.045865019642378 45.559762660744155 378.9594576910697  88.333353522290722 46.923337441037496 382.03427944841542  87.697209384435155 48.087216148864847 385.30662787333353  87.171127692761729 49.015295205844701 388.77333266748747  86.793973628457792 49.668405227687359 392.41514581060738  86.602540378443862 50 396.1912597343462  86.602540378443862 50 400 
 0 9 0.30404471865854837 7 0.64918916271671423 7 1 9
7 0 0  8 23 4  100 0 450  100 3.3576535464432191 450  99.871154312247143 6.7082918702808545 449.74229256882165  99.614413450153194 9.9811536835594623 449.22888491692595  99.244989177299104 13.133667136739369 448.48429456674455  98.782719765236706 16.141061698735722 447.53790447273542  98.247313911152233 18.991065751063456 446.41762209624159  97.656293338930354 21.681267448453593 445.14777179147779  96.305069830740891 27.09489867239995 442.15079111044957  95.532205610732319 29.776083412860999 440.38377284469061  94.722154327364748 32.277992523383702 438.45959958128537  93.88957841612077 34.609753071732086 436.38795835603389  93.048311226452682 36.776998731951778 434.17357709724484  92.211706870162118 38.783329440037349 431.81694675728357  91.393072001531223 40.629443402341558 429.31230474216915  89.809460344875973 44.020678864939015 423.92639814828101  89.045865019641511 45.559762660746543 421.04054230892496  88.333353522292256 46.923337441033972 417.96572055159834  87.697209384433535 48.087216148866737 414.6933721266472  87.17112769276271 49.015295205845263 411.22666733252822  86.793973628457522 49.668405227686577 407.58485418938534  86.602540378443862 50 403.80874026565544  86.602540378443862 50 400 
 0 9 0.30404471828653629 7 0.64918916252934122 7 1 9
7 0 0  8 23 4  86.602540378443834 -50.000000000000043 400  86.602540378443834 -50.000000000000043 403.54687357661732  86.768554360302232 -49.712441623391754 407.0716639172436  87.09699130110117 -49.143655969883547 410.487699155016  87.559643674084654 -48.329700648456935 413.75575290976724  88.124612677935062 -47.303758601949092 416.85651205299661  88.763476885347615 -46.096633933967624 419.78454290273055  89.453947255998813 -44.730534623268937 422.54491274781367  90.961452312325036 -41.584580251231031 427.95014269520948  91.784169844340013 -39.781402281845253 430.57179432632284  92.631457510690936 -37.811257621078354 433.03715988364036  93.488642372673581 -35.675359427746841 435.35355519797133  94.341495300176646 -33.37137509421671 437.52200811136817  95.175736723592308 -30.89440022975991 439.53948272348691  95.976668732951225 -28.235197605552226 441.39802719245961  97.413920784822892 -22.756398611693562 444.62485641346274  98.058874567884601 -19.967859324472435 446.02229896119849  98.646807838010218 -17.001061271986877 447.25923114449233  99.157716307234622 -13.856554899211012 448.30828448674504  99.568620428735201 -10.546176567483982 449.13732104001321  99.855699311461152 -7.0960548419637099 449.71137685489032  100 -3.5532924194227782 450  100 0 450 
 0 9 0.32715154983796968 7 0.67848367337201809 7 1 9
7 0 0  8 86 13  190 20 445.82575694955841  188.76161711057227 20 445.82575694955841  187.55133668015193 19.91235337387026 445.86400686750096  186.40804485479049 19.744123905050216 445.93744289222383  185.33795497726547 19.514902285540977 446.03631256989695  184.34258844053036 19.237873159851539 446.15335170344235  183.4162771353935 18.925064118927583 446.28248355294483  182.54924607309326 18.582260868803356 446.42047134686101  180.5313877921306 17.665560569655433 446.7789324820896  179.44012090542088 17.061450737150739 447.00680039845656  178.42489439075112 16.40377787695131 447.2441561855693  177.47714125871727 15.694221315276218 447.4874142313061  176.58765276942751 14.933544392727526 447.73331406254499  175.75234570339671 14.118946812391625 447.97940245081276  174.96696097018872 13.245592454199262 448.22350020908942  173.60217638596475 11.495728687255017 448.66761533646343  173.01544757903642 10.646755069979088 448.86683910093825  172.46336132523098 9.7423084173559129 449.0610751124795  171.94696597602535 8.771423029278985 449.24861455151228  171.47070368601692 7.7249441623440038 449.42647700851086  171.044924719389 6.5904239412074901 449.58927437043644  170.68192128165288 5.3591604830220598 449.73050810726863  170.16788483391167 2.8445553031042996 449.93260628849634  169.98675095042276 1.5578500753039846 450.00490986887729  169.90241768877223 0.21126482985045633 450.03935566262362  169.92983296212577 -1.1418347912938847 450.02831824022019  170.06246027525333 -2.4583899354909087 449.97445348359048  170.28378283343829 -3.704622003922788 449.88605009478971  170.56795276727468 -4.8532125714778402 449.77468372826468  171.28490034470798 -7.1832615379201048 449.49867024844349  171.75813983885746 -8.3610693252848058 449.31962520702172  172.28669212661248 -9.4474000731872163 449.12446492753941  172.86264456356133 -10.451521549066081 448.91808899742563  173.47925753251525 -11.386037243846355 448.70476714178824  174.13467786991569 -12.258255622356449 448.48695690533697  174.82956714675092 -13.076870757778455 448.26636325898102  176.00111900189935 -14.297448989351548 447.91451132377955  176.44739232078726 -14.730560988794394 447.78448181541324  176.90942117645849 -15.148186634249697 447.65429745119013  177.38676190073474 -15.549790747042026 447.5246795099726  177.87897923803828 -15.934838498820188 447.39635744335635  178.38564634539176 -16.302795411557238 447.27006887567012  178.90634479241825 -16.653127357550481 447.14655960397596  179.97496970201598 -17.317464667277328 446.90661087678365  180.52299721930251 -17.631473643437698 446.79015597437859  181.08420673921333 -17.926789246506338 446.67797863376529  181.65818491571483 -18.202858939283349 446.57082398269648  182.24464543072799 -18.459115888765186 446.469422533765  182.84342899412766 -18.694978966144653 446.37449018440464  183.45450334374323 -18.909852746810909 446.28672821688906  184.81704385450712 -19.332245100108075 446.1121000038147  185.60147540318962 -19.539596822360508 446.02485151515918  186.43393805468477 -19.720072090406671 445.94770396971876  187.31387149619184 -19.866415718649087 445.8842320477263  188.23647567906212 -19.970468445414252 445.83867600419984  189.1915419192367 -20.02405348878451 445.81520441504995  190.16041200836165 -20.021926857902038 445.81621712319691  192.52143481281828 -19.89076336064802 445.87335669559917  193.84478773876532 -19.702761135389348 445.95507413275465  195.06679581640853 -19.429423733772833 446.07289768205271  196.19442250073351 -19.093863615052797 446.21441332180007  197.2339901412731 -18.710705503299977 446.37158175461525  198.19784034352128 -18.29082509447235 446.53855952571217  199.100910190511 -17.836992814585784 446.71316117898493  201.11765616922102 -16.678595142648216 447.14155083633744  202.17669187279171 -15.953143137007794 447.39760888173515  203.16359594026292 -15.168455096124706 447.6596949881054  204.08585426002017 -14.322479844337014 447.92460429403201  204.9499797977617 -13.41268261852915 448.1891514540867  205.75731315708825 -12.431663425542878 448.4501500638188  206.5085724462667 -11.371142075518817 448.7043523794726  207.55059273349855 -9.6150274534363902 449.07051619437817  207.87877699148535 -9.0090680862683605 449.18835549372614  208.18373555748497 -8.3889992621684186 449.29995996212511  208.46471177911445 -7.7557979054120896 449.40450751199393  208.72099547901203 -7.1104820307283623 449.50123316750705  208.95192203202214 -6.4541494263144097 449.5894363355099  209.15687144238044 -5.7880163368502879 449.66848807643208  209.48565334621975 -4.5448090320959809 449.7962999444498  209.6214488622964 -3.9537215627022064 449.84952693537196  209.74086778055747 -3.3395736896957944 449.89668662994114  209.841223344334 -2.702739282198082 449.93656069137319  209.9195218531847 -2.0451075411731523 449.9678069996001  209.9730562872202 -1.3706044135127382 449.98922148674052  209.99999993142859 -0.68571400612111455 449.9999999725714  210 -9.1940344226770776e-17 450 
 0 9 0.073876687960228921 7 0.18146279930185341 7 0.27297502317927325 7 0.35146796836731969 7 0.45078644852611266 7 0.50839166691615778 7 0.56599530822916722 7 0.63428155117843577 7 0.73589383894819183 7 0.87241439129297038 7 0.94164192250558687 7 1 9
7 0 0  8 23 4  210 0 450  210.00000010265583 1.0265578731026479 450.00000004106238  209.93977343220345 2.0531775184097456 449.97591303009051  209.81934542997405 3.0681562548346761 449.92773155770618  209.64146807704995 4.0627445455190339 449.85693056989879  209.41030407615489 5.0306400381813221 449.76583102573477  209.13045541836325 5.967555357915689 449.65711085521787  208.80633633462796 6.8708596524406813 449.53346321730521  207.83713099429386 9.18036994382215 449.17162275319538  207.12197755130393 10.523829394329878 448.91191262084078  206.31025246004447 11.774932713181144 448.62820958148819  205.41069337265455 12.936028214861254 448.32905016254443  204.42944864183883 14.00912988520586 448.02224735685644  203.36899179251105 14.995089694532629 447.71504812589012  202.22871149661322 15.894132086087689 447.41427710488529  199.8723811516461 17.445880100292989 446.86429201706522  198.67075640785762 18.112500879287495 446.61297426562851  197.39099658337528 18.699329061251035 446.37992285218809  196.03237707895312 19.196046924645117 446.17381782714585  194.5987376061355 19.588584661696704 446.00532690104916  193.09989869850125 19.861934582966615 445.88601103430921  191.554374056744 20 445.82575694955841  190 20 445.82575694955841 
 0 9 0.23911948610599457 7 0.63591333721726562 7 1 9
7 0 0  7 20 4  190 -20.000000000000004 354.17424305044159  188.40529526822812 -20.000000000000004 354.17424305044159  186.81699263164407 -19.85163748421305 354.10950158823778  185.28146610968872 -19.557176296119984 353.98093441747551  183.8194733092634 -19.137252010782827 353.80144025823751  182.44087859992891 -18.609272595736567 353.58463698586797  181.14756859074458 -17.988894519498103 353.34204238483449  178.64894098900859 -16.533946836137474 352.8060763850695  177.45327801148096 -15.688010730209923 352.51031302161272  176.34076071834318 -14.751671354023641 352.20408324999806  175.31033358514742 -13.726821040656557 351.89522935165371  174.36355769593391 -12.613431647889318 351.59163257627586  173.50466322258802 -11.409602762233769 351.30105579191763  172.03087512917583 -8.8933777413809842 350.78164824019547  171.40311466706285 -7.5928607668802197 350.54984232049196  170.86877872094436 -6.2046298165562233 350.34511406165245  170.44450690892319 -4.7324669523921434 350.1778232028887  170.14859873510889 -3.188373618690417 350.05943531939067  170 -1.5960133272396184 349.99999999999994  170 0 349.99999999999994 
 0 8 0.32749647483565042 6 0.67535626432716744 6 1 8
1 50 -1.2246063538223773e-14 0 0 0 1 
7 0 0  7 20 4  170 0 350  170 1.5112892925088235 350  170.13323829157676 3.0201974972875441 350.05329228421118  170.39892023771003 4.4882262522719127 350.15958274693634  170.78166224300142 5.8937836338085239 350.31074365945841  171.26570088958786 7.2253835508502897 350.49706344959191  171.83645995042141 8.4787047126246602 350.70955796991018  173.20566738156501 10.962745615245275 351.19840252074181  174.02300961145505 12.175956849896046 351.47942926704201  174.92708234710466 13.300618833567951 351.77519479638875  175.91279129804428 14.338824970520468 352.07805706842532  176.97782263526184 15.29122457343451 352.38049995237753  178.12264337007468 16.156924091174648 352.67525479805306  180.61524721177804 17.724100774430205 353.23927066004762  181.9676846606753 18.42161104257076 353.50790196241178  183.41728858328361 19.017546268068447 353.75038739924128  184.96339172675098 19.493771560366365 353.95324155007802  186.59601333953287 19.830029166827707 354.10007506789543  188.29315701982478 19.999999999999982 354.17424305044159  190 19.999999999999982 354.17424305044159 
 0 8 0.30759457669048318 6 0.64982227833657946 6 1 8
7 0 0  7 20 4  210 0 350  210.00000015112892 1.5112890974887772 349.99999993954845  209.86676130590678 3.0201977385758565 350.05329244438008  209.60108031223749 4.4882260331561916 350.15958252985627  209.218337305402 5.8937839375949101 350.31074383584001  208.73429928613263 7.2253833710765241 350.49706338173036  208.16354005084071 8.4787047103152631 350.70955796945879  206.79433261849749 10.962745615153812 351.19840252072038  205.97699038859366 12.175956849838967 351.47942926702643  205.07291765293593 13.300618833526656 351.77519479637635  204.0872087019697 14.338824970513437 352.07805706842197  203.02217736473835 15.291224573438482 352.38049995237844  201.87735662989815 16.156924091197233 352.67525479806051  199.38475278817143 17.724100774456375 353.23927066005763  198.03231533928286 18.421611042587735 353.50790196241871  196.58271141667572 19.017546268081134 353.75038739924679  195.03660827322122 19.493771560372139 353.95324155008029  193.40398666044547 19.830029166829849 354.10007506789646  191.70684298016479 19.999999999999982 354.17424305044159  190 19.999999999999982 354.17424305044159 
 0 8 0.30759457708374965 6 0.64982227853976171 6 1 8
2 0 0 300 0 0 1 1 0 -0 -0 1 0 50
7 0 0  7 20 4  190 -20.000000000000004 354.17424305044159  191.59470473177032 -20.000000000000004 354.17424305044165  193.18300736835764 -19.851637484212873 354.10950158823789  194.71853389030395 -19.557176296121398 353.98093441747574  196.18052669073927 -19.13725201078212 353.80144025823745  197.55912140006541 -18.609272595738776 353.58463698586883  198.85243140925283 -17.988894519499269 353.34204238483494  201.35105901096543 -16.533946836152985 352.80607638507519  202.54672198847359 -15.688010730242384 352.51031302162386  203.65923928159609 -14.751671354075334 352.2040832500154  204.68966641477729 -13.726821040731068 351.89522935167571  205.63644230398049 -12.613431647990538 351.59163257630365  206.49533677731949 -11.409602762363491 351.30105579194895  207.96912486937774 -8.8933777438768757 350.78164824070649  208.59688514306879 -7.592860956872455 350.54984239343435  209.13122176228288 -6.2046294940723943 350.34511387364302  209.55549250885861 -4.7324671867573436 350.17782343218005  209.85140168924835 -3.1883733582241396 350.05943515068623  209.99999984039866 -1.5960135384724008 350.0000000638405  210 0 349.99999999999994 
 0 8 0.32749647504072238 6 0.67535626474437049 6 1 8
1 20 -4.898425415289509e-15 0 0 0 1 
2 0 0 200 0 0 1 1 0 -0 -0 1 0 20
2 0 0 0 0 0 1 1 0 -0 -0 1 0 20
Polygon3D 0
PolygonOnTriangulations 0
Surfaces 8
1 0 0 800 0 0 1 1 0 -0 -0 1 0 
2 0 0 0 0 0 1 1 0 -0 -0 1 0 100
2 0 0 0 0 0 1 1 0 -0 -0 1 0 50
1 0 0 0 0 0 1 1 0 -0 -0 1 0 
2 0 0 0 0 0 1 1 0 -0 -0 1 0 20
1 0 0 300 0 0 1 1 0 -0 -0 1 0 
1 0 0 200 0 0 1 1 0 -0 -0 1 0 
1 0 0 0 0 0 1 1 0 -0 -0 1 0 
Triangulations 0

TShapes 57
Ve
1e-07
100 -2.44921270764475e-14 800
0 0

0101101
*
Ed
 1e-07 1 1 0
1  1 0 0 6.28318530717959
2  1 2 0 0 6.28318530717959
2  2 1 0 0 6.28318530717959
0

0101100
+57 0 -57 0 *
Wi

0101000
+56 0 *
Fa
0  1e-07 1 0

0101000
+55 0 *
Ve
3.77011308578173e-06
86.6025403784438 -50 400
0 0

0101101
*
Ve
3.77011308578173e-06
100 -1.83690953073357e-14 350
0 0

0101101
*
Ed
 3.77011308578173e-06 1 1 0
1  2 0 0 1
2  3 2 0 0 1
2  4 3 1 0 1
0

0101000
+53 0 -52 0 *
Ve
1e-07
100 -2.44921270764475e-14 0
0 0

0101101
*
Ed
 1e-07 1 1 0
1  3 0 0 350
3  5 6CN 2 0 0 350
0

0101000
+50 0 -52 0 *
Ed
 1e-07 1 1 0
1  4 0 0 6.28318530717959
2  7 2 0 0 6.28318530717959
2  8 4 0 0 6.28318530717959
0

0101100
+50 0 -50 0 *
Ve
3.77011308578173e-06
86.6025403784439 50 400
0 0

0101101
*
Ed
 3.77011308578173e-06 1 1 0
1  5 0 0 1
2  9 2 0 0 1
2  10 3 1 0 1
0

0101000
+52 0 -47 0 *
Ve
3.77011308578173e-06
100 -2.44921270764475e-14 450
0 0

0101101
*
Ed
 3.77011308578173e-06 1 1 0
1  6 0 0 1
2  11 2 0 0 1
2  12 3 1 0 1
0

0101000
+45 0 -47 0 *
Ed
 1e-07 1 1 0
1  3 0 450 800
3  5 6CN 2 0 450 800
0

0101000
+45 0 -57 0 *
Ed
 3.77011308578173e-06 1 1 0
1  7 0 0 1
2  13 2 0 0 1
2  14 3 1 0 1
0

0101000
+53 0 -45 0 *
Wi

0101000
-51 0 +49 0 +48 0 -49 0 -46 0 +44 0 -43 0 -56 0 +43 0 +42 0 
*
Fa
0  1e-07 2 0

0101000
+41 0 *
Ve
7.99539616382488e-05
190 20 445.825756949558
0 0

0101101
*
Ve
7.99539616382488e-05
210 -4.89842541528951e-15 450
0 0

0101101
*
Ed
 7.99539616382488e-05 1 1 0
1  8 0 0 1
2  15 3 1 0 1
2  16 5 2 0 1
0

0101000
+39 0 -38 0 *
Ed
 7.99539616382488e-05 1 1 0
1  9 0 0 1
2  17 3 1 0 1
2  18 5 2 0 1
0

0101000
+38 0 -39 0 *
Wi

0101000
-37 0 -36 0 *
Ve
1.92831599071361e-06
190 -20 354.174243050442
0 0

0101101
*
Ve
1.92831599071361e-06
170 -1.22460635382238e-14 350
0 0

0101101
*
Ed
 1.92831599071361e-06 1 1 0
1  10 0 0 1
2  19 3 1 0 1
2  20 5 3 0 1
0

0101000
+34 0 -33 0 *
Ed
 1e-07 1 1 0
1  11 0 100 170
3  21 22CN 3 0 100 170
0

0101000
+52 4 -33 4 *
Ve
1.92831599071361e-06
190 20 354.174243050442
0 0

0101101
*
Ed
 1.92831599071361e-06 1 1 0
1  12 0 0 1
2  23 3 1 0 1
2  24 5 3 0 1
0

0101000
+33 0 -30 0 *
Ve
1.92831599071361e-06
210 -8.57224447675664e-15 350
0 0

0101101
*
Ed
 1.92831599071361e-06 1 1 0
1  13 0 0 1
2  25 3 1 0 1
2  26 5 3 0 1
0

0101000
+28 0 -30 0 *
Ve
1e-07
50 -1.22460635382238e-14 300
0 0

0101101
*
Ed
 1e-07 1 1 0
1  11 0 210 300
3  21 22CN 3 0 210 300
0

0101000
+28 4 -26 0 *
Ed
 1e-07 1 1 0
1  14 0 0 6.28318530717959
2  27 3 0 0 6.28318530717959
2  28 6 0 0 6.28318530717959
0

0101100
+26 0 -26 0 *
Ed
 1.92831599071361e-06 1 1 0
1  15 0 0 1
2  29 3 1 0 1
2  30 5 3 0 1
0

0101000
+34 0 -28 0 *
Wi

0101000
-32 0 +31 1 +51 0 -42 0 -44 0 +46 0 -31 1 -29 0 +27 0 -25 1 
-24 1 +25 1 +23 0 *
Fa
0  1e-07 3 1

0101000
+35 0 +22 0 *
Wi

0101000
-48 0 *
Fa
0  1e-07 4 0

0101000
-20 0 *
Ve
1e-07
20 -4.89842541528951e-15 200
0 0

0101101
*
Ed
 1e-07 1 1 0
1  16 0 70 200
3  31 32CN 5 0 70 200
0

0101000
+38 5 -18 0 *
Ed
 1e-07 1 1 0
1  17 0 0 6.28318530717959
2  33 5 0 0 6.28318530717959
2  34 7 0 0 6.28318530717959
2  35 5 6 0 6.28318530717959
0

0101100
+18 0 -18 0 *
Wi

0101000
+36 0 -17 2 -16 2 +17 2 +37 0 *
Fa
0  1e-07 5 2

0101000
+15 0 *
Ve
1e-07
20 -4.89842541528951e-15 0
0 0

0101101
*
Ed
 1e-07 1 1 0
1  16 0 0 130
3  31 32CN 5 0 0 130
0

0101000
+13 0 -28 7 *
Ed
 1e-07 1 1 0
1  18 0 0 6.28318530717959
2  36 5 0 0 6.28318530717959
2  37 8 0 0 6.28318530717959
2  38 5 8 0 6.28318530717959
0

0101100
+13 0 -13 0 *
Wi

0101000
-23 0 +12 3 +11 3 -12 3 -27 0 +29 0 +32 0 *
Fa
0  1e-07 5 3

0101000
+10 0 *
Wi

0101000
+24 0 *
Fa
0  1e-07 6 0

0101000
+8 0 *
Wi

0101000
+16 0 *
Fa
0  1e-07 7 0

0101000
+6 0 *
Wi

0101000
-11 0 *
Fa
0  1e-07 8 0

0101000
-4 0 *
Sh

0101000
+54 0 +40 0 +21 0 -19 0 +14 0 +9 0 +7 1 +5 2 -3 3 *
So

0100000
+2 0 *

+1 0 
