DBRep_DrawableShape

CASCADE Topology V1, (c) Matra-Datavision
Locations 0
Curve2ds 28
1 0 0 0 1 
1 0 0 0 1 
1 0 0 1 0 
3 5.0000000000000009 0 -1 -0 -0 1 5 2
1 3.1415926535897931 0 0 1 
1 3.1415926535897931 0 0 1 
1 0 1 1 0 
2 0 -4.5 -6.123233995736766e-17 1 1 6.123233995736766e-17 4.5
3 5.0000000000000009 0 -1 -0 -0 1 5 2
2 0 -4.5 -6.123233995736766e-17 1 1 6.123233995736766e-17 4.5
1 0 0 1 0 
1 0 0 1 0 
1 0 0 1 0 
3 5.0000000000000009 0 -1 -0 -0 1 4 1.6000000000000001
1 10.000000000000002 2.4492935982947064e-16 -1 -4.8985871965894112e-17 
1 10.000000000000002 2.4492935982947064e-16 -1 -4.8985871965894112e-17 
1 0 0 0 1 
1 0 0 0 1 
1 3.1415926535897931 0 0 1 
1 3.1415926535897931 0 0 1 
1 0 1 1 0 
2 0 -4.5 -6.123233995736766e-17 1 1 6.123233995736766e-17 3.6000000000000001
3 5.0000000000000009 0 -1 -0 -0 1 4 1.6000000000000001
2 0 -4.5 -6.123233995736766e-17 1 1 6.123233995736766e-17 3.6000000000000001
1 0 -0 6.1232339957367759e-17 -1 
1 0 -0 6.1232339957367759e-17 -1 
1 1.1021821192326179e-15 -9 -1.8369701987210317e-16 1 
1 1.1021821192326179e-15 -9 -1.8369701987210317e-16 1 
Curves 16
7 1 0  7 8 2  3.5355339059327386 -3.5355339059327386 4.4408920985006262e-16  1 9.6048855423786907 5.6779402750195374 -5.742238377723344e-16  0.99999999999999989 18.214762018199355 14.344823330601708 -3.1843740466902976e-15  1.0000000000000058 31.904943295729403 14.237869646355081 1.2028108957336017e-14  0.99999999999998868 37.172160522651843 17.64988141136174 -8.7773709183773399e-15  1.0000000000000071 52.812746249130484 14.81612372870539 2.3298725788871153e-15  0.99999999999999833 63.447227270624914 15.5 0  1 75 15.5 0  1
 0 8 1 8
7 0 0  10 11 2  3.5355339059327386 -3.5355339059327386 4.4408920985006262e-16  3.5355339059328195 -3.5355339059328195 -0.62831853071801369  3.1478202812511471 -3.1478202812511471 -1.2566370068591419  2.3723834259365431 -2.3723834259365431 -1.7988274783398068  1.2775986014269276 -1.2775986014269276 -2.1687580291315651  1.1719514247943195e-12 -1.1719514247943195e-12 -2.3005529012372383  -1.2775986014289811 1.2775986014289811 -2.1687580291316819  -2.3723834259351833 2.3723834259351833 -1.7988274783396521  -3.1478202812517777 3.1478202812517777 -1.256637006859245  -3.5355339059326556 3.5355339059326556 -0.62831853071798205  -3.5355339059327386 3.5355339059327386 2.2204460492503131e-16 
 0 11 3.1415926535897931 11
7 1 0  7 8 2  -3.5355339059327386 3.5355339059327386 2.2204460492503131e-16  1 3.5505706064268643 12.92839695201633 -1.5975347728255742e-15  0.99999999999999989 14.233536249242547 23.186298181990903 -5.559004606855246e-15  1.0000000000000058 28.117657554132329 15.130373948082415 1.4762487599297348e-14  0.99999999999998868 41.978695964977959 33.453377516518131 -1.3515968997086305e-14  1.0000000000000071 51.368462505527539 21.938158843438853 1.6901778625232096e-15  0.99999999999999833 63.447227270624914 24.500000000000004 -1.5086264655892687e-15  1 75.000000000000014 24.5 -1.5086264655892687e-15  1
 0 8 1 8
7 0 0  10 11 2  75 15.5 0  74.999999999999105 15.49999999999994 -1.4137166941154202  75.000000000003425 15.993478879707238 -2.8274332654334842  74.999999999990621 16.98044886550209 -4.0473618262637086  75.000000000018389 18.373882457535071 -4.8797055655472787  74.999999999974861 19.999999999996184 -5.1762440277824107  75.00000000002386 21.626117542471153 -4.879705565547396  74.999999999984084 23.019551134494474 -4.047361826263554  75.000000000007219 24.006521120294067 -2.8274332654335823  74.999999999998124 24.499999999999748 -1.4137166941153954  75.000000000000014 24.5 -1.5086264655892687e-15 
 0 11 3.1415926535897931 11
7 0 0  10 11 2  3.5355339059327386 -3.5355339059327386 -4.4408920985006262e-16  3.5355339059328195 -3.5355339059328195 0.62831853071801369  3.1478202812511471 -3.1478202812511471 1.2566370068591419  2.3723834259365431 -2.3723834259365431 1.7988274783398068  1.2775986014269276 -1.2775986014269276 2.1687580291315651  1.1719514247943195e-12 -1.1719514247943195e-12 2.3005529012372383  -1.2775986014289811 1.2775986014289811 2.1687580291316819  -2.3723834259351833 2.3723834259351833 1.7988274783396521  -3.1478202812517777 3.1478202812517777 1.256637006859245  -3.5355339059326556 3.5355339059326556 0.62831853071798205  -3.5355339059327386 3.5355339059327386 -2.2204460492503131e-16 
 0 11 3.1415926535897931 11
7 0 0  10 11 2  75 15.5 0  74.999999999999105 15.49999999999994 1.4137166941154202  75.000000000003425 15.993478879707238 2.8274332654334842  74.999999999990621 16.98044886550209 4.0473618262637086  75.000000000018389 18.373882457535071 4.8797055655472787  74.999999999974861 19.999999999996184 5.1762440277824107  75.00000000002386 21.626117542471153 4.879705565547396  74.999999999984084 23.019551134494474 4.047361826263554  75.000000000007219 24.006521120294067 2.8274332654335823  74.999999999998124 24.499999999999748 1.4137166941153954  75.000000000000014 24.5 1.5086264655892687e-15 
 0 11 3.1415926535897931 11
1 3.5355339059327378 -3.5355339059327378 0 -0.70710678118654757 0.70710678118654757 0 
7 0 0  10 11 2  2.8284271247461912 -2.8284271247461912 4.4408920985006262e-16  2.8284271247462276 -2.8284271247462276 -0.50265482457439326  2.5182562250010312 -2.5182562250010312 -1.0053096054873778  1.8979067407489889 -1.8979067407489889 -1.4390619826717084  1.0220788811419279 -1.0220788811419279 -1.7350064233054643  4.6762593797211755e-13 -4.6762593797211755e-13 -1.8404423209895382  -1.0220788811427488 1.0220788811427488 -1.73500642330558  -1.8979067407484411 1.8979067407484411 -1.4390619826715594  -2.5182562250012874 2.5182562250012874 -1.0053096054874726  -2.8284271247461601 2.8284271247461601 -0.50265482457436672  -2.8284271247461903 2.8284271247461903 2.2204460492503131e-16 
 0 11 3.1415926535897931 11
1 -3.5355339059327378 3.5355339059327378 -2.4492935982947064e-16 0.70710678118654757 -0.70710678118654757 4.8985871965894125e-17 
7 1 0  7 8 2  2.8284271247461912 -2.8284271247461912 4.4408920985006262e-16  1 9.0159805468327825 6.4281751612018496 2.0133058846416192e-16  1 17.777778499972118 15.165580394866463 -8.0236115873956118e-16  0.99999999999998979 31.571168515292573 14.409868988290894 5.8731757129539919e-15  1.0000000000000278 37.64839458161984 19.182925960538899 -3.5800583136374853e-15  0.99999999999997424 52.67616934408646 15.539676739546138 1.5172914623676952e-15  1.0000000000000095 63.449895514329839 16.399999999999999 4.4408920985006262e-16  1 75 16.399999999999999 4.4408920985006262e-16  1
 0 8 1 8
7 1 0  7 8 2  -2.8284271247461903 2.8284271247461903 2.2204460492503131e-16  1 4.1746945180469197 12.228938087750445 -4.3498515050138725e-16  1 14.587149100985133 22.237911020917949 -1.2111033831702273e-15  0.99999999999998979 28.549479609839526 15.123956971356947 2.3425383791132212e-15  1.0000000000000278 41.490579147983965 31.827861148346255 -1.0269151715707795e-15  0.99999999999997424 51.521030626222753 21.236230289860686 5.1873396212586411e-16  1.0000000000000095 63.449895514329832 23.600000000000001 2.141842990487521e-16  1 75.000000000000014 23.600000000000001 2.1418429904875208e-16  1
 0 8 1 8
7 0 0  10 11 2  75 16.399999999999999 4.4408920985006262e-16  74.999999999999105 16.399999999999604 -1.1309733552923305  75.000000000003425 16.79478310376723 -2.2619466123468186  74.999999999990621 17.584359092398095 -3.2378894610108695  75.000000000018389 18.699105966034271 -3.9037644524379904  74.999999999974861 19.999999999989107 -4.1409952222257402  75.00000000002386 21.300894033984143 -3.9037644524380775  74.999999999984084 22.415640907590802 -3.2378894610107412  75.000000000007219 23.205216896237388 -2.261946612346911  74.999999999998124 23.599999999999262 -1.1309733552923047  75.000000000000014 23.600000000000001 2.1418429904875208e-16 
 0 11 3.1415926535897931 11
7 0 0  10 11 2  2.8284271247461912 -2.8284271247461912 -4.4408920985006262e-16  2.8284271247462276 -2.8284271247462276 0.50265482457439326  2.5182562250010312 -2.5182562250010312 1.0053096054873778  1.8979067407489889 -1.8979067407489889 1.4390619826717084  1.0220788811419279 -1.0220788811419279 1.7350064233054643  4.6762593797211755e-13 -4.6762593797211755e-13 1.8404423209895382  -1.0220788811427488 1.0220788811427488 1.73500642330558  -1.8979067407484411 1.8979067407484411 1.4390619826715594  -2.5182562250012874 2.5182562250012874 1.0053096054874726  -2.8284271247461601 2.8284271247461601 0.50265482457436672  -2.8284271247461903 2.8284271247461903 -2.2204460492503131e-16 
 0 11 3.1415926535897931 11
7 0 0  10 11 2  75 16.399999999999999 -4.4408920985006262e-16  74.999999999999105 16.399999999999604 1.1309733552923305  75.000000000003425 16.79478310376723 2.2619466123468186  74.999999999990621 17.584359092398095 3.2378894610108695  75.000000000018389 18.699105966034271 3.9037644524379904  74.999999999974861 19.999999999989107 4.1409952222257402  75.00000000002386 21.300894033984143 3.9037644524380775  74.999999999984084 22.415640907590802 3.2378894610107412  75.000000000007219 23.205216896237388 2.261946612346911  74.999999999998124 23.599999999999262 1.1309733552923047  75.000000000000014 23.600000000000001 -2.1418429904875208e-16 
 0 11 3.1415926535897931 11
1 75 15.5 2.7554552980815448e-16 0 1 -6.1232339957367759e-17 
1 75 24.5 -8.2663658942446333e-16 0 -1 1.8369701987210317e-16 
Polygon3D 0
PolygonOnTriangulations 0
Surfaces 8
9 1 0 0 0 10 7 11 8 2 2 3.5355339059327386 -3.5355339059327386 4.4408920985006262e-16  1 9.6048855423786907 5.6779402750195374 -5.742238377723344e-16  0.99999999999999989 18.214762018199355 14.344823330601708 -3.1843740466902976e-15  1.0000000000000058 31.904943295729403 14.237869646355081 1.2028108957336017e-14  0.99999999999998868 37.172160522651843 17.64988141136174 -8.7773709183773399e-15  1.0000000000000071 52.812746249130484 14.81612372870539 2.3298725788871153e-15  0.99999999999999833 63.447227270624914 15.5 0  1 75 15.5 0  1 
3.5355339059328195 -3.5355339059328195 -0.62831853071801369  1 9.604885542379284 5.6779402750195667 -0.73164124169730604  0.99999999999999989 18.214762018200037 14.344823330601164 -1.0469888149911395  1.0000000000000058 31.904943295730241 14.237869646359984 -0.39948502431303995  0.99999999999998868 37.172160522650039 17.649881411357878 -2.4092611365725189  1.0000000000000071 52.812746249132488 14.816123728706323 -1.1284938924273324  0.99999999999999833 63.447227270625511 15.499999999999938 -1.4137166941154204  1 74.999999999999105 15.49999999999994 -1.4137166941154202  1 
3.1478202812511471 -3.1478202812511471 -1.2566370068591419  1 9.2729214810444986 6.0754899681670214 -1.463282419842884  0.99999999999999989 17.996467481271083 14.829610120007128 -2.0939775390394035  1.0000000000000058 31.697282681850869 14.286806537772526 -0.79897001392370559  0.99999999999998868 37.435707603251764 18.516402695092999 -4.8185220638754691  1.0000000000000071 52.733554746481623 15.206631940884614 -2.2569876868315566  0.99999999999999833 63.447227270622655 15.993478879707236 -2.8274332654334846  1 75.000000000003425 15.993478879707238 -2.8274332654334842  1 
2.3723834259365431 -2.3723834259365431 -1.7988274783398068  1 8.6089851336806884 6.8705992041127821 -2.0946324284719631  0.99999999999999989 17.559872998990649 15.799195709829741 -2.9974482015801436  1.0000000000000058 31.28195630911361 14.384681533173158 -1.1436948041305759  0.99999999999998868 37.962808294048074 20.249466731308765 -6.897528758237212  1.0000000000000071 52.575169779178417 15.987658040456525 -3.2307909501209608  0.99999999999999833 63.447227270628531 16.98044886550209 -4.0473618262637086  1 74.999999999990621 16.98044886550209 -4.0473618262637086  1 
1.2775986014269276 -1.2775986014269276 -2.1687580291315651  1 7.6716200438365361 7.9931580809223801 -2.5253955435015549  0.99999999999999989 16.943475918531011 17.168085494405027 -3.6138762234641644  1.0000000000000058 30.695586178585053 14.522864363617154 -1.3788967086524706  0.99999999999998868 38.706984732566291 22.696258103010518 -8.3160119887771682  1.0000000000000071 52.351557169731038 17.090333926265838 -3.8952061261517525  0.99999999999999833 63.447227270621916 18.373882457535071 -4.8797055655472787  1 75.000000000018389 18.373882457535071 -4.8797055655472787  1 
1.1719514247943195e-12 -1.1719514247943195e-12 -2.3005529012372383  1 6.5777280744114703 9.3031686135167266 -2.6788631863653043  0.99999999999999989 16.224149133738432 18.76556075628185 -3.8334905595379762  1.0000000000000058 30.011300424905656 14.684121797300168 -1.462691909845385  0.99999999999998868 39.575428243818408 25.551629463869848 -8.8213739156197359  1.0000000000000071 52.09060437734513 18.377141286086164 -4.1319168086379028  0.99999999999999833 63.447227270625667 19.999999999996184 -5.1762440277824107  1 74.999999999974861 19.999999999996184 -5.1762440277824107  1 
-1.2775986014289811 1.2775986014289811 -2.1687580291316819  1 5.4838361049540145 10.613179146115629 -2.5253955435017352  0.99999999999999989 15.504822348881138 20.363036018212849 -3.613876223464215  1.0000000000000058 29.327014671318086 14.845379230678686 -1.3788967086533002  0.99999999999998868 40.443871755058836 28.407000824990529 -8.3160119887766726  1.0000000000000071 51.829651584897462 19.663948645853612 -3.8952061261520572  0.99999999999999833 63.447227270625788 21.626117542471153 -4.879705565547396  1 75.00000000002386 21.626117542471153 -4.879705565547396  1 
-2.3723834259351833 2.3723834259351833 -1.7988274783396521  1 4.5464710151344043 11.735738022921637 -2.0946324284717539  0.99999999999999989 14.888425268470534 21.73192580274673 -2.9974482015801169  1.0000000000000058 28.740644540721632 14.983562061355201 -1.1436948041293928  0.99999999999998868 41.188048193587157 30.853792196494638 -6.8975287582379137  1.0000000000000071 51.606038975498372 20.766624531703982 -3.2307909501205487  0.99999999999999833 63.447227270623706 23.019551134494478 -4.047361826263554  1 74.999999999984084 23.019551134494474 -4.047361826263554  1 
-3.1478202812517777 3.1478202812517777 -1.256637006859245  1 3.8825346677568429 12.530847258869537 -1.4632824198430057  0.99999999999999989 14.451830786163059 22.701511392593083 -2.093977539039428  1.0000000000000058 28.32531816801977 15.081437056623322 -0.79897001392448364  0.99999999999998868 41.715148884378252 32.586856232821489 -4.8185220638750348  1.0000000000000071 51.447654008166793 21.547650631251887 -2.2569876868317986  0.99999999999999833 63.447227270625731 24.006521120294064 -2.8274332654335819  1 75.000000000007219 24.006521120294067 -2.8274332654335823  1 
-3.5355339059326556 3.5355339059326556 -0.62831853071798205  1 3.5505706064273257 12.928396952016087 -0.73164124169727363  0.99999999999999989 14.233536249244064 23.186298181990281 -1.0469888149911422  1.0000000000000058 28.117657554128364 15.130373948086152 -0.39948502431278238  0.99999999999998868 41.978695964980815 33.453377516515026 -2.4092611365726784  1.0000000000000071 51.368462505527397 21.938158843439282 -1.1284938924272563  0.99999999999999833 63.447227270624651 24.499999999999744 -1.4137166941153956  1 74.999999999998124 24.499999999999748 -1.4137166941153954  1 
-3.5355339059327386 3.5355339059327386 2.2204460492503131e-16  1 3.5505706064268643 12.92839695201633 -1.5975347728255742e-15  0.99999999999999989 14.233536249242547 23.186298181990903 -5.559004606855246e-15  1.0000000000000058 28.117657554132329 15.130373948082415 1.4762487599297348e-14  0.99999999999998868 41.978695964977959 33.453377516518131 -1.3515968997086305e-14  1.0000000000000071 51.368462505527539 21.938158843438853 1.6901778625232096e-15  0.99999999999999833 63.447227270624914 24.500000000000004 -1.5086264655892687e-15  1 75.000000000000014 24.5 -1.5086264655892687e-15  1 

0 11
3.1415926535897931 11

0 8
1 8

9 1 0 0 0 10 7 11 8 2 2 3.5355339059327386 -3.5355339059327386 -4.4408920985006262e-16  1 9.6048855423786907 5.6779402750195374 5.742238377723344e-16  0.99999999999999989 18.214762018199355 14.344823330601708 3.1843740466902976e-15  1.0000000000000058 31.904943295729403 14.237869646355081 -1.2028108957336017e-14  0.99999999999998868 37.172160522651843 17.64988141136174 8.7773709183773399e-15  1.0000000000000071 52.812746249130484 14.81612372870539 -2.3298725788871153e-15  0.99999999999999833 63.447227270624914 15.5 0  1 75 15.5 0  1 
3.5355339059328195 -3.5355339059328195 0.62831853071801369  1 9.604885542379284 5.6779402750195667 0.73164124169730604  0.99999999999999989 18.214762018200037 14.344823330601164 1.0469888149911395  1.0000000000000058 31.904943295730241 14.237869646359984 0.39948502431303995  0.99999999999998868 37.172160522650039 17.649881411357878 2.4092611365725189  1.0000000000000071 52.812746249132488 14.816123728706323 1.1284938924273324  0.99999999999999833 63.447227270625511 15.499999999999938 1.4137166941154204  1 74.999999999999105 15.49999999999994 1.4137166941154202  1 
3.1478202812511471 -3.1478202812511471 1.2566370068591419  1 9.2729214810444986 6.0754899681670214 1.463282419842884  0.99999999999999989 17.996467481271083 14.829610120007128 2.0939775390394035  1.0000000000000058 31.697282681850869 14.286806537772526 0.79897001392370559  0.99999999999998868 37.435707603251764 18.516402695092999 4.8185220638754691  1.0000000000000071 52.733554746481623 15.206631940884614 2.2569876868315566  0.99999999999999833 63.447227270622655 15.993478879707236 2.8274332654334846  1 75.000000000003425 15.993478879707238 2.8274332654334842  1 
2.3723834259365431 -2.3723834259365431 1.7988274783398068  1 8.6089851336806884 6.8705992041127821 2.0946324284719631  0.99999999999999989 17.559872998990649 15.799195709829741 2.9974482015801436  1.0000000000000058 31.28195630911361 14.384681533173158 1.1436948041305759  0.99999999999998868 37.962808294048074 20.249466731308765 6.897528758237212  1.0000000000000071 52.575169779178417 15.987658040456525 3.2307909501209608  0.99999999999999833 63.447227270628531 16.98044886550209 4.0473618262637086  1 74.999999999990621 16.98044886550209 4.0473618262637086  1 
1.2775986014269276 -1.2775986014269276 2.1687580291315651  1 7.6716200438365361 7.9931580809223801 2.5253955435015549  0.99999999999999989 16.943475918531011 17.168085494405027 3.6138762234641644  1.0000000000000058 30.695586178585053 14.522864363617154 1.3788967086524706  0.99999999999998868 38.706984732566291 22.696258103010518 8.3160119887771682  1.0000000000000071 52.351557169731038 17.090333926265838 3.8952061261517525  0.99999999999999833 63.447227270621916 18.373882457535071 4.8797055655472787  1 75.000000000018389 18.373882457535071 4.8797055655472787  1 
1.1719514247943195e-12 -1.1719514247943195e-12 2.3005529012372383  1 6.5777280744114703 9.3031686135167266 2.6788631863653043  0.99999999999999989 16.224149133738432 18.76556075628185 3.8334905595379762  1.0000000000000058 30.011300424905656 14.684121797300168 1.462691909845385  0.99999999999998868 39.575428243818408 25.551629463869848 8.8213739156197359  1.0000000000000071 52.09060437734513 18.377141286086164 4.1319168086379028  0.99999999999999833 63.447227270625667 19.999999999996184 5.1762440277824107  1 74.999999999974861 19.999999999996184 5.1762440277824107  1 
-1.2775986014289811 1.2775986014289811 2.1687580291316819  1 5.4838361049540145 10.613179146115629 2.5253955435017352  0.99999999999999989 15.504822348881138 20.363036018212849 3.613876223464215  1.0000000000000058 29.327014671318086 14.845379230678686 1.3788967086533002  0.99999999999998868 40.443871755058836 28.407000824990529 8.3160119887766726  1.0000000000000071 51.829651584897462 19.663948645853612 3.8952061261520572  0.99999999999999833 63.447227270625788 21.626117542471153 4.879705565547396  1 75.00000000002386 21.626117542471153 4.879705565547396  1 
-2.3723834259351833 2.3723834259351833 1.7988274783396521  1 4.5464710151344043 11.735738022921637 2.0946324284717539  0.99999999999999989 14.888425268470534 21.73192580274673 2.9974482015801169  1.0000000000000058 28.740644540721632 14.983562061355201 1.1436948041293928  0.99999999999998868 41.188048193587157 30.853792196494638 6.8975287582379137  1.0000000000000071 51.606038975498372 20.766624531703982 3.2307909501205487  0.99999999999999833 63.447227270623706 23.019551134494478 4.047361826263554  1 74.999999999984084 23.019551134494474 4.047361826263554  1 
-3.1478202812517777 3.1478202812517777 1.256637006859245  1 3.8825346677568429 12.530847258869537 1.4632824198430057  0.99999999999999989 14.451830786163059 22.701511392593083 2.093977539039428  1.0000000000000058 28.32531816801977 15.081437056623322 0.79897001392448364  0.99999999999998868 41.715148884378252 32.586856232821489 4.8185220638750348  1.0000000000000071 51.447654008166793 21.547650631251887 2.2569876868317986  0.99999999999999833 63.447227270625731 24.006521120294064 2.8274332654335819  1 75.000000000007219 24.006521120294067 2.8274332654335823  1 
-3.5355339059326556 3.5355339059326556 0.62831853071798205  1 3.5505706064273257 12.928396952016087 0.73164124169727363  0.99999999999999989 14.233536249244064 23.186298181990281 1.0469888149911422  1.0000000000000058 28.117657554128364 15.130373948086152 0.39948502431278238  0.99999999999998868 41.978695964980815 33.453377516515026 2.4092611365726784  1.0000000000000071 51.368462505527397 21.938158843439282 1.1284938924272563  0.99999999999999833 63.447227270624651 24.499999999999744 1.4137166941153956  1 74.999999999998124 24.499999999999748 1.4137166941153954  1 
-3.5355339059327386 3.5355339059327386 -2.2204460492503131e-16  1 3.5505706064268643 12.92839695201633 1.5975347728255742e-15  0.99999999999999989 14.233536249242547 23.186298181990903 5.559004606855246e-15  1.0000000000000058 28.117657554132329 15.130373948082415 -1.4762487599297348e-14  0.99999999999998868 41.978695964977959 33.453377516518131 1.3515968997086305e-14  1.0000000000000071 51.368462505527539 21.938158843438853 -1.6901778625232096e-15  0.99999999999999833 63.447227270624914 24.500000000000004 1.5086264655892687e-15  1 75.000000000000014 24.5 1.5086264655892687e-15  1 

0 11
3.1415926535897931 11

0 8
1 8

1 3.5355339059327378 -3.5355339059327378 0 -0.70710678118654746 -0.70710678118654746 0 -0.70710678118654757 0.70710678118654757 0 -0 0 -1 
1 75 15.5 2.7554552980815448e-16 -1 0 0 0 0 -1 -0 -1 -0 
1 3.5355339059327378 -3.5355339059327378 0 -0.70710678118654757 -0.70710678118654757 -0 -0.70710678118654757 0.70710678118654757 -0 -0 0 1 
1 75 15.5 -2.7554552980815448e-16 -1 -0 -0 -0 -0 1 -0 -1 0 
9 1 0 0 0 10 7 11 8 2 2 2.8284271247461912 -2.8284271247461912 4.4408920985006262e-16  1 9.0159805468327825 6.4281751612018496 2.0133058846416192e-16  1 17.777778499972118 15.165580394866463 -8.0236115873956118e-16  0.99999999999998979 31.571168515292573 14.409868988290894 5.8731757129539919e-15  1.0000000000000278 37.64839458161984 19.182925960538899 -3.5800583136374853e-15  0.99999999999997424 52.67616934408646 15.539676739546138 1.5172914623676952e-15  1.0000000000000095 63.449895514329839 16.399999999999999 4.4408920985006262e-16  1 75 16.399999999999999 4.4408920985006262e-16  1 
2.8284271247462276 -2.8284271247462276 -0.50265482457439326  1 9.0159805468328216 6.4281751612018621 -0.58553428033384047  1 17.777778499971209 15.165580394865655 -0.83702922341251151  0.99999999999998979 31.571168515297988 14.409868988295917 -0.32030380321158969  1.0000000000000278 37.648394581614838 19.182925960534281 -1.9273256235209786  0.99999999999997424 52.676169344089331 15.539676739546854 -0.90272885493142008  1.0000000000000095 63.449895514330436 16.399999999999601 -1.1309733552923305  1 74.999999999999105 16.399999999999604 -1.1309733552923305  1 
2.5182562250010312 -2.5182562250010312 -1.0053096054873778  1 8.7505280572964637 6.7462367156950842 -1.1710685098071594  1 17.602833142044837 15.553363260898562 -1.674058374119779  0.99999999999998979 31.405486331285697 14.449023136926375 -0.64060757859783735  1.0000000000000278 37.85906535224138 19.876260232829232 -3.8546510796345723  0.99999999999997424 52.612831948476334 15.852024391121061 -1.8054576314498902  1.0000000000000095 63.449895514327579 16.79478310376723 -2.2619466123468186  1 75.000000000003425 16.79478310376723 -2.2619466123468186  1 
1.8979067407489889 -1.8979067407489889 -1.4390619826717084  1 8.2196165014000666 7.3823677049416423 -1.676339470317372  1 17.252938091745996 16.328938600612986 -2.3963500893836529  0.99999999999998979 31.074117858447767 14.527332404383019 -0.91700507699040601  1.0000000000000278 38.280412112952412 21.262945955287442 -5.5177845659494009  0.99999999999997424 52.486155588068115 16.476727432979835 -2.5844430656618647  1.0000000000000095 63.449895514333448 17.584359092398095 -3.2378894610108699  1 74.999999999990621 17.584359092398095 -3.2378894610108695  1 
1.0220788811419279 -1.0220788811419279 -1.7350064233054643  1 7.4700597701643572 8.2804763628600888 -2.021080247871553  1 16.758945849069651 17.423918941557226 -2.8891617231474176  0.99999999999998979 30.606281988837953 14.637891757957481 -1.1055880274247882  1.0000000000000278 38.875282006554237 23.220710117598962 -6.6525221148448219  0.99999999999997424 52.307310133244791 17.358701774719187 -3.1159361956481719  1.0000000000000095 63.44989551432684 18.699105966034271 -3.9037644524379909  1 75.000000000018389 18.699105966034271 -3.9037644524379904  1 
4.6762593797211755e-13 -4.6762593797211755e-13 -1.8404423209895382  1 6.5953375324381369 9.3285566244738707 -2.1439007788875823  1 16.182463800463946 18.701745707871858 -3.064735343935824  0.99999999999998979 30.060324062636926 14.76691297991343 -1.1727743297930939  1.0000000000000278 39.569486864737151 25.505393554351894 -7.0567941864600172  0.99999999999997424 52.098599985188997 18.387953514714269 -3.3052908432768442  1.0000000000000095 63.449895514330578 19.999999999989107 -4.1409952222257402  1 74.999999999974861 19.999999999989107 -4.1409952222257402  1 
-1.0220788811427488 1.0220788811427488 -1.73500642330558  1 5.7206152947181215 10.376636886096147 -2.0210802478716676  1 15.605981751912061 19.97957247426147 -2.8891617231474713  0.99999999999998979 29.514366136174079 14.895934201537747 -1.1055880274253354  1.0000000000000278 40.26369172315826 27.790076991440177 -6.6525221148445537  0.99999999999997424 51.889889837005235 19.417205254669291 -3.1159361956483513  1.0000000000000095 63.449895514330713 21.300894033984143 -3.9037644524380779  1 75.00000000002386 21.300894033984143 -3.9037644524380775  1 
-1.8979067407484411 1.8979067407484411 -1.4390619826715594  1 4.9710585634781923 11.274745544008159 -1.6763394703172221  1 15.111989509197203 21.074552815149307 -2.3963500893835668  0.99999999999998979 29.04653026675712 15.006493555362955 -0.91700507698972389  1.0000000000000278 40.858561616586826 29.747841153500076 -5.5177845659496922  0.99999999999997424 51.711044382278359 20.299179596439458 -2.584443065661632  1.0000000000000095 63.449895514328631 22.415640907590799 -3.2378894610107416  1 74.999999999984084 22.415640907590802 -3.2378894610107412  1 
-2.5182562250012874 2.5182562250012874 -1.0053096054874726  1 4.4401470075837057 11.910876533258277 -1.1710685098072586  1 14.762094458918183 21.850128154895057 -1.6740583741198436  0.99999999999998979 28.715161793814971 15.084802822679471 -0.6406075785982992  1.0000000000000278 41.279908377390043 31.134526876097311 -3.8546510796343862  0.99999999999997424 51.584368021816545 20.92388263828046 -1.8054576314500514  1.0000000000000095 63.449895514330656 23.205216896237385 -2.261946612346911  1 75.000000000007219 23.205216896237388 -2.261946612346911  1 
-2.8284271247461601 2.8284271247461601 -0.50265482457436672  1 4.1746945180467883 12.228938087750157 -0.58553428033381372  1 14.587149100984806 22.237911020916648 -0.83702922341252328  0.99999999999998979 28.549479609841558 15.123956971361764 -0.3203038032113672  1.0000000000000278 41.490579147982118 31.82786114834126 -1.9273256235211105  0.99999999999997424 51.521030626224039 21.236230289861044 -0.90272885493134847  1.0000000000000095 63.449895514329569 23.599999999999262 -1.1309733552923047  1 74.999999999998124 23.599999999999262 -1.1309733552923047  1 
-2.8284271247461903 2.8284271247461903 2.2204460492503131e-16  1 4.1746945180469197 12.228938087750445 -4.3498515050138725e-16  1 14.587149100985133 22.237911020917949 -1.2111033831702273e-15  0.99999999999998979 28.549479609839526 15.123956971356947 2.3425383791132212e-15  1.0000000000000278 41.490579147983965 31.827861148346255 -1.0269151715707795e-15  0.99999999999997424 51.521030626222753 21.236230289860686 5.1873396212586411e-16  1.0000000000000095 63.449895514329832 23.600000000000001 2.141842990487521e-16  1 75.000000000000014 23.600000000000001 2.1418429904875208e-16  1 

0 11
3.1415926535897931 11

0 8
1 8

9 1 0 0 0 10 7 11 8 2 2 2.8284271247461912 -2.8284271247461912 -4.4408920985006262e-16  1 9.0159805468327825 6.4281751612018496 -2.0133058846416192e-16  1 17.777778499972118 15.165580394866463 8.0236115873956118e-16  0.99999999999998979 31.571168515292573 14.409868988290894 -5.8731757129539919e-15  1.0000000000000278 37.64839458161984 19.182925960538899 3.5800583136374853e-15  0.99999999999997424 52.67616934408646 15.539676739546138 -1.5172914623676952e-15  1.0000000000000095 63.449895514329839 16.399999999999999 -4.4408920985006262e-16  1 75 16.399999999999999 -4.4408920985006262e-16  1 
2.8284271247462276 -2.8284271247462276 0.50265482457439326  1 9.0159805468328216 6.4281751612018621 0.58553428033384047  1 17.777778499971209 15.165580394865655 0.83702922341251151  0.99999999999998979 31.571168515297988 14.409868988295917 0.32030380321158969  1.0000000000000278 37.648394581614838 19.182925960534281 1.9273256235209786  0.99999999999997424 52.676169344089331 15.539676739546854 0.90272885493142008  1.0000000000000095 63.449895514330436 16.399999999999601 1.1309733552923305  1 74.999999999999105 16.399999999999604 1.1309733552923305  1 
2.5182562250010312 -2.5182562250010312 1.0053096054873778  1 8.7505280572964637 6.7462367156950842 1.1710685098071594  1 17.602833142044837 15.553363260898562 1.674058374119779  0.99999999999998979 31.405486331285697 14.449023136926375 0.64060757859783735  1.0000000000000278 37.85906535224138 19.876260232829232 3.8546510796345723  0.99999999999997424 52.612831948476334 15.852024391121061 1.8054576314498902  1.0000000000000095 63.449895514327579 16.79478310376723 2.2619466123468186  1 75.000000000003425 16.79478310376723 2.2619466123468186  1 
1.8979067407489889 -1.8979067407489889 1.4390619826717084  1 8.2196165014000666 7.3823677049416423 1.676339470317372  1 17.252938091745996 16.328938600612986 2.3963500893836529  0.99999999999998979 31.074117858447767 14.527332404383019 0.91700507699040601  1.0000000000000278 38.280412112952412 21.262945955287442 5.5177845659494009  0.99999999999997424 52.486155588068115 16.476727432979835 2.5844430656618647  1.0000000000000095 63.449895514333448 17.584359092398095 3.2378894610108699  1 74.999999999990621 17.584359092398095 3.2378894610108695  1 
1.0220788811419279 -1.0220788811419279 1.7350064233054643  1 7.4700597701643572 8.2804763628600888 2.021080247871553  1 16.758945849069651 17.423918941557226 2.8891617231474176  0.99999999999998979 30.606281988837953 14.637891757957481 1.1055880274247882  1.0000000000000278 38.875282006554237 23.220710117598962 6.6525221148448219  0.99999999999997424 52.307310133244791 17.358701774719187 3.1159361956481719  1.0000000000000095 63.44989551432684 18.699105966034271 3.9037644524379909  1 75.000000000018389 18.699105966034271 3.9037644524379904  1 
4.6762593797211755e-13 -4.6762593797211755e-13 1.8404423209895382  1 6.5953375324381369 9.3285566244738707 2.1439007788875823  1 16.182463800463946 18.701745707871858 3.064735343935824  0.99999999999998979 30.060324062636926 14.76691297991343 1.1727743297930939  1.0000000000000278 39.569486864737151 25.505393554351894 7.0567941864600172  0.99999999999997424 52.098599985188997 18.387953514714269 3.3052908432768442  1.0000000000000095 63.449895514330578 19.999999999989107 4.1409952222257402  1 74.999999999974861 19.999999999989107 4.1409952222257402  1 
-1.0220788811427488 1.0220788811427488 1.73500642330558  1 5.7206152947181215 10.376636886096147 2.0210802478716676  1 15.605981751912061 19.97957247426147 2.8891617231474713  0.99999999999998979 29.514366136174079 14.895934201537747 1.1055880274253354  1.0000000000000278 40.26369172315826 27.790076991440177 6.6525221148445537  0.99999999999997424 51.889889837005235 19.417205254669291 3.1159361956483513  1.0000000000000095 63.449895514330713 21.300894033984143 3.9037644524380779  1 75.00000000002386 21.300894033984143 3.9037644524380775  1 
-1.8979067407484411 1.8979067407484411 1.4390619826715594  1 4.9710585634781923 11.274745544008159 1.6763394703172221  1 15.111989509197203 21.074552815149307 2.3963500893835668  0.99999999999998979 29.04653026675712 15.006493555362955 0.91700507698972389  1.0000000000000278 40.858561616586826 29.747841153500076 5.5177845659496922  0.99999999999997424 51.711044382278359 20.299179596439458 2.584443065661632  1.0000000000000095 63.449895514328631 22.415640907590799 3.2378894610107416  1 74.999999999984084 22.415640907590802 3.2378894610107412  1 
-2.5182562250012874 2.5182562250012874 1.0053096054874726  1 4.4401470075837057 11.910876533258277 1.1710685098072586  1 14.762094458918183 21.850128154895057 1.6740583741198436  0.99999999999998979 28.715161793814971 15.084802822679471 0.6406075785982992  1.0000000000000278 41.279908377390043 31.134526876097311 3.8546510796343862  0.99999999999997424 51.584368021816545 20.92388263828046 1.8054576314500514  1.0000000000000095 63.449895514330656 23.205216896237385 2.261946612346911  1 75.000000000007219 23.205216896237388 2.261946612346911  1 
-2.8284271247461601 2.8284271247461601 0.50265482457436672  1 4.1746945180467883 12.228938087750157 0.58553428033381372  1 14.587149100984806 22.237911020916648 0.83702922341252328  0.99999999999998979 28.549479609841558 15.123956971361764 0.3203038032113672  1.0000000000000278 41.490579147982118 31.82786114834126 1.9273256235211105  0.99999999999997424 51.521030626224039 21.236230289861044 0.90272885493134847  1.0000000000000095 63.449895514329569 23.599999999999262 1.1309733552923047  1 74.999999999998124 23.599999999999262 1.1309733552923047  1 
-2.8284271247461903 2.8284271247461903 -2.2204460492503131e-16  1 4.1746945180469197 12.228938087750445 4.3498515050138725e-16  1 14.587149100985133 22.237911020917949 1.2111033831702273e-15  0.99999999999998979 28.549479609839526 15.123956971356947 -2.3425383791132212e-15  1.0000000000000278 41.490579147983965 31.827861148346255 1.0269151715707795e-15  0.99999999999997424 51.521030626222753 21.236230289860686 -5.1873396212586411e-16  1.0000000000000095 63.449895514329832 23.600000000000001 -2.141842990487521e-16  1 75.000000000000014 23.600000000000001 -2.1418429904875208e-16  1 

0 11
3.1415926535897931 11

0 8
1 8

Triangulations 0

TShapes 42
Ve
1.00000011584738e-07
3.53553390593274 -3.53553390593274 0
0 0

0101101
*
Ve
2.00001022062862e-07
75 15.5 -6.88863824520386e-17
0 0

0101101
*
Ed
 1e-07 1 1 0
1  1 0 0 1
2  1 1 0 0 1
2  2 2 0 0 1
0

0101000
+42 0 -41 0 *
Ve
2.00001005003195e-07
-3.53553390593273 3.53553390593274 -7.40818758532816e-16
0 0

0101101
*
Ed
 1e-07 1 1 0
1  2 0 0 3.14159265358979
2  3 1 0 0 3.14159265358979
2  4 3 0 0 3.14159265358979
0

0101000
+42 0 -39 0 *
Ve
2.00001041588069e-07
75 24.5 2.06659147356116e-16
0 0

0101101
*
Ed
 1e-07 1 1 0
1  3 0 0 1
2  5 1 0 0 1
2  6 2 0 0 1
0

0101000
+39 0 -37 0 *
Ed
 1e-07 1 1 0
1  4 0 0 3.14159265358979
2  7 1 0 0 3.14159265358979
2  8 4 0 0 3.14159265358979
0

0101000
+41 0 -37 0 *
Wi

0101000
-40 0 +38 0 +36 0 -35 0 *
Fa
1  1e-07 1 0

0111000
+34 0 *
Ed
 1e-07 1 1 0
1  5 0 0 3.14159265358979
2  3 2 0 0 3.14159265358979
2  9 5 0 0 3.14159265358979
0

0101000
+42 0 -39 0 *
Ed
 1e-07 1 1 0
1  6 0 0 3.14159265358979
2  7 2 0 0 3.14159265358979
2  10 6 0 0 3.14159265358979
0

0101000
+41 0 -37 0 *
Wi

0101000
-40 0 +32 0 +36 0 -31 0 *
Fa
1  1e-07 2 0

0111000
+30 0 *
Ve
1.00000003092948e-07
2.82842712474619 -2.82842712474619 0
0 0

0101101
*
Ed
 1e-07 1 1 0
1  7 0 0 1
2  11 3 0 0 1
2  12 5 0 0 1
0

0101000
+42 0 -28 0 *
Ve
2.000010012582e-07
-2.82842712474619 2.82842712474619 9.68596121552874e-16
0 0

0101101
*
Ed
 1e-07 1 1 0
1  8 0 0 3.14159265358979
2  13 7 0 0 3.14159265358979
2  14 3 0 0 3.14159265358979
0

0101000
+28 0 -26 0 *
Ed
 1e-07 1 1 0
1  9 0 0 1
2  15 3 0 0 1
2  16 5 0 0 1
0

0101000
+39 0 -26 0 *
Wi

0101000
+38 0 -27 0 -25 0 +24 0 *
Fa
0  1e-07 3 0

0111000
-23 0 *
Ve
2.00001030198519e-07
75 16.4 -5.51091059616309e-17
0 0

0101101
*
Ed
 1e-07 1 1 0
1  10 0 0 1
2  17 7 0 0 1
2  18 8 0 0 1
0

0101000
+28 0 -21 0 *
Ve
2.00001064344293e-07
75 23.5999999999999 1.65327317884893e-16
0 0

0101101
*
Ed
 1e-07 1 1 0
1  11 0 0 1
2  19 7 0 0 1
2  20 8 0 0 1
0

0101000
+26 0 -19 0 *
Ed
 1e-07 1 1 0
1  12 0 0 3.14159265358979
2  21 7 0 0 3.14159265358979
2  22 4 0 0 3.14159265358979
0

0101000
+21 0 -19 0 *
Wi

0101000
-20 0 +25 0 +18 0 -17 0 *
Fa
1  1e-07 7 0

0111000
+16 0 *
Ed
 1e-07 1 1 0
1  13 0 0 3.14159265358979
2  13 8 0 0 3.14159265358979
2  23 5 0 0 3.14159265358979
0

0101000
+28 0 -26 0 *
Ed
 1e-07 1 1 0
1  14 0 0 3.14159265358979
2  21 8 0 0 3.14159265358979
2  24 6 0 0 3.14159265358979
0

0101000
+21 0 -19 0 *
Wi

0101000
-20 0 +14 0 +18 0 -13 0 *
Fa
1  1e-07 8 0

0111000
+12 0 *
Wi

0101000
+32 0 -27 0 -14 0 +24 0 *
Fa
0  1e-07 5 0

0111000
-10 0 *
Ed
 1e-07 1 1 0
1  15 0 0 0.899999999999999
2  25 4 0 0 0.899999999999999
2  26 6 0 0 0.899999999999999
0

0101000
+41 0 -21 0 *
Ed
 1e-07 1 1 0
1  16 0 0 0.899999999999999
2  27 4 0 0 0.899999999999999
2  28 6 0 0 0.899999999999999
0

0101000
+37 0 -19 0 *
Wi

0101000
+35 0 -8 0 -17 0 +7 0 *
Fa
0  1e-07 4 0

0111000
-6 0 *
Wi

0101000
+31 0 -8 0 -13 0 +7 0 *
Fa
0  1e-07 6 0

0111000
-4 0 *
Sh

0101100
+33 0 -29 0 +22 0 -15 0 +11 0 -9 0 -5 0 +3 0 *
So

1100000
+2 0 *

+1 0 