DBRep_DrawableShape

CASCADE Topology V1, (c) Matra-Datavision
Locations 4
1
              1               0               0               0 
              0               1               0               0 
              0               0               1              40 
2  1 -1 0
1
              1               0               0            62.5 
              0               1               0               0 
              0               0               1               0 
2  3 -1 0
Curve2ds 98
1 0 0 1 0 
1 0 0 1 0 
1 0 0 0 -1 
1 0 0 0 1 
1 0 -10 1 0 
1 0 0 1 0 
1 50 0 0 -1 
1 0 0 0 1 
1 0 -40 1 0 
1 0 0 1 0 
1 0 0 0 -1 
1 0 0 0 1 
1 50 0 0 1 
1 0 0 1 0 
1 0 0 1 0 
1 0 50 1 0 
1 0 0 0 1 
1 0 0 1 0 
1 0 0 0 1 
1 0 0 1 0 
1 0 0 1 0 
1 0 0 1 0 
1 0 0 0 -1 
1 50 0 0 1 
1 0 0 0 1 
1 0 10 1 0 
1 10 0 0 1 
1 0 10 1 0 
1 0 -10 1 0 
1 0 50 1 0 
1 10 0 0 -1 
1 50 0 0 1 
1 50 0 0 -1 
1 0 0 0 1 
1 50 0 0 1 
1 0 15 1 0 
1 50 0 0 -1 
1 5 0 0 1 
1 50 0 0 -1 
1 120 0 0 1 
1 50 0 0 1 
1 0 40 1 0 
8 11.25 16.25
1 85 11.25 0 1 
8 11.25 16.25
1 25 11.25 0 -1 
8 -47.5 -37.5
1 37.5 22.5 -1 0 
8 -47.5 -37.5
1 25 -37.5 0 -1 
8 11.25 16.25
1 75 11.25 0 1 
8 11.25 16.25
1 25 11.25 0 -1 
8 -47.5 -37.5
1 37.5 27.5 -1 0 
8 -47.5 -37.5
1 25 -37.5 0 -1 
2 65 25 1 0 -0 1 5
1 0 51 1 0 
1 0 0 0 1 
1 0 40 1 0 
1 0 -40 1 0 
1 0 120 1 0 
2 20 105 1 0 -0 1 5
1 0 41 1 0 
1 0 0 0 -1 
1 0 0 0 1 
1 0 0 0 1 
1 0 15 1 0 
1 0 0 0 -1 
1 5 0 0 1 
1 0 0 0 -1 
1 120 0 0 1 
2 65 25 1 0 -0 1 5
1 0 1 1 0 
1 0 -15 1 0 
1 0 0 1 0 
1 0 -15 1 0 
1 0 5 1 0 
1 0 0 1 0 
1 0 5 1 0 
1 0 0 1 0 
1 0 120 1 0 
2 20 105 1 0 -0 1 5
1 0 1 1 0 
1 0 0 1 0 
1 0 10 1 0 
1 28 0 0 -1 
1 10 0 0 1 
1 0 -5 1 0 
1 0 10 1 0 
1 28 0 0 1 
1 0 0 1 0 
1 0 0 1 0 
1 0 0 1 0 
1 28 0 0 -1 
1 0 0 0 1 
1 0 -5 1 0 
1 0 0 1 0 
1 28 0 0 1 
1 0 5 1 0 
1 6.2831853071795862 -0 0 1 
1 0 -0 0 1 
1 6.2831853071795862 -0 0 1 
1 0 -0 0 1 
Curves 49
1 0 0 0 0 0 1 
1 0 0 0 -0 1 0 
1 0 10 0 0 0 1 
1 0 0 50 -0 1 0 
1 0 40 0 0 0 1 
1 0 0 0 -0 1 0 
1 0 0 50 1 0 -0 
1 50 0 0 0 0 1 
1 0 0 0 1 0 -0 
1 0 0 0 1 0 -0 
1 0 0 0 0 0 1 
1 50 0 0 -0 1 0 
1 0 10 0 1 0 -0 
1 0 10 10 1 0 -0 
1 50 10 0 0 0 1 
1 50 0 10 0 1 0 
1 0 0 50 -0 1 0 
1 0 15 50 1 0 -0 
1 5 0 50 0 1 0 
1 120 0 50 0 1 0 
1 0 40 50 1 0 -0 
1 85 11.25 50 -0 1 0 
1 37.5 22.5 50 -1 -0 0 
1 75 11.25 50 -0 1 0 
1 37.5 27.5 50 -1 -0 0 
2 65 25 50 0 0 1 1 0 -0 -0 1 0 5
1 0 40 0 1 0 -0 
1 120 40 0 0 0 1 
2 105 40 20 0 1 0 0 -0 1 1 0 -0 5
1 0 0 0 -0 1 0 
1 0 15 0 1 0 -0 
1 5 0 0 -0 1 0 
1 120 0 0 -0 1 0 
2 65 25 0 0 0 1 1 0 -0 -0 1 0 5
1 0 15 0 0 0 1 
1 5 15 0 0 0 1 
1 5 0 0 0 0 1 
1 120 0 0 0 0 1 
2 105 0 20 0 1 0 0 -0 1 1 0 -0 5
1 85 22.5 25 0 0 1 
1 85 22.5 53 0 1 0 
1 85 27.5 25 0 0 1 
1 75 22.5 53 1 0 -0 
1 75 22.5 25 0 0 1 
1 75 22.5 53 -0 1 0 
1 75 27.5 25 0 0 1 
1 75 27.5 53 1 0 -0 
1 70 24.999999999999996 -1 0 0 1 
1 105 -1 25 0 1 0 
Polygon3D 0
PolygonOnTriangulations 102
2 1 2 
p 0.4800000008 1 0 40 
2 5 4 
p 0.4800000008 1 0 40 
2 2 3 
p 0.4800000008 1 0 10 
2 1 2 
p 0.4800000008 1 0 10 
2 3 4 
p 0.4800000008 1 0 10 
2 1 3 
p 0.4800000008 1 0 10 
2 4 5 
p 0.4800000008 1 10 40 
2 1 2 
p 0.4800000008 1 10 40 
2 6 5 
p 0.4800000008 1 0 50 
2 1 3 
p 0.4800000008 1 0 50 
2 1 6 
p 0.4800000008 1 0 40 
2 3 1 
p 0.4800000008 1 0 40 
2 1 2 
p 0.4800000008 1 50 62.5 
2 4 5 
p 0.4800000008 1 50 62.5 
2 3 1 
p 0.4800000008 1 0 10 
2 1 2 
p 0.4800000008 1 0 10 
2 4 3 
p 0.4800000008 1 0 50 
2 1 3 
p 0.4800000008 1 0 50 
2 5 6 
p 0.4800000008 1 0 62.5 
2 3 4 
p 0.4800000008 1 0 62.5 
2 6 2 
p 0.4800000008 1 0 50 
2 1 2 
p 0.4800000008 1 0 50 
2 3 4 
p 0.4800000008 1 0 10 
2 1 3 
p 0.4800000008 1 0 10 
2 2 4 
p 0.4800000008 1 0 50 
2 1 2 
p 0.4800000008 1 0 50 
2 3 4 
p 0.4800000008 1 0 50 
2 1 3 
p 0.4800000008 1 0 50 
2 2 4 
p 0.4800000008 1 0 10 
2 3 4 
p 0.4800000008 1 0 10 
2 4 3 
p 0.4800000008 1 0 10 
2 2 4 
p 0.4800000008 1 0 10 
2 5 6 
p 0.4800000008 1 0 15 
2 2 4 
p 0.4800000008 1 0 15 
2 6 7 
p 0.4800000008 1 0 5 
2 3 4 
p 0.4800000008 1 0 5 
2 8 7 
p 0.4800000008 1 0 15 
2 2 4 
p 0.4800000008 1 0 15 
2 8 9 
p 0.4800000008 1 67.5 120 
2 1 2 
p 0.4800000008 1 67.5 120 
2 9 10 
p 0.4800000008 1 0 40 
2 2 3 
p 0.4800000008 1 0 40 
2 2 10 
p 0.4800000008 1 0 120 
2 3 4 
p 0.4800000008 1 0 120 
2 11 12 
p 0.4800000008 1 11.25 16.25 
2 1 4 
p 0.4800000008 1 11.25 16.25 
2 11 13 
p 0.4800000008 1 -47.5 -37.5 
2 1 4 
p 0.4800000008 1 -47.5 -37.5 
2 13 14 
p 0.4800000008 1 11.25 16.25 
2 1 4 
p 0.4800000008 1 11.25 16.25 
2 12 14 
p 0.4800000008 1 -47.5 -37.5 
2 1 4 
p 0.4800000008 1 -47.5 -37.5 
37 1 3 4 5 6 7 8 9 10 11 12 13 14 15 16 17 18 19 20 21 22 23 24 25 26 27 28 29 30 31 32 33 34 35 36 37 2 
p 0.4800000008 1 0 0.174532925199433 0.349065850398866 0.523598775598299 0.698131700797732 0.872664625997165 1.0471975511966 1.22173047639603 1.39626340159546 1.5707963267949 1.74532925199433 1.91986217719376 2.0943951023932 2.26892802759263 2.44346095279206 2.61799387799149 2.79252680319093 2.96705972839036 3.14159265358979 3.31612557878922 3.49065850398866 3.66519142918809 3.83972435438752 4.01425727958696 4.18879020478639 4.36332312998582 4.53785605518525 4.71238898038469 4.88692190558412 5.06145483078355 5.23598775598299 5.41052068118242 5.58505360638185 5.75958653158128 5.93411945678072 6.10865238198015 6.28318530717959 
37 15 16 17 18 19 20 21 22 23 24 25 26 27 28 29 30 31 32 33 34 35 36 37 38 39 40 41 42 43 44 45 46 47 48 49 50 15 
p 0.4800000008 1 0 0.174532925199433 0.349065850398866 0.523598775598299 0.698131700797732 0.872664625997165 1.0471975511966 1.22173047639603 1.39626340159546 1.5707963267949 1.74532925199433 1.91986217719376 2.0943951023932 2.26892802759263 2.44346095279206 2.61799387799149 2.79252680319093 2.96705972839036 3.14159265358979 3.31612557878922 3.49065850398866 3.66519142918809 3.83972435438752 4.01425727958696 4.18879020478639 4.36332312998582 4.53785605518525 4.71238898038469 4.88692190558412 5.06145483078355 5.23598775598299 5.41052068118242 5.58505360638185 5.75958653158128 5.93411945678072 6.10865238198015 6.28318530717959 
2 1 2 
p 0.4800000008 1 0 120 
2 1 2 
p 0.4800000008 1 0 120 
2 2 4 
p 0.4800000008 1 0 50 
2 4 3 
p 0.4800000008 1 0 50 
37 1 3 4 5 6 7 8 9 10 11 12 13 14 15 16 17 18 19 20 21 22 23 24 25 26 27 28 29 30 31 32 33 34 35 36 37 2 
p 0.4800000008 1 0 0.174532925199433 0.349065850398866 0.523598775598299 0.698131700797732 0.872664625997165 1.0471975511966 1.22173047639603 1.39626340159546 1.5707963267949 1.74532925199433 1.91986217719376 2.0943951023932 2.26892802759263 2.44346095279206 2.61799387799149 2.79252680319093 2.96705972839036 3.14159265358979 3.31612557878922 3.49065850398866 3.66519142918809 3.83972435438752 4.01425727958696 4.18879020478639 4.36332312998582 4.53785605518525 4.71238898038469 4.88692190558412 5.06145483078355 5.23598775598299 5.41052068118242 5.58505360638185 5.75958653158128 5.93411945678072 6.10865238198015 6.28318530717959 
37 5 6 7 8 9 10 11 12 13 14 15 16 17 18 19 20 21 22 23 24 25 26 27 28 29 30 31 32 33 34 35 36 37 38 39 40 5 
p 0.4800000008 1 0 0.174532925199433 0.349065850398866 0.523598775598299 0.698131700797732 0.872664625997165 1.0471975511966 1.22173047639603 1.39626340159546 1.5707963267949 1.74532925199433 1.91986217719376 2.0943951023932 2.26892802759263 2.44346095279206 2.61799387799149 2.79252680319093 2.96705972839036 3.14159265358979 3.31612557878922 3.49065850398866 3.66519142918809 3.83972435438752 4.01425727958696 4.18879020478639 4.36332312998582 4.53785605518525 4.71238898038469 4.88692190558412 5.06145483078355 5.23598775598299 5.41052068118242 5.58505360638185 5.75958653158128 5.93411945678072 6.10865238198015 6.28318530717959 
2 4 5 
p 0.4800000008 1 0 15 
2 1 3 
p 0.4800000008 1 0 15 
2 5 6 
p 0.4800000008 1 0 5 
2 1 2 
p 0.4800000008 1 0 5 
2 7 6 
p 0.4800000008 1 0 15 
2 1 3 
p 0.4800000008 1 0 15 
2 7 8 
p 0.4800000008 1 67.5 120 
2 4 3 
p 0.4800000008 1 67.5 120 
2 8 2 
p 0.4800000008 1 0 40 
2 1 4 
p 0.4800000008 1 0 40 
37 39 40 41 42 43 44 45 46 47 48 49 50 51 52 53 54 55 56 57 58 59 60 61 62 63 64 65 66 67 68 69 70 71 72 73 74 38 
p 0.4800000008 1 0 0.174532925199433 0.349065850398866 0.523598775598299 0.698131700797732 0.872664625997165 1.0471975511966 1.22173047639603 1.39626340159546 1.5707963267949 1.74532925199433 1.91986217719376 2.0943951023932 2.26892802759263 2.44346095279206 2.61799387799149 2.79252680319093 2.96705972839036 3.14159265358979 3.31612557878922 3.49065850398866 3.66519142918809 3.83972435438752 4.01425727958696 4.18879020478639 4.36332312998582 4.53785605518525 4.71238898038469 4.88692190558412 5.06145483078355 5.23598775598299 5.41052068118242 5.58505360638185 5.75958653158128 5.93411945678072 6.10865238198015 6.28318530717959 
37 9 10 11 12 13 14 15 16 17 18 19 20 21 22 23 24 25 26 27 28 29 30 31 32 33 34 35 36 37 38 39 40 41 42 43 44 9 
p 0.4800000008 1 0 0.174532925199433 0.349065850398866 0.523598775598299 0.698131700797732 0.872664625997165 1.0471975511966 1.22173047639603 1.39626340159546 1.5707963267949 1.74532925199433 1.91986217719376 2.0943951023932 2.26892802759263 2.44346095279206 2.61799387799149 2.79252680319093 2.96705972839036 3.14159265358979 3.31612557878922 3.49065850398866 3.66519142918809 3.83972435438752 4.01425727958696 4.18879020478639 4.36332312998582 4.53785605518525 4.71238898038469 4.88692190558412 5.06145483078355 5.23598775598299 5.41052068118242 5.58505360638185 5.75958653158128 5.93411945678072 6.10865238198015 6.28318530717959 
2 3 4 
p 0.4800000008 1 0 50 
2 1 3 
p 0.4800000008 1 0 50 
2 2 4 
p 0.4800000008 1 0 50 
2 3 4 
p 0.4800000008 1 0 50 
2 1 2 
p 0.4800000008 1 0 50 
2 4 1 
p 0.4800000008 1 0 50 
2 3 2 
p 0.4800000008 1 0 50 
2 1 2 
p 0.4800000008 1 0 50 
37 39 40 41 42 43 44 45 46 47 48 49 50 51 52 53 54 55 56 57 58 59 60 61 62 63 64 65 66 67 68 69 70 71 72 73 74 38 
p 0.4800000008 1 0 0.174532925199433 0.349065850398866 0.523598775598299 0.698131700797732 0.872664625997165 1.0471975511966 1.22173047639603 1.39626340159546 1.5707963267949 1.74532925199433 1.91986217719376 2.0943951023932 2.26892802759263 2.44346095279206 2.61799387799149 2.79252680319093 2.96705972839036 3.14159265358979 3.31612557878922 3.49065850398866 3.66519142918809 3.83972435438752 4.01425727958696 4.18879020478639 4.36332312998582 4.53785605518525 4.71238898038469 4.88692190558412 5.06145483078355 5.23598775598299 5.41052068118242 5.58505360638185 5.75958653158128 5.93411945678072 6.10865238198015 6.28318530717959 
37 5 6 7 8 9 10 11 12 13 14 15 16 17 18 19 20 21 22 23 24 25 26 27 28 29 30 31 32 33 34 35 36 37 38 39 40 5 
p 0.4800000008 1 0 0.174532925199433 0.349065850398866 0.523598775598299 0.698131700797732 0.872664625997165 1.0471975511966 1.22173047639603 1.39626340159546 1.5707963267949 1.74532925199433 1.91986217719376 2.0943951023932 2.26892802759263 2.44346095279206 2.61799387799149 2.79252680319093 2.96705972839036 3.14159265358979 3.31612557878922 3.49065850398866 3.66519142918809 3.83972435438752 4.01425727958696 4.18879020478639 4.36332312998582 4.53785605518525 4.71238898038469 4.88692190558412 5.06145483078355 5.23598775598299 5.41052068118242 5.58505360638185 5.75958653158128 5.93411945678072 6.10865238198015 6.28318530717959 
2 1 2 
p 0.4800000008 1 25 28 
2 1 2 
p 0.4800000008 1 25 28 
2 2 3 
p 0.4800000008 1 0 5 
2 4 3 
p 0.4800000008 1 0 5 
2 4 3 
p 0.4800000008 1 25 28 
2 1 2 
p 0.4800000008 1 25 28 
2 3 2 
p 0.4800000008 1 0 10 
2 1 4 
p 0.4800000008 1 0 10 
2 4 3 
p 0.4800000008 1 25 28 
2 1 2 
p 0.4800000008 1 25 28 
2 2 3 
p 0.4800000008 1 0 5 
2 1 2 
p 0.4800000008 1 0 5 
2 4 3 
p 0.4800000008 1 25 28 
2 4 3 
p 0.4800000008 1 25 28 
2 3 2 
p 0.4800000008 1 0 10 
2 2 3 
p 0.4800000008 1 0 10 
2 38 2 
p 0.4800000008 1 1 51 
2 39 1 
p 0.4800000008 1 1 51 
2 38 2 
p 0.4800000008 1 1 41 
2 39 1 
p 0.4800000008 1 1 41 
Surfaces 25
1 0 0 0 1 0 -0 0 0 1 0 -1 0 
1 0 0 0 -0 1 0 0 0 1 1 0 -0 
1 0 0 0 1 0 -0 0 0 1 0 -1 0 
1 0 0 0 0 0 1 1 0 -0 -0 1 0 
1 0 10 0 -0 1 0 0 0 1 1 0 -0 
1 0 0 50 0 0 1 1 0 -0 -0 1 0 
1 0 40 0 -0 1 0 0 0 1 1 0 -0 
1 0 0 0 0 0 1 1 0 -0 -0 1 0 
1 50 0 0 1 0 -0 0 0 1 0 -1 0 
1 0 0 0 -0 1 0 0 0 1 1 0 -0 
1 0 0 0 1 0 -0 0 0 1 0 -1 0 
1 0 0 0 -0 1 0 0 0 1 1 0 -0 
1 0 0 10 0 0 1 1 0 -0 -0 1 0 
1 0 0 50 0 0 1 1 0 -0 -0 1 0 
1 0 15 0 -0 1 0 0 0 1 1 0 -0 
1 5 0 0 1 0 -0 0 0 1 0 -1 0 
1 120 0 0 1 0 -0 0 0 1 0 -1 0 
1 85 22.5 25 1 0 -0 0 0 1 0 -1 0 
1 75 22.5 25 -0 1 0 0 0 1 1 0 -0 
1 75 22.5 25 1 0 -0 0 0 1 0 -1 0 
1 75 27.5 25 -0 1 0 0 0 1 1 0 -0 
2 65 25 -1 0 0 1 1 0 -0 -0 1 0 5
2 105 -1 20 0 1 0 0 -0 1 1 0 -0 5
1 0 0 0 0 0 1 1 0 -0 -0 1 0 
1 75 22.5 53 0 0 1 1 0 -0 -0 1 0 
Triangulations 20
6 4 1 0
0 0 0 0 0 40 0 10 40 0 10 50 0 40 50 0 40 0 0 0 40 0 40 -10 50 -10 50 -40 0 -40 3 6 5 3 1 6 4 3 5 2 1 3 
6 4 1 8.88178419700125e-16
50 0 50 62.5 0 50 50 0 40 0 0 40 0 0 0 62.5 0 0 50 50 50 62.5 40 50 40 0 0 0 0 62.5 3 5 4 3 6 5 2 3 1 2 6 3 
4 2 1 8.88178419700125e-16
0 0 40 0 10 40 50 0 40 50 10 40 0 0 0 10 50 0 50 10 4 2 1 4 1 3 
4 2 1 8.88178419700125e-16
0 10 40 50 10 40 0 10 50 50 10 50 0 0 0 50 10 0 10 50 4 2 1 4 1 3 
50 52 1 7.32747196252603e-15
0 10 50 0 40 50 50 10 50 50 0 50 62.5 0 50 62.5 15 50 67.5 15 50 67.5 0 50 120 0 50 120 40 50 85 22.5 50 85 27.5 50 75 22.5 50 75 27.5 50 70 25 50 69.924038765061 25.8682408883347 50 69.6984631039295 26.7101007166283 50 69.3301270189222 27.5 50 68.8302222155949 28.2139380484327 50 68.2139380484327 28.8302222155949 50 67.5 29.3301270189222 50 66.7101007166283 29.6984631039295 50 65.8682408883347 29.924038765061 50 65 30 50 64.1317591116653 29.924038765061 50 63.2898992833717 29.6984631039295 50 62.5 29.3301270189222 50 61.7860619515673 28.8302222155949 50 61.1697777844051 28.2139380484327 50 60.6698729810778 27.5 50 60.3015368960705 26.7101007166284 50 60.075961234939 25.8682408883347 50 60 25 50 60.075961234939 24.1317591116654 50 60.3015368960705 23.2898992833717 50 60.6698729810778 22.5 50 61.1697777844051 21.7860619515673 50 61.7860619515673 21.1697777844051 50 62.5 20.6698729810778 50 63.2898992833716 20.3015368960705 50 64.1317591116653 20.075961234939 50 65 20 50 65.8682408883346 20.075961234939 50 66.7101007166283 20.3015368960705 50 67.5 20.6698729810778 50 68.2139380484327 21.1697777844051 50 68.8302222155949 21.7860619515673 50 69.3301270189222 22.5 50 69.6984631039295 23.2898992833716 50 69.924038765061 24.1317591116653 50 0 10 0 40 50 10 50 0 62.5 0 62.5 15 67.5 15 67.5 0 120 0 120 40 85 22.5 85 27.5 75 22.5 75 27.5 70 25 69.924038765061 25.8682408883347 69.6984631039295 26.7101007166283 69.3301270189222 27.5 68.8302222155949 28.2139380484327 68.2139380484327 28.8302222155949 67.5 29.3301270189222 66.7101007166283 29.6984631039295 65.8682408883347 29.924038765061 65 30 64.1317591116653 29.924038765061 63.2898992833717 29.6984631039295 62.5 29.3301270189222 61.7860619515673 28.8302222155949 61.1697777844051 28.2139380484327 60.6698729810778 27.5 60.3015368960705 26.7101007166284 60.075961234939 25.8682408883347 60 25 60.075961234939 24.1317591116654 60.3015368960705 23.2898992833717 60.6698729810778 22.5 61.1697777844051 21.7860619515673 61.7860619515673 21.1697777844051 62.5 20.6698729810778 63.2898992833716 20.3015368960705 64.1317591116653 20.075961234939 65 20 65.8682408883346 20.075961234939 66.7101007166283 20.3015368960705 67.5 20.6698729810778 68.2139380484327 21.1697777844051 68.8302222155949 21.7860619515673 69.3301270189222 22.5 69.6984631039295 23.2898992833716 69.924038765061 24.1317591116653 3 2 1 5 3 4 6 3 5 37 3 6 38 37 6 39 38 6 36 3 37 35 3 36 40 39 6 41 40 6 13 47 7 34 3 35 13 48 47 13 49 48 42 6 7 13 50 49 13 15 50 14 16 15 14 17 16 14 18 17 42 41 6 14 19 18 14 20 19 14 21 20 14 22 21 14 15 13 33 3 34 11 7 8 11 13 7 43 42 7 32 2 3 12 22 14 32 3 33 9 11 8 10 12 11 44 43 7 10 23 22 10 22 12 10 11 9 31 2 32 10 2 24 10 24 23 24 2 25 25 2 26 45 44 7 30 2 31 46 45 7 29 2 30 47 46 7 28 2 29 27 2 28 26 2 27 
40 40 1 7.99360577730113e-15
0 40 0 120 40 0 0 40 50 120 40 50 105 40 25 105.868240888335 40 24.924038765061 106.710100716628 40 24.6984631039295 107.5 40 24.3301270189222 108.213938048433 40 23.8302222155949 108.830222215595 40 23.2139380484327 109.330127018922 40 22.5 109.69846310393 40 21.7101007166283 109.924038765061 40 20.8682408883347 110 40 20 109.924038765061 40 19.1317591116653 109.69846310393 40 18.2898992833717 109.330127018922 40 17.5 108.830222215595 40 16.7860619515673 108.213938048433 40 16.1697777844051 107.5 40 15.6698729810778 106.710100716628 40 15.3015368960705 105.868240888335 40 15.075961234939 105 40 15 104.131759111665 40 15.075961234939 103.289899283372 40 15.3015368960705 102.5 40 15.6698729810778 101.786061951567 40 16.1697777844051 101.169777784405 40 16.7860619515673 100.669872981078 40 17.5 100.30153689607 40 18.2898992833716 100.075961234939 40 19.1317591116653 100 40 20 100.075961234939 40 20.8682408883346 100.30153689607 40 21.7101007166283 100.669872981078 40 22.5 101.169777784405 40 23.2139380484327 101.786061951567 40 23.8302222155949 102.5 40 24.3301270189222 103.289899283372 40 24.6984631039295 104.131759111665 40 24.924038765061 0 0 0 120 50 0 50 120 25 105 24.924038765061 105.868240888335 24.6984631039295 106.710100716628 24.3301270189222 107.5 23.8302222155949 108.213938048433 23.2139380484327 108.830222215595 22.5 109.330127018922 21.7101007166283 109.69846310393 20.8682408883347 109.924038765061 20 110 19.1317591116653 109.924038765061 18.2898992833717 109.69846310393 17.5 109.330127018922 16.7860619515673 108.830222215595 16.1697777844051 108.213938048433 15.6698729810778 107.5 15.3015368960705 106.710100716628 15.075961234939 105.868240888335 15 105 15.075961234939 104.131759111665 15.3015368960705 103.289899283372 15.6698729810778 102.5 16.1697777844051 101.786061951567 16.7860619515673 101.169777784405 17.5 100.669872981078 18.2898992833716 100.30153689607 19.1317591116653 100.075961234939 20 100 20.8682408883346 100.075961234939 21.7101007166283 100.30153689607 22.5 100.669872981078 23.2139380484327 101.169777784405 23.8302222155949 101.786061951567 24.3301270189222 102.5 24.6984631039295 103.289899283372 24.924038765061 104.131759111665 28 27 1 26 1 27 4 6 5 4 2 13 4 7 6 4 8 7 4 9 8 4 10 9 4 11 10 4 12 11 29 28 1 4 13 12 4 38 37 4 39 38 4 40 39 4 5 40 30 29 1 4 37 3 31 30 1 32 1 3 32 31 1 2 25 24 2 26 25 2 1 26 23 2 24 33 32 3 22 2 23 34 33 3 21 2 22 35 34 3 20 2 21 36 35 3 19 2 20 37 36 3 18 2 19 17 2 18 16 2 17 15 2 16 14 2 15 13 2 14 
44 44 1 7.32747196252603e-15
0 40 0 120 40 0 0 0 0 62.5 0 0 62.5 15 0 67.5 15 0 67.5 0 0 120 0 0 70 25 0 69.924038765061 25.8682408883347 0 69.6984631039295 26.7101007166283 0 69.3301270189222 27.5 0 68.8302222155949 28.2139380484327 0 68.2139380484327 28.8302222155949 0 67.5 29.3301270189222 0 66.7101007166283 29.6984631039295 0 65.8682408883347 29.924038765061 0 65 30 0 64.1317591116653 29.924038765061 0 63.2898992833717 29.6984631039295 0 62.5 29.3301270189222 0 61.7860619515673 28.8302222155949 0 61.1697777844051 28.2139380484327 0 60.6698729810778 27.5 0 60.3015368960705 26.7101007166284 0 60.075961234939 25.8682408883347 0 60 25 0 60.075961234939 24.1317591116654 0 60.3015368960705 23.2898992833717 0 60.6698729810778 22.5 0 61.1697777844051 21.7860619515673 0 61.7860619515673 21.1697777844051 0 62.5 20.6698729810778 0 63.2898992833716 20.3015368960705 0 64.1317591116653 20.075961234939 0 65 20 0 65.8682408883346 20.075961234939 0 66.7101007166283 20.3015368960705 0 67.5 20.6698729810778 0 68.2139380484327 21.1697777844051 0 68.8302222155949 21.7860619515673 0 69.3301270189222 22.5 0 69.6984631039295 23.2898992833716 0 69.924038765061 24.1317591116653 0 0 40 120 40 0 0 62.5 0 62.5 15 67.5 15 67.5 0 120 0 70 25 69.924038765061 25.8682408883347 69.6984631039295 26.7101007166283 69.3301270189222 27.5 68.8302222155949 28.2139380484327 68.2139380484327 28.8302222155949 67.5 29.3301270189222 66.7101007166283 29.6984631039295 65.8682408883347 29.924038765061 65 30 64.1317591116653 29.924038765061 63.2898992833717 29.6984631039295 62.5 29.3301270189222 61.7860619515673 28.8302222155949 61.1697777844051 28.2139380484327 60.6698729810778 27.5 60.3015368960705 26.7101007166284 60.075961234939 25.8682408883347 60 25 60.075961234939 24.1317591116654 60.3015368960705 23.2898992833717 60.6698729810778 22.5 61.1697777844051 21.7860619515673 61.7860619515673 21.1697777844051 62.5 20.6698729810778 63.2898992833716 20.3015368960705 64.1317591116653 20.075961234939 65 20 65.8682408883346 20.075961234939 66.7101007166283 20.3015368960705 67.5 20.6698729810778 68.2139380484327 21.1697777844051 68.8302222155949 21.7860619515673 69.3301270189222 22.5 69.6984631039295 23.2898992833716 69.924038765061 24.1317591116653 5 3 4 32 31 5 33 32 5 8 6 7 30 5 31 29 3 5 8 44 43 29 5 30 8 43 6 34 33 5 2 44 8 2 10 9 2 11 10 2 12 11 2 13 12 2 14 13 2 15 14 35 34 5 2 16 15 2 17 16 28 1 3 2 9 44 2 1 18 2 18 17 18 1 19 28 3 29 19 1 20 36 5 6 36 35 5 27 1 28 37 36 6 26 1 27 38 37 6 25 1 26 39 38 6 24 1 25 40 39 6 23 1 24 41 40 6 22 1 23 42 41 6 21 1 22 43 42 6 20 1 21 
4 2 1 0
50 0 40 50 0 50 50 10 40 50 10 50 0 0 10 0 0 -10 10 -10 2 1 3 2 3 4 
4 2 1 8.88178419700125e-16
62.5 0 0 62.5 0 50 62.5 15 0 62.5 15 50 0 0 50 0 0 -15 50 -15 4 1 3 2 1 4 
4 2 1 0
62.5 15 0 67.5 15 0 62.5 15 50 67.5 15 50 0 0 0 5 50 0 50 5 4 2 1 4 1 3 
4 2 1 8.88178419700125e-16
67.5 0 0 67.5 0 50 67.5 15 0 67.5 15 50 0 0 50 0 0 -15 50 -15 4 1 3 2 1 4 
40 40 1 7.99360577730113e-15
67.5 0 50 120 0 50 120 0 0 67.5 0 0 105 0 25 105.868240888335 0 24.924038765061 106.710100716628 0 24.6984631039295 107.5 0 24.3301270189222 108.213938048433 0 23.8302222155949 108.830222215595 0 23.2139380484327 109.330127018922 0 22.5 109.69846310393 0 21.7101007166283 109.924038765061 0 20.8682408883347 110 0 20 109.924038765061 0 19.1317591116653 109.69846310393 0 18.2898992833717 109.330127018922 0 17.5 108.830222215595 0 16.7860619515673 108.213938048433 0 16.1697777844051 107.5 0 15.6698729810778 106.710100716628 0 15.3015368960705 105.868240888335 0 15.075961234939 105 0 15 104.131759111665 0 15.075961234939 103.289899283372 0 15.3015368960705 102.5 0 15.6698729810778 101.786061951567 0 16.1697777844051 101.169777784405 0 16.7860619515673 100.669872981078 0 17.5 100.30153689607 0 18.2898992833716 100.075961234939 0 19.1317591116653 100 0 20 100.075961234939 0 20.8682408883346 100.30153689607 0 21.7101007166283 100.669872981078 0 22.5 101.169777784405 0 23.2139380484327 101.786061951567 0 23.8302222155949 102.5 0 24.3301270189222 103.289899283372 0 24.6984631039295 104.131759111665 0 24.924038765061 50 67.5 50 120 0 120 0 67.5 25 105 24.924038765061 105.868240888335 24.6984631039295 106.710100716628 24.3301270189222 107.5 23.8302222155949 108.213938048433 23.2139380484327 108.830222215595 22.5 109.330127018922 21.7101007166283 109.69846310393 20.8682408883347 109.924038765061 20 110 19.1317591116653 109.924038765061 18.2898992833717 109.69846310393 17.5 109.330127018922 16.7860619515673 108.830222215595 16.1697777844051 108.213938048433 15.6698729810778 107.5 15.3015368960705 106.710100716628 15.075961234939 105.868240888335 15 105 15.075961234939 104.131759111665 15.3015368960705 103.289899283372 15.6698729810778 102.5 16.1697777844051 101.786061951567 16.7860619515673 101.169777784405 17.5 100.669872981078 18.2898992833716 100.30153689607 19.1317591116653 100.075961234939 20 100 20.8682408883346 100.075961234939 21.7101007166283 100.30153689607 22.5 100.669872981078 23.2139380484327 101.169777784405 23.8302222155949 101.786061951567 24.3301270189222 102.5 24.6984631039295 103.289899283372 24.924038765061 104.131759111665 2 6 5 2 7 6 2 8 7 27 4 28 2 9 8 2 10 9 2 11 10 2 12 11 29 28 4 2 13 12 2 40 39 2 5 40 26 4 27 2 39 1 2 3 14 2 14 13 30 29 4 25 4 26 31 30 4 32 31 4 3 25 24 3 4 25 23 3 24 33 4 1 33 32 4 22 3 23 34 33 1 21 3 22 35 34 1 20 3 21 36 35 1 19 3 20 37 36 1 18 3 19 38 37 1 17 3 18 39 38 1 16 3 17 15 3 16 14 3 15 
4 2 1 0
120 0 0 120 0 50 120 40 50 120 40 0 0 0 50 0 50 -40 0 -40 2 4 3 2 1 4 
4 2 1 0
85 22.5 50 85 22.5 53 85 27.5 53 85 27.5 50 25 0 28 0 28 -5 25 -5 2 4 3 2 1 4 
4 2 1 0
85 22.5 50 85 22.5 53 75 22.5 53 75 22.5 50 25 10 28 10 28 0 25 0 2 4 3 2 1 4 
4 2 1 0
75 22.5 50 75 22.5 53 75 27.5 53 75 27.5 50 25 0 28 0 28 -5 25 -5 2 4 3 2 1 4 
4 2 1 0
85 27.5 50 85 27.5 53 75 27.5 53 75 27.5 50 25 10 28 10 28 0 25 0 2 4 3 2 1 4 
74 72 1 0.0190265095412773
70 25 50 70 25 50 69.924038765061 25.8682408883347 50 69.6984631039295 26.7101007166283 50 69.3301270189222 27.5 50 68.8302222155949 28.2139380484327 50 68.2139380484327 28.8302222155949 50 67.5 29.3301270189222 50 66.7101007166283 29.6984631039295 50 65.8682408883347 29.924038765061 50 65 30 50 64.1317591116653 29.924038765061 50 63.2898992833717 29.6984631039295 50 62.5 29.3301270189222 50 61.7860619515673 28.8302222155949 50 61.1697777844051 28.2139380484327 50 60.6698729810778 27.5 50 60.3015368960705 26.7101007166284 50 60.075961234939 25.8682408883347 50 60 25 50 60.075961234939 24.1317591116654 50 60.3015368960705 23.2898992833717 50 60.6698729810778 22.5 50 61.1697777844051 21.7860619515673 50 61.7860619515673 21.1697777844051 50 62.5 20.6698729810778 50 63.2898992833716 20.3015368960705 50 64.1317591116653 20.075961234939 50 65 20 50 65.8682408883346 20.075961234939 50 66.7101007166283 20.3015368960705 50 67.5 20.6698729810778 50 68.2139380484327 21.1697777844051 50 68.8302222155949 21.7860619515673 50 69.3301270189222 22.5 50 69.6984631039295 23.2898992833716 50 69.924038765061 24.1317591116653 50 70 25 0 70 25 0 69.924038765061 25.8682408883347 0 69.6984631039295 26.7101007166283 0 69.3301270189222 27.5 0 68.8302222155949 28.2139380484327 0 68.2139380484327 28.8302222155949 0 67.5 29.3301270189222 0 66.7101007166283 29.6984631039295 0 65.8682408883347 29.924038765061 0 65 30 0 64.1317591116653 29.924038765061 0 63.2898992833717 29.6984631039295 0 62.5 29.3301270189222 0 61.7860619515673 28.8302222155949 0 61.1697777844051 28.2139380484327 0 60.6698729810778 27.5 0 60.3015368960705 26.7101007166284 0 60.075961234939 25.8682408883347 0 60 25 0 60.075961234939 24.1317591116654 0 60.3015368960705 23.2898992833717 0 60.6698729810778 22.5 0 61.1697777844051 21.7860619515673 0 61.7860619515673 21.1697777844051 0 62.5 20.6698729810778 0 63.2898992833716 20.3015368960705 0 64.1317591116653 20.075961234939 0 65 20 0 65.8682408883346 20.075961234939 0 66.7101007166283 20.3015368960705 0 67.5 20.6698729810778 0 68.2139380484327 21.1697777844051 0 68.8302222155949 21.7860619515673 0 69.3301270189222 22.5 0 69.6984631039295 23.2898992833716 0 69.924038765061 24.1317591116653 0 0 51 6.28318530717959 51 0.174532925199433 51 0.349065850398866 51 0.523598775598299 51 0.698131700797732 51 0.872664625997165 51 1.0471975511966 51 1.22173047639603 51 1.39626340159546 51 1.5707963267949 51 1.74532925199433 51 1.91986217719376 51 2.0943951023932 51 2.26892802759263 51 2.44346095279206 51 2.61799387799149 51 2.79252680319093 51 2.96705972839036 51 3.14159265358979 51 3.31612557878922 51 3.49065850398866 51 3.66519142918809 51 3.83972435438752 51 4.01425727958696 51 4.18879020478639 51 4.36332312998582 51 4.53785605518525 51 4.71238898038469 51 4.88692190558412 51 5.06145483078355 51 5.23598775598299 51 5.41052068118242 51 5.58505360638185 51 5.75958653158128 51 5.93411945678072 51 6.10865238198015 51 6.28318530717959 1 0 1 0.174532925199433 1 0.349065850398866 1 0.523598775598299 1 0.698131700797732 1 0.872664625997165 1 1.0471975511966 1 1.22173047639603 1 1.39626340159546 1 1.5707963267949 1 1.74532925199433 1 1.91986217719376 1 2.0943951023932 1 2.26892802759263 1 2.44346095279206 1 2.61799387799149 1 2.79252680319093 1 2.96705972839036 1 3.14159265358979 1 3.31612557878922 1 3.49065850398866 1 3.66519142918809 1 3.83972435438752 1 4.01425727958696 1 4.18879020478639 1 4.36332312998582 1 4.53785605518525 1 4.71238898038469 1 4.88692190558412 1 5.06145483078355 1 5.23598775598299 1 5.41052068118242 1 5.58505360638185 1 5.75958653158128 1 5.93411945678072 1 6.10865238198015 1 21 57 58 21 20 57 21 58 59 3 39 40 22 21 59 3 1 39 23 59 60 23 22 59 4 40 41 24 60 61 4 3 40 24 23 60 5 41 42 25 61 62 5 4 41 25 24 61 6 42 43 6 43 44 6 5 42 26 62 63 26 25 62 27 63 64 7 44 45 27 26 63 7 6 44 28 64 65 8 7 45 28 27 64 29 65 66 9 8 45 29 28 65 9 45 46 30 66 67 10 9 46 30 29 66 10 46 47 10 47 48 31 67 68 31 68 69 31 30 67 11 10 48 32 31 69 12 11 48 12 48 49 12 49 50 33 32 69 13 12 50 33 69 70 34 33 70 34 70 71 14 13 50 14 50 51 15 14 51 15 51 52 35 34 71 35 71 72 36 35 72 36 72 73 16 15 52 16 52 53 37 36 73 37 73 74 2 37 74 2 74 38 17 16 53 17 53 54 17 54 55 18 17 55 19 18 55 19 55 56 20 19 56 20 56 57 
74 72 1 0.0190265095412811
105 40 25 105 40 25 105.868240888335 40 24.924038765061 106.710100716628 40 24.6984631039295 107.5 40 24.3301270189222 108.213938048433 40 23.8302222155949 108.830222215595 40 23.2139380484327 109.330127018922 40 22.5 109.69846310393 40 21.7101007166283 109.924038765061 40 20.8682408883347 110 40 20 109.924038765061 40 19.1317591116653 109.69846310393 40 18.2898992833717 109.330127018922 40 17.5 108.830222215595 40 16.7860619515673 108.213938048433 40 16.1697777844051 107.5 40 15.6698729810778 106.710100716628 40 15.3015368960705 105.868240888335 40 15.075961234939 105 40 15 104.131759111665 40 15.075961234939 103.289899283372 40 15.3015368960705 102.5 40 15.6698729810778 101.786061951567 40 16.1697777844051 101.169777784405 40 16.7860619515673 100.669872981078 40 17.5 100.30153689607 40 18.2898992833716 100.075961234939 40 19.1317591116653 100 40 20 100.075961234939 40 20.8682408883346 100.30153689607 40 21.7101007166283 100.669872981078 40 22.5 101.169777784405 40 23.2139380484327 101.786061951567 40 23.8302222155949 102.5 40 24.3301270189222 103.289899283372 40 24.6984631039295 104.131759111665 40 24.924038765061 105 0 25 105 0 25 105.868240888335 0 24.924038765061 106.710100716628 0 24.6984631039295 107.5 0 24.3301270189222 108.213938048433 0 23.8302222155949 108.830222215595 0 23.2139380484327 109.330127018922 0 22.5 109.69846310393 0 21.7101007166283 109.924038765061 0 20.8682408883347 110 0 20 109.924038765061 0 19.1317591116653 109.69846310393 0 18.2898992833717 109.330127018922 0 17.5 108.830222215595 0 16.7860619515673 108.213938048433 0 16.1697777844051 107.5 0 15.6698729810778 106.710100716628 0 15.3015368960705 105.868240888335 0 15.075961234939 105 0 15 104.131759111665 0 15.075961234939 103.289899283372 0 15.3015368960705 102.5 0 15.6698729810778 101.786061951567 0 16.1697777844051 101.169777784405 0 16.7860619515673 100.669872981078 0 17.5 100.30153689607 0 18.2898992833716 100.075961234939 0 19.1317591116653 100 0 20 100.075961234939 0 20.8682408883346 100.30153689607 0 21.7101007166283 100.669872981078 0 22.5 101.169777784405 0 23.2139380484327 101.786061951567 0 23.8302222155949 102.5 0 24.3301270189222 103.289899283372 0 24.6984631039295 104.131759111665 0 24.924038765061 0 41 6.28318530717959 41 0.174532925199433 41 0.349065850398866 41 0.523598775598299 41 0.698131700797732 41 0.872664625997165 41 1.0471975511966 41 1.22173047639603 41 1.39626340159546 41 1.5707963267949 41 1.74532925199433 41 1.91986217719376 41 2.0943951023932 41 2.26892802759263 41 2.44346095279206 41 2.61799387799149 41 2.79252680319093 41 2.96705972839036 41 3.14159265358979 41 3.31612557878922 41 3.49065850398866 41 3.66519142918809 41 3.83972435438752 41 4.01425727958696 41 4.18879020478639 41 4.36332312998582 41 4.53785605518525 41 4.71238898038469 41 4.88692190558412 41 5.06145483078355 41 5.23598775598299 41 5.41052068118242 41 5.58505360638185 41 5.75958653158128 41 5.93411945678072 41 6.10865238198015 41 6.28318530717959 1 0 1 0.174532925199433 1 0.349065850398866 1 0.523598775598299 1 0.698131700797732 1 0.872664625997165 1 1.0471975511966 1 1.22173047639603 1 1.39626340159546 1 1.5707963267949 1 1.74532925199433 1 1.91986217719376 1 2.0943951023932 1 2.26892802759263 1 2.44346095279206 1 2.61799387799149 1 2.79252680319093 1 2.96705972839036 1 3.14159265358979 1 3.31612557878922 1 3.49065850398866 1 3.66519142918809 1 3.83972435438752 1 4.01425727958696 1 4.18879020478639 1 4.36332312998582 1 4.53785605518525 1 4.71238898038469 1 4.88692190558412 1 5.06145483078355 1 5.23598775598299 1 5.41052068118242 1 5.58505360638185 1 5.75958653158128 1 5.93411945678072 1 6.10865238198015 1 20 19 56 20 56 57 21 57 58 21 20 57 21 58 59 3 39 40 3 1 39 22 21 59 4 40 41 4 41 42 4 3 40 23 59 60 23 22 59 24 60 61 24 23 60 5 4 42 25 61 62 25 24 61 6 42 43 6 5 42 26 62 63 26 25 62 7 43 44 7 6 43 8 44 45 27 63 64 27 64 65 8 7 44 27 26 63 28 27 65 29 65 66 9 8 45 29 28 65 9 45 46 30 66 67 30 29 66 10 9 46 10 46 47 31 67 68 11 10 47 11 47 48 31 30 67 32 68 69 12 11 48 32 69 70 12 48 49 32 31 68 33 32 70 13 12 49 13 49 50 34 70 71 14 13 50 14 50 51 14 51 52 34 33 70 35 34 71 35 71 72 15 14 52 36 35 72 36 72 73 16 15 52 16 52 53 16 53 54 37 36 73 37 73 74 37 74 38 2 37 38 17 16 54 18 17 54 18 54 55 19 18 55 19 55 56 
4 2 1 0
75 22.5 53 75 27.5 53 85 27.5 53 85 22.5 53 0 0 0 5 10 5 10 0 3 2 1 3 1 4 

TShapes 132
Ve
1.0001000025e-07
0 0 0
0 0

0101101
*
Ve
1.0001000025e-07
0 0 0
0 0

0101101
*
Ed
 1.0001000025e-07 1 1 0
1  1 0 0 40
2  1 1 0 0 40
2  2 2 0 0 40
6  1 1 0
6  2 2 0
0

0101000
+132 0 -131 1 *
Ve
1.0001000025e-07
0 10 0
0 0

0101101
*
Ed
 1.0001000025e-07 1 1 0
1  2 0 0 10
2  3 3 0 0 10
2  4 4 0 0 10
6  3 1 2
6  4 3 2
0

0101000
-129 0 +131 0 *
Ve
1.0001000025e-07
0 10 10
0 0

0101101
*
Ed
 1.0001000025e-07 1 1 0
1  3 0 0 10
2  5 3 0 0 10
2  6 5 0 0 10
6  5 1 2
6  6 4 2
0

0101000
-127 0 +129 0 *
Ve
1.0001000025e-07
0 40 50
0 0

0101101
*
Ed
 1.0001000025e-07 1 1 0
1  4 0 10 40
2  7 1 0 10 40
2  8 6 0 10 40
6  7 1 0
6  8 5 0
0

0101000
+127 1 -125 0 *
Ve
1.0001000025e-07
0 40 0
0 0

0101101
*
Ed
 1.0001000025e-07 1 1 0
1  5 0 0 50
2  9 1 0 0 50
2  10 7 0 0 50
6  9 1 0
6  10 6 0
0

0101000
-125 0 +123 0 *
Ed
 1.0001000025e-07 1 1 0
1  6 0 0 40
2  11 1 0 0 40
2  12 8 0 0 40
6  11 1 0
6  12 7 0
0

0101000
-123 0 +132 0 *
Wi

0101000
-130 0 -128 1 -126 1 -124 0 +122 0 +121 0 *
Fa
0  1e-07 1 0
2  1
0101000
+120 0 *
Ve
1.0001000025e-07
50 0 10
0 0

0101101
*
Ve
1.0001000025e-07
0 0 50
0 0

0101101
*
Ed
 1.0001000025e-07 1 1 0
1  7 0 50 62.5
2  13 2 0 50 62.5
2  14 6 0 50 62.5
6  13 2 0
6  14 5 0
0

0101000
+118 1 -117 3 *
Ve
1.0001000025e-07
50 0 0
0 0

0101101
*
Ed
 1.0001000025e-07 1 1 0
1  8 0 0 10
2  15 9 0 0 10
2  16 10 0 0 10
6  15 2 2
6  16 8 2
0

0101000
-118 0 +115 0 *
Ed
 1.0001000025e-07 1 1 0
1  9 0 0 50
2  17 10 0 0 50
2  18 4 0 0 50
6  17 2 2
6  18 3 2
0

0101000
-115 0 +131 0 *
Ve
1.0001000025e-07
0 0 0
0 0

0101101
*
Ed
 1.0001000025e-07 1 1 0
1  10 0 0 62.5
2  19 2 0 0 62.5
2  20 8 0 0 62.5
6  19 2 0
6  20 7 0
0

0101000
+132 0 -112 3 *
Ed
 1.0001000025e-07 1 1 0
1  11 0 0 50
2  21 11 0 0 50
2  22 12 0 0 50
6  21 2 4
6  22 9 4
0

0101000
-117 0 +112 0 *
Wi

0101000
+116 0 +114 1 +113 1 +130 0 -111 0 -110 3 *
Fa
0  1e-07 2 0
2  2
0101000
+109 0 *
Ve
1.0001000025e-07
50 10 0
0 0

0101101
*
Ed
 1.0001000025e-07 1 1 0
1  12 0 0 10
2  23 9 0 0 10
2  24 4 0 0 10
6  23 3 2
6  24 8 2
0

0101000
-107 0 +115 0 *
Ed
 1.0001000025e-07 1 1 0
1  13 0 0 50
2  25 5 0 0 50
2  26 4 0 0 50
6  25 3 2
6  26 4 2
0

0101000
-107 0 +129 0 *
Wi

0101100
-128 1 +113 1 +106 1 -105 1 *
Fa
0  1e-07 4 1
2  3
0101000
+104 0 *
Ve
1.0001000025e-07
50 10 10
0 0

0101101
*
Ed
 1.0001000025e-07 1 1 0
1  14 0 0 50
2  27 5 0 0 50
2  28 13 0 0 50
6  27 4 2
6  28 5 2
0

0101000
-102 0 +127 0 *
Ed
 1.0001000025e-07 1 1 0
1  15 0 0 10
2  29 9 0 0 10
2  30 5 0 0 10
6  29 4 2
6  30 8 2
0

0101000
-102 0 +107 0 *
Wi

0101100
-105 1 +126 1 +101 1 -100 1 *
Fa
0  1e-07 5 1
2  4
0101000
+99 0 *
Ed
 1.0001000025e-07 1 1 0
1  16 0 0 10
2  31 9 0 0 10
2  32 13 0 0 10
6  31 5 2
6  32 8 2
0

0101000
-102 0 +118 0 *
Ve
1.0001000025e-07
0 15 50
0 0

0101101
*
Ed
 1.0001000025e-07 1 1 0
1  17 0 0 15
2  33 11 0 0 15
2  34 14 0 0 15
6  33 5 4
6  34 9 4
0

0101000
-96 0 +117 0 *
Ve
1.0001000025e-07
5 15 50
0 0

0101101
*
Ed
 1.0001000025e-07 1 1 0
1  18 0 0 5
2  35 15 0 0 5
2  36 14 0 0 5
6  35 5 4
6  36 10 4
0

0101000
-94 0 +96 0 *
Ve
1.0001000025e-07
5 0 50
0 0

0101101
*
Ed
 1.0001000025e-07 1 1 0
1  19 0 0 15
2  37 16 0 0 15
2  38 14 0 0 15
6  37 5 4
6  38 11 4
0

0101000
-94 0 +92 0 *
Ve
1.0001000025e-07
120 0 50
0 0

0101101
*
Ed
 1.0001000025e-07 1 1 0
1  7 0 67.5 120
2  13 2 0 67.5 120
2  14 6 0 67.5 120
6  39 5 0
6  40 12 0
0

0101000
+92 3 -90 0 *
Ve
1.0001000025e-07
120 40 50
0 0

0101101
*
Ed
 1.0001000025e-07 1 1 0
1  20 0 0 40
2  39 17 0 0 40
2  40 6 0 0 40
6  41 5 0
6  42 13 0
0

0101000
-88 0 +90 0 *
Ed
 1.0001000025e-07 1 1 0
1  21 0 0 120
2  41 7 0 0 120
2  42 6 0 0 120
6  43 5 0
6  44 6 0
0

0101000
-88 0 +125 0 *
Wi

0101100
-124 0 +101 1 -97 1 +116 0 +95 3 +93 3 -91 3 +89 0 +87 0 -86 0 
*
Ve
1.0001000025e-07
85 22.5 50
0 0

0101101
*
Ve
1.0001000025e-07
85 27.5 50
0 0

0101101
*
Ed
 1.0001000025e-07 1 1 0
1  22 0 11.25 16.25
2  43 6 0 11.25 16.25
2  44 18 0 11.25 16.25
6  45 5 0
6  46 14 0
0

0101000
+84 0 -83 0 *
Ve
1.0001000025e-07
75 22.5 50
0 0

0101101
*
Ed
 1.0001000025e-07 1 1 0
1  23 0 -47.5 -37.5
2  45 6 0 -47.5 -37.5
2  46 19 0 -47.5 -37.5
6  47 5 0
6  48 15 0
0

0101000
+84 0 -81 0 *
Ve
1.0001000025e-07
75 27.5 50
0 0

0101101
*
Ed
 1.0001000025e-07 1 1 0
1  24 0 11.25 16.25
2  47 6 0 11.25 16.25
2  48 20 0 11.25 16.25
6  49 5 0
6  50 16 0
0

0101000
+81 0 -79 0 *
Ed
 1.0001000025e-07 1 1 0
1  25 0 -47.5 -37.5
2  49 6 0 -47.5 -37.5
2  50 21 0 -47.5 -37.5
6  51 5 0
6  52 17 0
0

0101000
+83 0 -79 0 *
Wi

0101100
-82 0 +80 0 +78 0 -77 0 *
Ve
1.00005e-07
70 25 50
0 0

0101101
*
Ed
 1.00005e-07 1 1 0
1  26 0 0 6.28318530717959
2  51 6 0 0 6.28318530717959
2  52 22 0 0 6.28318530717959
6  53 18 0
6  54 5 0
0

0101100
+75 0 -75 0 *
Wi

0101000
-74 0 *
Fa
0  1e-07 6 0
2  5
0101000
+85 0 +76 0 +73 0 *
Ve
1.0001000025e-07
120 40 0
0 0

0101101
*
Ed
 1.0001000025e-07 1 1 0
1  27 0 0 120
2  53 7 0 0 120
2  54 8 0 0 120
6  55 6 0
6  56 7 0
0

0101000
-71 0 +123 0 *
Ed
 1.0001000025e-07 1 1 0
1  28 0 0 50
2  55 17 0 0 50
2  56 7 0 0 50
6  57 6 0
6  58 13 0
0

0101000
-88 0 +71 0 *
Wi

0101100
-70 0 +122 0 +86 0 -69 0 *
Ve
1.00005e-07
105 40 25
0 0

0101101
*
Ed
 1.00005e-07 1 1 0
1  29 0 0 6.28318530717959
2  57 7 0 0 6.28318530717959
2  58 23 0 0 6.28318530717959
6  59 19 0
6  60 6 0
0

0101100
+67 0 -67 0 *
Wi

0101000
-66 0 *
Fa
0  1e-07 7 0
2  6
0101000
+68 0 +65 0 *
Ve
1.0001000025e-07
0 15 0
0 0

0101101
*
Ed
 1.0001000025e-07 1 1 0
1  30 0 0 15
2  59 11 0 0 15
2  60 24 0 0 15
6  61 7 4
6  62 9 4
0

0101000
-63 0 +112 0 *
Ve
1.0001000025e-07
5 15 0
0 0

0101101
*
Ed
 1.0001000025e-07 1 1 0
1  31 0 0 5
2  61 15 0 0 5
2  62 24 0 0 5
6  63 7 4
6  64 10 4
0

0101000
-61 0 +63 0 *
Ve
1.0001000025e-07
5 0 0
0 0

0101101
*
Ed
 1.0001000025e-07 1 1 0
1  32 0 0 15
2  63 16 0 0 15
2  64 24 0 0 15
6  65 7 4
6  66 11 4
0

0101000
-61 0 +59 0 *
Ve
1.0001000025e-07
120 0 0
0 0

0101101
*
Ed
 1.0001000025e-07 1 1 0
1  10 0 67.5 120
2  19 2 0 67.5 120
2  20 8 0 67.5 120
6  67 7 0
6  68 12 0
0

0101000
+59 3 -57 0 *
Ed
 1.0001000025e-07 1 1 0
1  33 0 0 40
2  65 17 0 0 40
2  66 8 0 0 40
6  69 7 0
6  70 13 0
0

0101000
-71 0 +57 0 *
Wi

0101100
-70 0 -121 0 +111 0 +62 3 +60 3 -58 3 +56 0 +55 0 *
Ve
1.00005e-07
70 25 0
0 0

0101101
*
Ed
 1.00005e-07 1 1 0
1  34 0 0 6.28318530717959
2  67 8 0 0 6.28318530717959
2  68 22 0 0 6.28318530717959
6  71 18 0
6  72 7 0
0

0101100
+53 0 -53 0 *
Wi

0101000
-52 0 *
Fa
0  1e-07 8 0
2  7
0101000
+54 0 +51 0 *
Wi

0101100
-114 1 +106 1 +100 1 -97 1 *
Fa
0  1e-07 9 1
2  8
0101000
+49 0 *
Ed
 1.0001000025e-07 1 1 0
1  35 0 0 50
2  69 11 0 0 50
2  70 15 0 0 50
6  73 9 4
6  74 10 4
0

0101000
-96 0 +63 0 *
Wi

0101100
-110 3 +62 3 +47 3 -95 3 *
Fa
0  1e-07 11 3
2  9
0101000
+46 0 *
Ed
 1.0001000025e-07 1 1 0
1  36 0 0 50
2  71 16 0 0 50
2  72 15 0 0 50
6  75 10 4
6  76 11 4
0

0101000
-94 0 +61 0 *
Wi

0101100
-60 3 +47 3 +93 3 -44 3 *
Fa
0  1e-07 15 3
2  10
0101000
+43 0 *
Ed
 1.0001000025e-07 1 1 0
1  37 0 0 50
2  73 16 0 0 50
2  74 12 0 0 50
6  77 11 4
6  78 12 4
0

0101000
-92 0 +59 0 *
Wi

0101100
-41 3 +58 3 +44 3 -91 3 *
Fa
0  1e-07 16 3
2  11
0101000
+40 0 *
Ed
 1.0001000025e-07 1 1 0
1  38 0 0 50
2  75 17 0 0 50
2  76 2 0 0 50
6  79 12 0
6  80 13 0
0

0101000
-90 0 +57 0 *
Wi

0101100
+89 0 -38 0 -56 0 +41 3 *
Ve
1.00005e-07
105 0 25
0 0

0101101
*
Ed
 1.00005e-07 1 1 0
1  39 0 0 6.28318530717959
2  77 2 0 0 6.28318530717959
2  78 23 0 0 6.28318530717959
6  81 19 0
6  82 12 0
0

0101100
+36 0 -36 0 *
Wi

0101000
-35 0 *
Fa
0  1e-07 2 0
2  12
0101000
+37 0 +34 0 *
Wi

0101000
-38 0 -87 0 +69 0 +55 0 *
Fa
0  1e-07 17 0
2  13
0101000
+32 0 *
Ve
1.0001000025e-07
85 22.5 53
0 0

0101101
*
Ed
 1.0001000025e-07 1 1 0
1  40 0 25 28
2  79 18 0 25 28
2  80 19 0 25 28
6  83 14 0
6  84 15 0
0

0101000
+84 0 -30 0 *
Ve
1.0001000025e-07
85 27.5 53
0 0

0101101
*
Ed
 1.0001000025e-07 1 1 0
1  41 0 0 5
2  81 18 0 0 5
2  82 25 0 0 5
6  85 14 0
6  86 20 0
0

0101000
-28 0 +30 0 *
Ed
 1.0001000025e-07 1 1 0
1  42 0 25 28
2  83 18 0 25 28
2  84 21 0 25 28
6  87 14 0
6  88 17 0
0

0101000
+83 0 -28 0 *
Wi

0101000
-29 0 -27 0 +26 0 +82 0 *
Fa
0  1e-07 18 0
2  14
0101000
+25 0 *
Ve
1.0001000025e-07
75 22.5 53
0 0

0101101
*
Ed
 1.0001000025e-07 1 1 0
1  43 0 0 10
2  85 19 0 0 10
2  86 25 0 0 10
6  89 15 0
6  90 20 0
0

0101000
-30 0 +23 0 *
Ed
 1.0001000025e-07 1 1 0
1  44 0 25 28
2  87 20 0 25 28
2  88 19 0 25 28
6  91 15 0
6  92 16 0
0

0101000
+81 0 -23 0 *
Wi

0101000
-29 0 +22 0 +21 0 +80 0 *
Fa
0  1e-07 19 0
2  15
0101000
+20 0 *
Ve
1.0001000025e-07
75 27.5 53
0 0

0101101
*
Ed
 1.0001000025e-07 1 1 0
1  45 0 0 5
2  89 20 0 0 5
2  90 25 0 0 5
6  93 16 0
6  94 20 0
0

0101000
-18 0 +23 0 *
Ed
 1.0001000025e-07 1 1 0
1  46 0 25 28
2  91 20 0 25 28
2  92 21 0 25 28
6  95 16 0
6  96 17 0
0

0101000
+79 0 -18 0 *
Wi

0101000
-21 0 -17 0 +16 0 +78 0 *
Fa
0  1e-07 20 0
2  16
0101000
+15 0 *
Ed
 1.0001000025e-07 1 1 0
1  47 0 0 10
2  93 21 0 0 10
2  94 25 0 0 10
6  97 17 0
6  98 20 0
0

0101000
-28 0 +18 0 *
Wi

0101000
-26 0 +13 0 +16 0 +77 0 *
Fa
0  1e-07 21 0
2  17
0101000
+12 0 *
Ed
 1e-07 1 1 0
1  48 0 1 51
3  95 96CN 22 0 1 51
7  99 100 18 0
0

0101000
+53 0 -75 0 *
Wi

0101000
-74 0 +10 0 +52 0 -10 0 *
Fa
0  1e-07 22 0
2  18
0101000
+9 0 *
Ed
 1e-07 1 1 0
1  49 0 1 41
3  97 98CN 23 0 1 41
7  101 102 19 0
0

0101000
+36 0 -67 0 *
Wi

0101000
-66 0 +7 0 +35 0 -7 0 *
Fa
0  1e-07 23 0
2  19
0101000
+6 0 *
Wi

0101000
-17 0 -13 0 +27 0 +22 0 *
Fa
0  1e-07 25 0
2  20
0101000
+4 0 *
Sh

0101100
-119 0 -108 0 +103 0 -98 0 +72 0 +64 0 -50 0 -48 0 +45 0 -42 0 
-39 0 -33 0 +31 0 +24 0 -19 0 -14 0 +11 0 -8 0 -5 0 +3 0 
*
So

1100000
+2 0 *

+1 0 